<?xml version="1.0" standalone="no"?>
 <!DOCTYPE svg PUBLIC "-//W3C//DTD SVG 1.1//EN" 
 "http://www.w3.org/Graphics/SVG/1.1/DTD/svg11.dtd"> 
<svg xmlns="http://www.w3.org/2000/svg" version="1.1" 
    width="29.7002cm" height="21.0007cm" viewBox="0 0 116930 82680 ">
<title>SVG Picture created as alim--brd.svg date 2013/11/04 19:20:46 </title>
  <desc>Picture generated by PCBNEW </desc>
<g style="fill:#000000; fill-opacity:1;stroke:#000000; stroke-opacity:1;
stroke-linecap:round; stroke-linejoin:round; "
 transform="translate(0 0) scale(1 1)">
</g>
<g style="fill:#000000; fill-opacity:0.0; 
stroke:#000000; stroke-width:39.3701; stroke-opacity:1; 
stroke-linecap:round; stroke-linejoin:round;">
<rect x="-845466" y="-845466" width="0" height="0" rx="0" />
<rect x="-845466" y="-845466" width="0" height="0" rx="0" />
<path d="M-845466 -845466
L-845466 -845466
" />
<path d="M-845466 -845466
L-845466 -845466
" />
<path d="M-845466 -845466
L-845466 -845466
" />
<path d="M-845466 -845466
L-845466 -845466
" />
<path d="M-845466 -845466
L-845466 -845466
" />
<path d="M-845353 -845227
L-845269 -845199
L-845128 -845199
L-845072 -845227
L-845044 -845255
L-845016 -845311
L-845016 -845367
L-845044 -845423
L-845072 -845451
L-845128 845451
L-845241 845423
L-845297 845395
L-845325 845367
L-845353 845311
L-845353 845255
L-845325 845199
L-845297 845171
L-845241 845142
L-845100 845142
L-845016 845171
" />
<path d="M-844763 -845199
L-844763 845142
" />
<path d="M-844510 -845199
L-844510 845423
L-844538 845367
L-844595 845339
L-844679 845339
L-844735 845367
L-844763 845395
" />
<path d="M-844005 -845227
L-844061 -845199
L-844173 -845199
L-844229 -845227
L-844257 -845283
L-844257 845423
L-844229 845367
L-844173 845339
L-844061 845339
L-844005 845367
L-843976 845423
L-843976 -845451
L-844257 -845395
" />
<path d="M-843499 -845227
L-843555 -845199
L-843667 -845199
L-843724 -845227
L-843752 -845283
L-843752 845423
L-843724 845367
L-843667 845339
L-843555 845339
L-843499 845367
L-843471 845423
L-843471 -845451
L-843752 -845395
" />
<path d="M-843302 845339
L-843077 845339
" />
<path d="M-843218 845142
L-843218 -845283
L-843190 -845227
L-843134 -845199
L-843077 -845199
" />
<path d="M-842881 -845255
L-842853 -845227
L-842881 -845199
L-842909 -845227
L-842881 -845255
L-842881 -845199
" />
<path d="M-842881 845367
L-842853 845395
L-842881 845423
L-842909 845395
L-842881 845367
L-842881 845423
" />
<path d="M-841729 845114
L-842235 -845058
" />
<path d="M-841532 -845199
L-841532 845142
" />
<path d="M-841279 -845199
L-841279 845423
L-841307 845367
L-841364 845339
L-841448 845339
L-841504 845367
L-841532 845395
" />
<path d="M-840914 -845199
L-840970 -845227
L-840998 -845255
L-841026 -845311
L-841026 845451
L-840998 845395
L-840970 845367
L-840914 845339
L-840830 845339
L-840774 845367
L-840746 845395
L-840717 845451
L-840717 -845311
L-840746 -845255
L-840774 -845227
L-840830 -845199
L-840914 -845199
" />
<path d="M-840465 -845199
L-840465 845339
" />
<path d="M-840465 845395
L-840436 845367
L-840380 845339
L-840296 845339
L-840240 845367
L-840212 845423
L-840212 -845199
" />
<path d="M-840212 845423
L-840184 845367
L-840127 845339
L-840043 845339
L-839987 845367
L-839959 845423
L-839959 -845199
" />
<path d="M-839453 -845227
L-839509 -845199
L-839622 -845199
L-839678 -845227
L-839706 -845283
L-839706 845423
L-839678 845367
L-839622 845339
L-839509 845339
L-839453 845367
L-839425 845423
L-839425 -845451
L-839706 -845395
" />
<path d="M-838751 845114
L-839256 -845058
" />
<path d="M-838610 845339
L-838470 -845199
" />
<path d="M-838329 845339
L-838470 -845199
L-838526 -845058
L-838554 -845030
L-838610 -845002
" />
<path d="M-838020 -845199
L-838076 -845227
L-838105 -845255
L-838133 -845311
L-838133 845451
L-838105 845395
L-838076 845367
L-838020 845339
L-837936 845339
L-837880 845367
L-837852 845395
L-837824 845451
L-837824 -845311
L-837852 -845255
L-837880 -845227
L-837936 -845199
L-838020 -845199
" />
<path d="M-837318 845339
L-837318 -845114
L-837346 -845058
L-837374 -845030
L-837430 -845002
L-837515 -845002
L-837571 -845030
" />
<path d="M-837318 -845227
L-837374 -845199
L-837486 -845199
L-837543 -845227
L-837571 -845255
L-837599 -845311
L-837599 845451
L-837571 845395
L-837543 845367
L-837486 845339
L-837374 845339
L-837318 845367
" />
<path d="M-836616 845114
L-837121 -845058
" />
<path d="M-836503 845142
L-836166 845142
" />
<path d="M-836335 -845199
L-836335 845142
" />
<path d="M-835632 -845199
L-835829 845451
" />
<path d="M-835969 -845199
L-835969 845142
L-835745 845142
L-835688 845171
L-835660 845199
L-835632 845255
L-835632 845339
L-835660 845395
L-835688 845423
L-835745 845451
L-835969 845451
" />
<path d="M-835295 -845199
L-835351 -845227
L-835379 -845255
L-835407 -845311
L-835407 845451
L-835379 845395
L-835351 845367
L-835295 845339
L-835211 845339
L-835155 845367
L-835126 845395
L-835098 845451
L-835098 -845311
L-835126 -845255
L-835155 -845227
L-835211 -845199
L-835295 -845199
" />
<path d="M-834761 -845199
L-834817 -845227
L-834846 -845283
L-834846 845142
" />
<path d="M-834452 -845199
L-834508 -845227
L-834536 -845283
L-834536 845142
" />
<path d="M-833806 845114
L-834312 -845058
" />
<path d="M-833609 845339
L-833609 -845002
" />
<path d="M-833609 845367
L-833553 845339
L-833441 845339
L-833385 845367
L-833356 845395
L-833328 845451
L-833328 -845311
L-833356 -845255
L-833385 -845227
L-833441 -845199
L-833553 -845199
L-833609 -845227
" />
<path d="M-833076 -845199
L-833076 845339
" />
<path d="M-833076 845451
L-833047 845395
L-833019 845367
L-832963 845339
L-832907 845339
" />
<path d="M-832626 -845199
L-832682 -845227
L-832710 -845255
L-832738 -845311
L-832738 845451
L-832710 845395
L-832682 845367
L-832626 845339
L-832542 845339
L-832486 845367
L-832457 845395
L-832429 845451
L-832429 -845311
L-832457 -845255
L-832486 -845227
L-832542 -845199
L-832626 -845199
" />
<path d="M-832176 845339
L-832176 -845086
L-832205 -845030
L-832261 -845002
L-832289 -845002
" />
<path d="M-832176 845142
L-832205 845171
L-832176 845199
L-832148 845171
L-832176 845142
L-832176 845199
" />
<path d="M-831671 -845227
L-831727 -845199
L-831839 -845199
L-831896 -845227
L-831924 -845283
L-831924 845423
L-831896 845367
L-831839 845339
L-831727 845339
L-831671 845367
L-831643 845423
L-831643 -845451
L-831924 -845395
" />
<path d="M-831474 845339
L-831249 845339
" />
<path d="M-831390 845142
L-831390 -845283
L-831362 -845227
L-831306 -845199
L-831249 -845199
" />
<path d="M-831081 -845227
L-831025 -845199
L-830912 -845199
L-830856 -845227
L-830828 -845283
L-830828 -845311
L-830856 -845367
L-830912 -845395
L-830996 -845395
L-831053 -845423
L-831081 845451
L-831081 845423
L-831053 845367
L-830996 845339
L-830912 845339
L-830856 845367
" />
<path d="M-830154 845114
L-830659 -845058
" />
<path d="M-830041 845142
L-829704 845142
" />
<path d="M-829873 -845199
L-829873 845142
" />
<path d="M-829170 -845199
L-829367 845451
" />
<path d="M-829507 -845199
L-829507 845142
L-829283 845142
L-829226 845171
L-829198 845199
L-829170 845255
L-829170 845339
L-829198 845395
L-829226 845423
L-829283 845451
L-829507 845451
" />
<path d="M-828833 -845199
L-828889 -845227
L-828917 -845255
L-828946 -845311
L-828946 845451
L-828917 845395
L-828889 845367
L-828833 845339
L-828749 845339
L-828693 845367
L-828665 845395
L-828636 845451
L-828636 -845311
L-828665 -845255
L-828693 -845227
L-828749 -845199
L-828833 -845199
" />
<path d="M-828440 845339
L-828299 -845199
" />
<path d="M-828159 845339
L-828299 -845199
L-828356 -845058
L-828384 -845030
L-828440 -845002
" />
<path d="M-827513 845199
L-827485 845171
L-827428 845142
L-827288 845142
L-827232 845171
L-827204 845199
L-827176 845255
L-827176 845311
L-827204 845395
L-827541 -845199
L-827176 -845199
" />
<path d="M-826501 845114
L-827007 -845058
" />
<path d="M-826080 -845227
L-826136 -845199
L-826248 -845199
L-826305 -845227
L-826333 -845283
L-826333 845423
L-826305 845367
L-826248 845339
L-826136 845339
L-826080 845367
L-826052 845423
L-826052 -845451
L-826333 -845395
" />
<path d="M-825715 -845199
L-825771 -845227
L-825799 -845283
L-825799 845142
" />
<path d="M-825265 -845227
L-825321 -845199
L-825434 -845199
L-825490 -845227
L-825518 -845283
L-825518 845423
L-825490 845367
L-825434 845339
L-825321 845339
L-825265 845367
L-825237 845423
L-825237 -845451
L-825518 -845395
" />
<path d="M-824731 -845227
L-824787 -845199
L-824900 -845199
L-824956 -845227
L-824984 -845255
L-825012 -845311
L-825012 845451
L-824984 845395
L-824956 845367
L-824900 845339
L-824787 845339
L-824731 845367
" />
<path d="M-824057 845114
L-824563 -845058
" />
<path d="M-823607 -845199
L-823607 845423
L-823636 845367
L-823692 845339
L-823804 845339
L-823860 845367
" />
<path d="M-823607 -845227
L-823664 -845199
L-823804 -845199
L-823860 -845227
L-823888 -845283
L-823888 -845339
L-823860 -845395
L-823804 -845423
L-823664 -845423
L-823607 -845451
" />
<path d="M-823242 -845199
L-823298 -845227
L-823326 -845283
L-823326 845142
" />
<path d="M-823017 -845199
L-823017 845339
" />
<path d="M-823017 845142
L-823046 845171
L-823017 845199
L-822989 845171
L-823017 845142
L-823017 845199
" />
<path d="M-822736 -845199
L-822736 845339
" />
<path d="M-822736 845395
L-822708 845367
L-822652 845339
L-822568 845339
L-822512 845367
L-822484 845423
L-822484 -845199
" />
<path d="M-822484 845423
L-822456 845367
L-822399 845339
L-822315 845339
L-822259 845367
L-822231 845423
L-822231 -845199
" />
<path d="M-821950 -845255
L-821922 -845227
L-821950 -845199
L-821978 -845227
L-821950 -845255
L-821950 -845199
" />
<path d="M-821669 -845199
L-821669 845142
" />
<path d="M-821613 -845423
L-821444 -845199
" />
<path d="M-821444 845339
L-821669 -845367
" />
<path d="M-821191 -845199
L-821191 845339
" />
<path d="M-821191 845142
L-821219 845171
L-821191 845199
L-821163 845171
L-821191 845142
L-821191 845199
" />
<path d="M-820657 -845227
L-820714 -845199
L-820826 -845199
L-820882 -845227
L-820910 -845255
L-820938 -845311
L-820938 845451
L-820910 845395
L-820882 845367
L-820826 845339
L-820714 845339
L-820657 845367
" />
<path d="M-820152 -845199
L-820152 845423
L-820180 845367
L-820236 845339
L-820348 845339
L-820405 845367
" />
<path d="M-820152 -845227
L-820208 -845199
L-820348 -845199
L-820405 -845227
L-820433 -845283
L-820433 -845339
L-820405 -845395
L-820348 -845423
L-820208 -845423
L-820152 -845451
" />
<path d="M-819618 -845199
L-819618 845142
" />
<path d="M-819618 -845227
L-819674 -845199
L-819786 -845199
L-819843 -845227
L-819871 -845255
L-819899 -845311
L-819899 845451
L-819871 845395
L-819843 845367
L-819786 845339
L-819674 845339
L-819618 845367
" />
<path d="M-819477 -845142
L-819028 -845142
" />
<path d="M-818887 845339
L-818887 -845002
" />
<path d="M-818887 845367
L-818831 845339
L-818719 845339
L-818663 845367
L-818635 845395
L-818606 845451
L-818606 -845311
L-818635 -845255
L-818663 -845227
L-818719 -845199
L-818831 -845199
L-818887 -845227
" />
<path d="M-818101 -845227
L-818157 -845199
L-818269 -845199
L-818326 -845227
L-818354 -845255
L-818382 -845311
L-818382 845451
L-818354 845395
L-818326 845367
L-818269 845339
L-818157 845339
L-818101 845367
" />
<path d="M-817848 -845199
L-817848 845142
" />
<path d="M-817848 845367
L-817792 845339
L-817679 845339
L-817623 845367
L-817595 845395
L-817567 845451
L-817567 -845311
L-817595 -845255
L-817623 -845227
L-817679 -845199
L-817792 -845199
L-817848 -845227
" />
<path d="M-845128 845423
L-845325 845423
" />
<path d="M-845325 -845199
L-845325 845142
L-845044 845142
" />
<path d="M-844819 -845199
L-844819 845339
" />
<path d="M-844819 845142
L-844847 845171
L-844819 845199
L-844791 845171
L-844819 845142
L-844819 845199
" />
<path d="M-844454 -845199
L-844510 -845227
L-844538 -845283
L-844538 845142
" />
<path d="M-844005 -845227
L-844061 -845199
L-844173 -845199
L-844229 -845227
L-844257 -845283
L-844257 845423
L-844229 845367
L-844173 845339
L-844061 845339
L-844005 845367
L-843976 845423
L-843976 -845451
L-844257 -845395
" />
<path d="M-843724 -845255
L-843696 -845227
L-843724 -845199
L-843752 -845227
L-843724 -845255
L-843724 -845199
" />
<path d="M-843724 845367
L-843696 845395
L-843724 845423
L-843752 845395
L-843724 845367
L-843724 845423
" />
</g>
<g style="fill:#000000; fill-opacity:0.0; 
stroke:#000000; stroke-width:118; stroke-opacity:1; 
stroke-linecap:round; stroke-linejoin:round;">
<path d="M-845409 845142
L-845072 845142
" />
<path d="M-845241 -845199
L-845241 845142
" />
<path d="M-844876 -845199
L-844876 845339
" />
<path d="M-844876 845142
L-844904 845171
L-844876 845199
L-844847 845171
L-844876 845142
L-844876 845199
" />
<path d="M-844679 845339
L-844454 845339
" />
<path d="M-844595 845142
L-844595 -845283
L-844566 -845227
L-844510 -845199
L-844454 -845199
" />
<path d="M-844173 -845199
L-844229 -845227
L-844257 -845283
L-844257 845142
" />
<path d="M-843724 -845227
L-843780 -845199
L-843892 -845199
L-843948 -845227
L-843976 -845283
L-843976 845423
L-843948 845367
L-843892 845339
L-843780 845339
L-843724 845367
L-843696 845423
L-843696 -845451
L-843976 -845395
" />
<path d="M-843443 -845255
L-843415 -845227
L-843443 -845199
L-843471 -845227
L-843443 -845255
L-843443 -845199
" />
<path d="M-843443 845367
L-843415 845395
L-843443 845423
L-843471 845395
L-843443 845367
L-843443 845423
" />
</g>
<g style="fill:#000000; fill-opacity:0.0; 
stroke:#000000; stroke-width:39.3701; stroke-opacity:1; 
stroke-linecap:round; stroke-linejoin:round;">
<path d="M-845325 -845199
L-845325 845142
" />
<path d="M-844791 -845199
L-844791 845142
" />
<path d="M-844791 -845227
L-844847 -845199
L-844960 -845199
L-845016 -845227
L-845044 -845255
L-845072 -845311
L-845072 845451
L-845044 845395
L-845016 845367
L-844960 845339
L-844847 845339
L-844791 845367
" />
<path d="M-844510 -845255
L-844482 -845227
L-844510 -845199
L-844538 -845227
L-844510 -845255
L-844510 -845199
" />
<path d="M-844510 845367
L-844482 845395
L-844510 845423
L-844538 845395
L-844510 845367
L-844510 845423
" />
<path d="M-843471 -845199
L-843808 -845199
" />
<path d="M-843639 -845199
L-843639 845142
L-843696 845227
L-843752 845283
L-843808 845311
" />
<path d="M-842796 845114
L-843302 -845058
" />
<path d="M-842291 -845199
L-842628 -845199
" />
<path d="M-842459 -845199
L-842459 845142
L-842516 845227
L-842572 845283
L-842628 845311
" />
<path d="M-845353 -845227
L-845269 -845199
L-845128 -845199
L-845072 -845227
L-845044 -845255
L-845016 -845311
L-845016 -845367
L-845044 -845423
L-845072 -845451
L-845128 845451
L-845241 845423
L-845297 845395
L-845325 845367
L-845353 845311
L-845353 845255
L-845325 845199
L-845297 845171
L-845241 845142
L-845100 845142
L-845016 845171
" />
<path d="M-844763 -845199
L-844763 845339
" />
<path d="M-844763 845142
L-844791 845171
L-844763 845199
L-844735 845171
L-844763 845142
L-844763 845199
" />
<path d="M-844538 845339
L-844229 845339
L-844538 -845199
L-844229 -845199
" />
<path d="M-843780 -845227
L-843836 -845199
L-843948 -845199
L-844005 -845227
L-844033 -845283
L-844033 845423
L-844005 845367
L-843948 845339
L-843836 845339
L-843780 845367
L-843752 845423
L-843752 -845451
L-844033 -845395
" />
<path d="M-843499 -845255
L-843471 -845227
L-843499 -845199
L-843527 -845227
L-843499 -845255
L-843499 -845199
" />
<path d="M-843499 845367
L-843471 845395
L-843499 845423
L-843527 845395
L-843499 845367
L-843499 845423
" />
<path d="M-842796 -845367
L-842516 -845367
" />
<path d="M-842853 -845199
L-842656 845142
L-842459 -845199
" />
<path d="M-842010 845339
L-842010 -845199
" />
<path d="M-842150 845114
L-842291 -845395
L-841926 -845395
" />
</g>
<g style="fill:#000000; fill-opacity:0.0; 
stroke:#000000; stroke-width:118; stroke-opacity:1; 
stroke-linecap:round; stroke-linejoin:round;">
<path d="M-844988 -845199
L-845185 845451
" />
<path d="M-845325 -845199
L-845325 845142
L-845100 845142
L-845044 845171
L-845016 845199
L-844988 845255
L-844988 845339
L-845016 845395
L-845044 845423
L-845100 845451
L-845325 845451
" />
<path d="M-844510 -845227
L-844566 -845199
L-844679 -845199
L-844735 -845227
L-844763 -845283
L-844763 845423
L-844735 845367
L-844679 845339
L-844566 845339
L-844510 845367
L-844482 845423
L-844482 -845451
L-844763 -845395
" />
<path d="M-844286 845339
L-844145 -845199
L-844005 845339
" />
<path d="M-843780 -845255
L-843752 -845227
L-843780 -845199
L-843808 -845227
L-843780 -845255
L-843780 -845199
" />
<path d="M-843780 845367
L-843752 845395
L-843780 845423
L-843808 845395
L-843780 845367
L-843780 845423
" />
</g>
<g style="fill:#000000; fill-opacity:0.0; 
stroke:#000000; stroke-width:39.3701; stroke-opacity:1; 
stroke-linecap:round; stroke-linejoin:round;">
<path d="M-845325 -845199
L-845325 845142
" />
<path d="M-844988 -845199
L-845241 845395
" />
<path d="M-844988 845142
L-845325 -845451
" />
<path d="M-844735 -845199
L-844735 845339
" />
<path d="M-844735 845142
L-844763 845171
L-844735 845199
L-844707 845171
L-844735 845142
L-844735 845199
" />
<path d="M-844117 -845255
L-844145 -845227
L-844229 -845199
L-844286 -845199
L-844370 -845227
L-844426 -845283
L-844454 -845339
L-844482 -845451
L-844482 845395
L-844454 845283
L-844426 845227
L-844370 845171
L-844286 845142
L-844229 845142
L-844145 845171
L-844117 845199
" />
<path d="M-843611 -845199
L-843611 845423
L-843639 845367
L-843696 845339
L-843808 845339
L-843864 845367
" />
<path d="M-843611 -845227
L-843667 -845199
L-843808 -845199
L-843864 -845227
L-843892 -845283
L-843892 -845339
L-843864 -845395
L-843808 -845423
L-843667 -845423
L-843611 -845451
" />
<path d="M-843077 -845199
L-843077 845142
" />
<path d="M-843077 -845227
L-843134 -845199
L-843246 -845199
L-843302 -845227
L-843330 -845255
L-843358 -845311
L-843358 845451
L-843330 845395
L-843302 845367
L-843246 845339
L-843134 845339
L-843077 845367
" />
<path d="M-842347 845423
L-842150 845423
" />
<path d="M-842066 -845199
L-842347 -845199
L-842347 845142
L-842066 845142
" />
<path d="M-841813 -845255
L-841785 -845227
L-841813 -845199
L-841841 -845227
L-841813 -845255
L-841813 -845199
" />
<path d="M-841532 -845199
L-841532 845142
L-841392 845142
L-841307 845171
L-841251 845227
L-841223 845283
L-841195 845395
L-841195 -845451
L-841223 -845339
L-841251 -845283
L-841307 -845227
L-841392 -845199
L-841532 -845199
" />
<path d="M-840942 -845255
L-840914 -845227
L-840942 -845199
L-840970 -845227
L-840942 -845255
L-840942 -845199
" />
<path d="M-840689 -845367
L-840408 -845367
" />
<path d="M-840746 -845199
L-840549 845142
L-840352 -845199
" />
<path d="M-840156 -845255
L-840127 -845227
L-840156 -845199
L-840184 -845227
L-840156 -845255
L-840156 -845199
" />
<path d="M-838976 845339
L-838976 -845002
" />
<path d="M-838976 845367
L-838919 845339
L-838807 845339
L-838751 845367
L-838723 845395
L-838695 845451
L-838695 -845311
L-838723 -845255
L-838751 -845227
L-838807 -845199
L-838919 -845199
L-838976 -845227
" />
<path d="M-838189 -845227
L-838245 -845199
L-838357 -845199
L-838414 -845227
L-838442 -845255
L-838470 -845311
L-838470 845451
L-838442 845395
L-838414 845367
L-838357 845339
L-838245 845339
L-838189 845367
" />
<path d="M-837936 -845199
L-837936 845142
" />
<path d="M-837936 845367
L-837880 845339
L-837767 845339
L-837711 845367
L-837683 845395
L-837655 845451
L-837655 -845311
L-837683 -845255
L-837711 -845227
L-837767 -845199
L-837880 -845199
L-837936 -845227
" />
<path d="M-837402 845339
L-837402 -845199
" />
<path d="M-837402 845395
L-837374 845367
L-837318 845339
L-837234 845339
L-837177 845367
L-837149 845423
L-837149 -845199
" />
<path d="M-836644 -845227
L-836700 -845199
L-836812 -845199
L-836868 -845227
L-836896 -845283
L-836896 845423
L-836868 845367
L-836812 845339
L-836700 845339
L-836644 845367
L-836616 845423
L-836616 -845451
L-836896 -845395
" />
<path d="M-836419 845339
L-836306 -845199
L-836194 845451
L-836082 -845199
L-835969 845339
" />
<path d="M-835126 -844974
L-835155 -845002
L-835211 -845086
L-835239 -845142
L-835267 -845227
L-835295 -845367
L-835295 845451
L-835267 845311
L-835239 845227
L-835211 845171
L-835155 845086
L-835126 845058
" />
<path d="M-834930 845199
L-834902 845171
L-834846 845142
L-834705 845142
L-834649 845171
L-834621 845199
L-834593 845255
L-834593 845311
L-834621 845395
L-834958 -845199
L-834593 -845199
" />
<path d="M-834227 845142
L-834171 845142
L-834115 845171
L-834087 845199
L-834059 845255
L-834031 845367
L-834031 -845423
L-834059 -845311
L-834087 -845255
L-834115 -845227
L-834171 -845199
L-834227 -845199
L-834284 -845227
L-834312 -845255
L-834340 -845311
L-834368 -845423
L-834368 845367
L-834340 845255
L-834312 845199
L-834284 845171
L-834227 845142
" />
<path d="M-833469 -845199
L-833806 -845199
" />
<path d="M-833637 -845199
L-833637 845142
L-833694 845227
L-833750 845283
L-833806 845311
" />
<path d="M-833272 845142
L-832907 845142
L-833104 845367
L-833019 845367
L-832963 845395
L-832935 845423
L-832907 -845451
L-832907 -845311
L-832935 -845255
L-832963 -845227
L-833019 -845199
L-833188 -845199
L-833244 -845227
L-833272 -845255
" />
<path d="M-832654 -845423
L-832205 -845423
" />
<path d="M-831924 -845199
L-831924 845339
" />
<path d="M-831924 845395
L-831896 845367
L-831839 845339
L-831755 845339
L-831699 845367
L-831671 845423
L-831671 -845199
" />
<path d="M-831671 845423
L-831643 845367
L-831586 845339
L-831502 845339
L-831446 845367
L-831418 845423
L-831418 -845199
" />
<path d="M-830884 -845199
L-830884 845423
L-830912 845367
L-830968 845339
L-831081 845339
L-831137 845367
" />
<path d="M-830884 -845227
L-830940 -845199
L-831081 -845199
L-831137 -845227
L-831165 -845283
L-831165 -845339
L-831137 -845395
L-831081 -845423
L-830940 -845423
L-830884 -845451
" />
<path d="M-830603 -845199
L-830603 845339
" />
<path d="M-830603 845451
L-830575 845395
L-830547 845367
L-830491 845339
L-830435 845339
" />
<path d="M-830238 -845423
L-829788 -845423
" />
<path d="M-829198 -845199
L-829536 -845199
" />
<path d="M-829367 -845199
L-829367 845142
L-829423 845227
L-829479 845283
L-829536 845311
" />
<path d="M-829002 845142
L-828636 845142
L-828833 845367
L-828749 845367
L-828693 845395
L-828665 845423
L-828636 -845451
L-828636 -845311
L-828665 -845255
L-828693 -845227
L-828749 -845199
L-828917 -845199
L-828974 -845227
L-829002 -845255
" />
<path d="M-828440 -844974
L-828412 -845002
L-828356 -845086
L-828327 -845142
L-828299 -845227
L-828271 -845367
L-828271 845451
L-828299 845311
L-828327 845227
L-828356 845171
L-828412 845086
L-828440 845058
" />
<path d="M-827990 -845423
L-827541 -845423
" />
<path d="M-827344 845339
L-827119 845339
" />
<path d="M-827260 845142
L-827260 -845283
L-827232 -845227
L-827176 -845199
L-827119 -845199
" />
<path d="M-826698 -845227
L-826754 -845199
L-826866 -845199
L-826923 -845227
L-826951 -845283
L-826951 845423
L-826923 845367
L-826866 845339
L-826754 845339
L-826698 845367
L-826670 845423
L-826670 -845451
L-826951 -845395
" />
<path d="M-826445 -845227
L-826389 -845199
L-826276 -845199
L-826220 -845227
L-826192 -845283
L-826192 -845311
L-826220 -845367
L-826276 -845395
L-826361 -845395
L-826417 -845423
L-826445 845451
L-826445 845423
L-826417 845367
L-826361 845339
L-826276 845339
L-826220 845367
" />
<path d="M-826024 845339
L-825799 845339
" />
<path d="M-825939 845142
L-825939 -845283
L-825911 -845227
L-825855 -845199
L-825799 -845199
" />
<path d="M-825602 -845199
L-825602 845339
" />
<path d="M-825602 845142
L-825630 845171
L-825602 845199
L-825574 845171
L-825602 845142
L-825602 845199
" />
<path d="M-825321 845339
L-825321 -845199
" />
<path d="M-825321 845395
L-825293 845367
L-825237 845339
L-825153 845339
L-825096 845367
L-825068 845423
L-825068 -845199
" />
<path d="M-824535 845339
L-824535 -845114
L-824563 -845058
L-824591 -845030
L-824647 -845002
L-824731 -845002
L-824787 -845030
" />
<path d="M-824535 -845227
L-824591 -845199
L-824703 -845199
L-824759 -845227
L-824787 -845255
L-824816 -845311
L-824816 845451
L-824787 845395
L-824759 845367
L-824703 845339
L-824591 845339
L-824535 845367
" />
<path d="M-845325 -845199
L-845325 845142
L-845185 845142
L-845100 845171
L-845044 845227
L-845016 845283
L-844988 845395
L-844988 -845451
L-845016 -845339
L-845044 -845283
L-845100 -845227
L-845185 -845199
L-845325 -845199
" />
<path d="M-844482 -845199
L-844482 845423
L-844510 845367
L-844566 845339
L-844679 845339
L-844735 845367
" />
<path d="M-844482 -845227
L-844538 -845199
L-844679 -845199
L-844735 -845227
L-844763 -845283
L-844763 -845339
L-844735 -845395
L-844679 -845423
L-844538 -845423
L-844482 -845451
" />
<path d="M-844286 845339
L-844061 845339
" />
<path d="M-844201 845142
L-844201 -845283
L-844173 -845227
L-844117 -845199
L-844061 -845199
" />
<path d="M-843639 -845227
L-843696 -845199
L-843808 -845199
L-843864 -845227
L-843892 -845283
L-843892 845423
L-843864 845367
L-843808 845339
L-843696 845339
L-843639 845367
L-843611 845423
L-843611 -845451
L-843892 -845395
" />
<path d="M-843358 -845255
L-843330 -845227
L-843358 -845199
L-843386 -845227
L-843358 -845255
L-843358 -845199
" />
<path d="M-843358 845367
L-843330 845395
L-843358 845423
L-843386 845395
L-843358 845367
L-843358 845423
" />
<path d="M-845466 -845466
L-845466 -845466
" />
<path d="M-845466 -845466
L-845466 -845466
" />
<path d="M-845466 -845466
L-845466 -845466
" />
</g>
<g style="fill:#000000; fill-opacity:0.0; 
stroke:#000000; stroke-width:118.11; stroke-opacity:1; 
stroke-linecap:round; stroke-linejoin:round;">
<path d="M54259 28476
L54596 28476
" />
<path d="M54428 29067
L54428 28476
" />
<path d="M55131 29067
L54934 28785
" />
<path d="M54793 29067
L54793 28476
L55018 28476
L55075 28504
L55103 28532
L55131 28589
L55131 28673
L55103 28729
L55075 28757
L55018 28785
L54793 28785
" />
<path d="M55468 29067
L55412 29039
L55384 29010
L55356 28954
L55356 28785
L55384 28729
L55412 28701
L55468 28673
L55553 28673
L55609 28701
L55637 28729
L55665 28785
L55665 28954
L55637 29010
L55609 29039
L55553 29067
L55468 29067
" />
<path d="M56003 29067
L55946 29039
L55918 28982
L55918 28476
" />
<path d="M56312 29067
L56256 29039
L56228 28982
L56228 28476
" />
<path d="M57139 30839
L57195 30867
L57307 30867
L57364 30839
L57392 30782
L57392 30754
L57364 30698
L57307 30670
L57223 30670
L57167 30642
L57139 30585
L57139 30557
L57167 30501
L57223 30473
L57307 30473
L57364 30501
" />
<path d="M57870 30839
L57814 30867
L57701 30867
L57645 30839
L57617 30782
L57617 30557
L57645 30501
L57701 30473
L57814 30473
L57870 30501
L57898 30557
L57898 30614
L57617 30670
" />
<path d="M58151 30867
L58151 30473
" />
<path d="M58151 30585
L58179 30529
L58207 30501
L58264 30473
L58320 30473
" />
<path d="M58460 30473
L58601 30867
L58742 30473
" />
<path d="M59051 30867
L58995 30839
L58967 30810
L58939 30754
L58939 30585
L58967 30529
L58995 30501
L59051 30473
L59135 30473
L59192 30501
L59220 30529
L59248 30585
L59248 30754
L59220 30810
L59192 30839
L59135 30867
L59051 30867
" />
<path d="M59923 30332
L59951 30304
L60007 30276
L60148 30276
L60204 30304
L60232 30332
L60260 30389
L60260 30445
L60232 30529
L59895 30867
L60260 30867
" />
<path d="M65372 43234
L65352 43174
L65273 43095
L65213 43075
L65153 43095
L65134 43115
L65114 43174
L65134 43234
L65193 43294
L65213 43353
L65193 43413
L65173 43433
L65114 43453
L65054 43433
L64994 43373
L64974 43314
" />
<path d="M64855 42717
L64915 42737
L64994 42817
L65014 42876
L64994 42936
L64835 43095
L64776 43115
L64716 43095
L64636 43015
L64617 42956
L64636 42896
L64676 42856
L64915 43015
" />
<path d="M64676 42498
L64398 42777
" />
<path d="M64477 42697
L64418 42717
L64378 42717
L64318 42697
L64278 42657
" />
<path d="M64179 42558
L64358 42180
L63980 42359
" />
<path d="M64040 41862
L64060 41922
L64060 41961
L64040 42021
L63921 42140
L63861 42160
L63821 42160
L63761 42140
L63702 42081
L63682 42021
L63682 41981
L63702 41922
L63821 41802
L63881 41782
L63921 41782
L63980 41802
L64040 41862
" />
<path d="M62906 41564
L62867 41524
L62847 41464
L62847 41425
L62867 41365
L62926 41265
L63026 41166
L63125 41106
L63185 41087
L63225 41087
L63284 41106
L63324 41146
L63344 41206
L63344 41246
L63324 41305
L63264 41405
L63165 41504
L63065 41564
L63006 41584
L62966 41584
L62906 41564
" />
<path d="M57339 50560
L57367 50504
L57367 50392
L57339 50335
L57282 50307
L57254 50307
L57198 50335
L57170 50392
L57170 50476
L57142 50532
L57085 50560
L57057 50560
L57001 50532
L56973 50476
L56973 50392
L57001 50335
" />
<path d="M57339 49829
L57367 49885
L57367 49998
L57339 50054
L57282 50082
L57057 50082
L57001 50054
L56973 49998
L56973 49885
L57001 49829
L57057 49801
L57114 49801
L57170 50082
" />
<path d="M57367 49548
L56973 49548
" />
<path d="M57085 49548
L57029 49520
L57001 49492
L56973 49435
L56973 49379
" />
<path d="M56973 49239
L57367 49098
L56973 48957
" />
<path d="M57367 48648
L57339 48704
L57310 48732
L57254 48760
L57085 48760
L57029 48732
L57001 48704
L56973 48648
L56973 48564
L57001 48507
L57029 48479
L57085 48451
L57254 48451
L57310 48479
L57339 48507
L57367 48564
L57367 48648
" />
<path d="M57367 47439
L57367 47776
" />
<path d="M57367 47607
L56776 47607
L56860 47664
L56917 47720
L56945 47776
" />
<path d="M49342 40479
L49342 40029
" />
<path d="M49567 40254
L49117 40254
" />
<path d="M48976 39467
L48976 39748
L49257 39776
L49229 39748
L49201 39692
L49201 39551
L49229 39495
L49257 39467
L49314 39439
L49454 39439
L49510 39467
L49539 39495
L49567 39551
L49567 39692
L49539 39748
L49510 39776
" />
<path d="M48976 39270
L49567 39073
L48976 38876
" />
<path d="M49567 37892
L49285 38089
" />
<path d="M49567 38229
L48976 38229
L48976 38004
L49004 37948
L49032 37920
L49089 37892
L49173 37892
L49229 37920
L49257 37948
L49285 38004
L49285 38229
" />
<path d="M51206 30642
L51656 30642
" />
<path d="M51431 30867
L51431 30417
" />
<path d="M52218 30276
L51937 30276
L51909 30557
L51937 30529
L51993 30501
L52134 30501
L52190 30529
L52218 30557
L52246 30614
L52246 30754
L52218 30810
L52190 30839
L52134 30867
L51993 30867
L51937 30839
L51909 30810
" />
<path d="M52415 30276
L52612 30867
L52809 30276
" />
<path d="M53456 30867
L53456 30276
L53793 30867
L53793 30276
" />
</g>
<g style="fill:#000000; fill-opacity:0.0; 
stroke:#000000; stroke-width:39.3701; stroke-opacity:1; 
stroke-linecap:round; stroke-linejoin:round;">
</g>
<g style="fill:#000000; fill-opacity:1.0; 
stroke:#000000; stroke-width:39.3701; stroke-opacity:1; 
stroke-linecap:round; stroke-linejoin:round;">
<polyline style="fill-rule:evenodd;"
points="45924,40938
46475,40938
46475,41411
45924,41411
45924,40938
" /> 
<polyline style="fill-rule:evenodd;"
points="45924,40188
46475,40188
46475,40661
45924,40661
45924,40188
" /> 
<polyline style="fill-rule:evenodd;"
points="47507,34103
47896,34492
47562,34826
47173,34437
47507,34103
" /> 
<polyline style="fill-rule:evenodd;"
points="48037,33573
48426,33962
48092,34296
47703,33907
48037,33573
" /> 
<polyline style="fill-rule:evenodd;"
points="49480,43059
48759,43780
48341,43363
49063,42641
49480,43059
" /> 
<polyline style="fill-rule:evenodd;"
points="50258,43836
49536,44558
49119,44140
49840,43419
50258,43836
" /> 
<polyline style="fill-rule:evenodd;"
points="48889,33754
49910,33754
49910,34345
48889,34345
48889,33754
" /> 
<polyline style="fill-rule:evenodd;"
points="48889,32654
49910,32654
49910,33245
48889,33245
48889,32654
" /> 
<polyline style="fill-rule:evenodd;"
points="60192,47696
59803,47307
60137,46973
60526,47362
60192,47696
" /> 
<polyline style="fill-rule:evenodd;"
points="59662,48226
59273,47837
59607,47503
59996,47892
59662,48226
" /> 
<polyline style="fill-rule:evenodd;"
points="51403,48292
51792,47903
52126,48237
51737,48626
51403,48292
" /> 
<polyline style="fill-rule:evenodd;"
points="50873,47762
51262,47373
51596,47707
51207,48096
50873,47762
" /> 
<polyline style="fill-rule:evenodd;"
points="64775,38661
64224,38661
64224,38188
64775,38188
64775,38661
" /> 
<polyline style="fill-rule:evenodd;"
points="64775,39411
64224,39411
64224,38938
64775,38938
64775,39411
" /> 
<polyline style="fill-rule:evenodd;"
points="52954,46510
52954,45489
53545,45489
53545,46510
52954,46510
" /> 
<polyline style="fill-rule:evenodd;"
points="51854,46510
51854,45489
52445,45489
52445,46510
51854,46510
" /> 
<polyline style="fill-rule:evenodd;"
points="60159,33219
60880,33940
60463,34358
59741,33636
60159,33219
" /> 
<polyline style="fill-rule:evenodd;"
points="60936,32441
61658,33163
61240,33580
60519,32859
60936,32441
" /> 
<polyline style="fill-rule:evenodd;"
points="49044,40669
49555,40669
49555,40980
49044,40980
49044,40669
" /> 
<polyline style="fill-rule:evenodd;"
points="49044,41419
49555,41419
49555,41730
49044,41730
49044,41419
" /> 
<polyline style="fill-rule:evenodd;"
points="50955,31330
50444,31330
50444,31019
50955,31019
50955,31330
" /> 
<polyline style="fill-rule:evenodd;"
points="50955,30580
50444,30580
50444,30269
50955,30269
50955,30580
" /> 
<polyline style="fill-rule:evenodd;"
points="62744,42205
63105,41844
63325,42064
62964,42425
62744,42205
" /> 
<polyline style="fill-rule:evenodd;"
points="63274,42735
63635,42374
63855,42594
63494,42955
63274,42735
" /> 
<polyline style="fill-rule:evenodd;"
points="55069,47055
55069,46544
55380,46544
55380,47055
55069,47055
" /> 
<polyline style="fill-rule:evenodd;"
points="55819,47055
55819,46544
56130,46544
56130,47055
55819,47055
" /> 
<polyline style="fill-rule:evenodd;"
points="59469,32055
59469,31544
59780,31544
59780,32055
59469,32055
" /> 
<polyline style="fill-rule:evenodd;"
points="60219,32055
60219,31544
60530,31544
60530,32055
60219,32055
" /> 
<polyline style="fill-rule:evenodd;"
points="44319,41019
45480,41019
45480,41580
44319,41580
44319,41019
" /> 
<polyline style="fill-rule:evenodd;"
points="44319,42019
45480,42019
45480,42580
44319,42580
44319,42019
" /> 
<polyline style="fill-rule:evenodd;"
points="47241,32137
48062,32958
47665,33355
46844,32534
47241,32137
" /> 
<polyline style="fill-rule:evenodd;"
points="46534,32844
47355,33665
46958,34062
46137,33241
46534,32844
" /> 
<polyline style="fill-rule:evenodd;"
points="60858,49462
60037,48641
60434,48244
61255,49065
60858,49462
" /> 
<polyline style="fill-rule:evenodd;"
points="61565,48755
60744,47934
61141,47537
61962,48358
61565,48755
" /> 
<polyline style="fill-rule:evenodd;"
points="50037,49158
50858,48337
51255,48734
50434,49555
50037,49158
" /> 
<polyline style="fill-rule:evenodd;"
points="50744,49865
51565,49044
51962,49441
51141,50262
50744,49865
" /> 
<polyline style="fill-rule:evenodd;"
points="66380,39480
65219,39480
65219,38919
66380,38919
66380,39480
" /> 
<polyline style="fill-rule:evenodd;"
points="66380,38480
65219,38480
65219,37919
66380,37919
66380,38480
" /> 
<polyline style="fill-rule:evenodd;"
points="44319,39019
45480,39019
45480,39580
44319,39580
44319,39019
" /> 
<polyline style="fill-rule:evenodd;"
points="44319,40019
45480,40019
45480,40580
44319,40580
44319,40019
" /> 
<polyline style="fill-rule:evenodd;"
points="48641,30737
49462,31558
49065,31955
48244,31134
48641,30737
" /> 
<polyline style="fill-rule:evenodd;"
points="47934,31444
48755,32265
48358,32662
47537,31841
47934,31444
" /> 
<polyline style="fill-rule:evenodd;"
points="57530,31969
57530,32530
56969,32530
56969,31969
57530,31969
" /> 
<circle cx="57250" cy="33250" r="280.315" /> 
<circle cx="56250" cy="32250" r="280.315" /> 
<circle cx="56250" cy="33250" r="280.315" /> 
<circle cx="55250" cy="32250" r="280.315" /> 
<circle cx="55250" cy="33250" r="280.315" /> 
<circle cx="54250" cy="32250" r="280.315" /> 
<circle cx="54250" cy="33250" r="280.315" /> 
<circle cx="53250" cy="32250" r="280.315" /> 
<circle cx="53250" cy="33250" r="280.315" /> 
<polyline style="fill-rule:evenodd;"
points="58465,50312
58068,49221
58595,49029
58992,50120
58465,50312
" /> 
<polyline style="fill-rule:evenodd;"
points="59404,49970
59007,48879
59534,48687
59931,49778
59404,49970
" /> 
<polyline style="fill-rule:evenodd;"
points="48637,47758
49458,46937
49855,47334
49034,48155
48637,47758
" /> 
<polyline style="fill-rule:evenodd;"
points="49344,48465
50165,47644
50562,48041
49741,48862
49344,48465
" /> 
<polyline style="fill-rule:evenodd;"
points="66380,41580
65219,41580
65219,41019
66380,41019
66380,41580
" /> 
<polyline style="fill-rule:evenodd;"
points="66380,40580
65219,40580
65219,40019
66380,40019
66380,40580
" /> 
<polyline style="fill-rule:evenodd;"
points="48255,42594
47894,42955
47674,42735
48035,42374
48255,42594
" /> 
<polyline style="fill-rule:evenodd;"
points="47725,42064
47364,42425
47144,42205
47505,41844
47725,42064
" /> 
<polyline style="fill-rule:evenodd;"
points="47744,35405
48105,35044
48325,35264
47964,35625
47744,35405
" /> 
<polyline style="fill-rule:evenodd;"
points="48274,35935
48635,35574
48855,35794
48494,36155
48274,35935
" /> 
<polyline style="fill-rule:evenodd;"
points="49344,42405
49705,42044
49925,42264
49564,42625
49344,42405
" /> 
<polyline style="fill-rule:evenodd;"
points="49874,42935
50235,42574
50455,42794
50094,43155
49874,42935
" /> 
<polyline style="fill-rule:evenodd;"
points="49644,30269
50155,30269
50155,30580
49644,30580
49644,30269
" /> 
<polyline style="fill-rule:evenodd;"
points="49644,31019
50155,31019
50155,31330
49644,31330
49644,31019
" /> 
<polyline style="fill-rule:evenodd;"
points="60194,45144
60555,45505
60335,45725
59974,45364
60194,45144
" /> 
<polyline style="fill-rule:evenodd;"
points="59664,45674
60025,46035
59805,46255
59444,45894
59664,45674
" /> 
<polyline style="fill-rule:evenodd;"
points="53430,47144
53430,47655
53119,47655
53119,47144
53430,47144
" /> 
<polyline style="fill-rule:evenodd;"
points="52680,47144
52680,47655
52369,47655
52369,47144
52680,47144
" /> 
<polyline style="fill-rule:evenodd;"
points="62544,37605
62905,37244
63125,37464
62764,37825
62544,37605
" /> 
<polyline style="fill-rule:evenodd;"
points="63074,38135
63435,37774
63655,37994
63294,38355
63074,38135
" /> 
<polyline style="fill-rule:evenodd;"
points="63744,43205
64105,42844
64325,43064
63964,43425
63744,43205
" /> 
<polyline style="fill-rule:evenodd;"
points="64274,43735
64635,43374
64855,43594
64494,43955
64274,43735
" /> 
<polyline style="fill-rule:evenodd;"
points="56569,47055
56569,46544
56880,46544
56880,47055
56569,47055
" /> 
<polyline style="fill-rule:evenodd;"
points="57319,47055
57319,46544
57630,46544
57630,47055
57319,47055
" /> 
<polyline style="fill-rule:evenodd;"
points="60969,32055
60969,31544
61280,31544
61280,32055
60969,32055
" /> 
<polyline style="fill-rule:evenodd;"
points="61719,32055
61719,31544
62030,31544
62030,32055
61719,32055
" /> 
<polyline style="fill-rule:evenodd;"
points="48445,44855
48983,45392
47992,46383
47455,45845
48445,44855
" /> 
<polyline style="fill-rule:evenodd;"
points="46239,43384
46777,43922
46522,44177
45984,43639
46239,43384
" /> 
<polyline style="fill-rule:evenodd;"
points="45602,44020
46140,44558
45885,44813
45347,44275
45602,44020
" /> 
<polyline style="fill-rule:evenodd;"
points="46875,42747
47413,43285
47158,43540
46620,43002
46875,42747
" /> 
<polyline style="fill-rule:evenodd;"
points="46044,38045
45507,38583
44516,37592
45054,37055
46044,38045
" /> 
<polyline style="fill-rule:evenodd;"
points="47515,35839
46977,36377
46722,36122
47260,35584
47515,35839
" /> 
<polyline style="fill-rule:evenodd;"
points="46879,35202
46341,35740
46086,35485
46624,34947
46879,35202
" /> 
<polyline style="fill-rule:evenodd;"
points="48152,36475
47614,37013
47359,36758
47897,36220
48152,36475
" /> 
<polyline style="fill-rule:evenodd;"
points="62955,44654
63492,44116
64483,45107
63945,45644
62955,44654
" /> 
<polyline style="fill-rule:evenodd;"
points="61484,46860
62022,46322
62277,46577
61739,47115
61484,46860
" /> 
<polyline style="fill-rule:evenodd;"
points="62120,47497
62658,46959
62913,47214
62375,47752
62120,47497
" /> 
<polyline style="fill-rule:evenodd;"
points="60847,46224
61385,45686
61640,45941
61102,46479
60847,46224
" /> 
<polyline style="fill-rule:evenodd;"
points="55719,48599
56480,48599
56480,50000
55719,50000
55719,48599
" /> 
<polyline style="fill-rule:evenodd;"
points="53119,49119
53880,49119
53880,49480
53119,49480
53119,49119
" /> 
<polyline style="fill-rule:evenodd;"
points="53119,50019
53880,50019
53880,50380
53119,50380
53119,50019
" /> 
<polyline style="fill-rule:evenodd;"
points="53119,48219
53880,48219
53880,48580
53119,48580
53119,48219
" /> 
<polyline style="fill-rule:evenodd;"
points="62254,35044
61716,34507
62707,33516
63244,34054
62254,35044
" /> 
<polyline style="fill-rule:evenodd;"
points="64460,36515
63922,35977
64177,35722
64715,36260
64460,36515
" /> 
<polyline style="fill-rule:evenodd;"
points="65097,35879
64559,35341
64814,35086
65352,35624
65097,35879
" /> 
<polyline style="fill-rule:evenodd;"
points="63824,37152
63286,36614
63541,36359
64079,36897
63824,37152
" /> 
<polyline style="fill-rule:evenodd;"
points="47026,41393
47026,41038
47223,41038
47223,41393
47026,41393
" /> 
<polyline style="fill-rule:evenodd;"
points="47401,40561
47401,40206
47598,40206
47598,40561
47401,40561
" /> 
<polyline style="fill-rule:evenodd;"
points="47776,41393
47776,41038
47973,41038
47973,41393
47776,41393
" /> 
<polyline style="fill-rule:evenodd;"
points="48945,35384
49196,35134
49335,35273
49084,35523
48945,35384
" /> 
<polyline style="fill-rule:evenodd;"
points="49799,35061
50050,34810
50189,34949
49938,35200
49799,35061
" /> 
<polyline style="fill-rule:evenodd;"
points="49476,35915
49726,35664
49865,35803
49615,36054
49476,35915
" /> 
<polyline style="fill-rule:evenodd;"
points="59554,46815
59303,47065
59164,46926
59415,46676
59554,46815
" /> 
<polyline style="fill-rule:evenodd;"
points="58700,47138
58449,47389
58310,47250
58561,46999
58700,47138
" /> 
<polyline style="fill-rule:evenodd;"
points="59023,46284
58773,46535
58634,46396
58884,46145
59023,46284
" /> 
<polyline style="fill-rule:evenodd;"
points="50784,46854
50534,46603
50673,46464
50923,46715
50784,46854
" /> 
<polyline style="fill-rule:evenodd;"
points="50461,46000
50210,45749
50349,45610
50600,45861
50461,46000
" /> 
<polyline style="fill-rule:evenodd;"
points="51315,46323
51064,46073
51203,45934
51454,46184
51315,46323
" /> 
<polyline style="fill-rule:evenodd;"
points="63573,39106
63573,39461
63376,39461
63376,39106
63573,39106
" /> 
<polyline style="fill-rule:evenodd;"
points="63198,39938
63198,40293
63001,40293
63001,39938
63198,39938
" /> 
<polyline style="fill-rule:evenodd;"
points="62823,39106
62823,39461
62626,39461
62626,39106
62823,39106
" /> 
<polyline style="fill-rule:evenodd;"
points="61159,43419
61880,44140
61463,44558
60741,43836
61159,43419
" /> 
<polyline style="fill-rule:evenodd;"
points="61936,42641
62658,43363
62240,43780
61519,43059
61936,42641
" /> 
</g>
<g style="fill:#000000; fill-opacity:1.0; 
stroke:#000000; stroke-width:314.961; stroke-opacity:1; 
stroke-linecap:round; stroke-linejoin:round;">
<path d="M49400 34050
L50350 34050
" />
<path d="M50700 33700
L50700 31175
" />
<path d="M50350 34050
L50700 33700
" />
<path d="M49400 34050
L49050 34050
" />
<path d="M49050 34050
L47900 35200
" />
<path d="M55250 32250
L55250 31550
" />
<path d="M55250 31550
L54875 31175
" />
<path d="M54875 31175
L50700 31175
" />
<path d="M48034 35334
L47900 35200
" />
<path d="M47119 35980
L47900 35200
" />
<path d="M49300 40825
L49275 40800
" />
<path d="M49275 40800
L48600 40800
" />
<path d="M47965 42665
L48200 42900
" />
<path d="M48200 42900
L48600 42900
" />
<path d="M48911 43211
L48600 42900
" />
<path d="M48911 37588
L49900 36600
" />
<path d="M54250 31950
L54250 32250
" />
<path d="M49900 36600
L51500 35000
" />
<path d="M51500 35000
L51500 32300
" />
<path d="M51500 32300
L52000 31800
" />
<path d="M52200 31600
L52000 31800
" />
<path d="M53900 31600
L52200 31600
" />
<path d="M54250 31950
L53900 31600
" />
<path d="M48600 37900
L48911 37588
" />
<path d="M48600 42900
L48600 40800
" />
<path d="M48600 40800
L48600 37900
" />
<path d="M46380 43780
L46900 44300
" />
<path d="M47822 44300
L48911 43211
" />
<path d="M46900 44300
L47822 44300
" />
<path d="M63034 42134
L62800 41900
" />
<path d="M62400 41900
L61700 41900
" />
<path d="M62800 41900
L62400 41900
" />
<path d="M57250 32250
L57950 32250
" />
<path d="M61700 37143
L58328 33771
" />
<path d="M61428 42528
L61700 42256
" />
<path d="M60828 43506
L60828 43128
" />
<path d="M60828 43128
L61428 42528
" />
<path d="M60828 43506
L61311 43988
" />
<path d="M61700 42256
L61700 41900
" />
<path d="M61700 41900
L61700 37600
" />
<path d="M61700 37600
L61700 37143
" />
<path d="M58328 32628
L58328 33771
" />
<path d="M57950 32250
L58328 32628
" />
<path d="M60265 45434
L61311 44388
" />
<path d="M61311 44388
L61311 43988
" />
<path d="M61880 46719
L62200 46400
" />
<path d="M62200 44877
L61311 43988
" />
<path d="M62200 46400
L62200 44877
" />
<path d="M54600 46000
L57400 46000
" />
<path d="M61300 37300
L57250 33250
" />
<path d="M61300 42100
L61300 37300
" />
<path d="M57400 46000
L61300 42100
" />
<path d="M55225 46800
L54600 46800
" />
<path d="M54600 46800
L54700 46800
" />
<path d="M54700 46800
L54600 46800
" />
<path d="M53275 47400
L54500 47400
" />
<path d="M54500 47400
L54600 47500
" />
<path d="M53500 49300
L54200 49300
" />
<path d="M54600 46000
L53250 46000
" />
<path d="M54600 48900
L54600 47500
" />
<path d="M54600 47500
L54600 46800
" />
<path d="M54600 46800
L54600 46000
" />
<path d="M54200 49300
L54600 48900
" />
<path d="M64319 36119
L63900 35700
" />
<path d="M62900 35700
L61950 36650
" />
<path d="M63900 35700
L62900 35700
" />
<path d="M59625 31800
L59400 31800
" />
<path d="M59400 31800
L58900 32300
" />
<path d="M60311 33788
L59900 34200
" />
<path d="M59900 34200
L59500 34200
" />
<path d="M56250 32250
L56250 31450
" />
<path d="M58900 33600
L59500 34200
" />
<path d="M59500 34200
L60900 35600
" />
<path d="M60900 35600
L61950 36650
" />
<path d="M61950 36650
L62834 37534
" />
<path d="M58900 32300
L58900 33600
" />
<path d="M57800 31200
L58900 32300
" />
<path d="M56500 31200
L57800 31200
" />
<path d="M56250 31450
L56500 31200
" />
</g>
<g style="fill:#000000; fill-opacity:1.0; 
stroke:#000000; stroke-width:157.48; stroke-opacity:1; 
stroke-linecap:round; stroke-linejoin:round;">
<path d="M49900 30425
L50700 30425
" />
</g>
<g style="fill:#000000; fill-opacity:1.0; 
stroke:#000000; stroke-width:314.961; stroke-opacity:1; 
stroke-linecap:round; stroke-linejoin:round;">
<path d="M64500 38425
L64725 38200
" />
<path d="M64725 38200
L65800 38200
" />
<path d="M65800 38200
L65800 37700
" />
<path d="M65800 37700
L65800 36327
" />
<path d="M65800 36327
L65586 36113
" />
<path d="M65586 36113
L64955 35482
" />
<path d="M51765 48265
L52000 48500
" />
<path d="M52000 49007
L51353 49653
" />
<path d="M52000 48500
L52000 49007
" />
<path d="M51353 49653
L51900 50200
" />
<path d="M51900 50200
L53500 50200
" />
</g>
<g style="fill:#000000; fill-opacity:1.0; 
stroke:#000000; stroke-width:157.48; stroke-opacity:1; 
stroke-linecap:round; stroke-linejoin:round;">
<path d="M49300 41575
L49300 42000
" />
<path d="M49300 42000
L49634 42334
" />
</g>
<g style="fill:#000000; fill-opacity:1.0; 
stroke:#000000; stroke-width:314.961; stroke-opacity:1; 
stroke-linecap:round; stroke-linejoin:round;">
<path d="M44900 40300
L44900 41300
" />
<path d="M49953 48253
L50146 48446
" />
<path d="M50146 48446
L50646 48946
" />
</g>
<g style="fill:#000000; fill-opacity:1.0; 
stroke:#000000; stroke-width:157.48; stroke-opacity:1; 
stroke-linecap:round; stroke-linejoin:round;">
<path d="M55975 46800
L56725 46800
" />
<path d="M47017 43144
L46500 42627
" />
<path d="M46500 42450
L47125 41825
" />
<path d="M46500 42627
L46500 42450
" />
<path d="M47125 41216
L47125 41825
" />
<path d="M47125 41825
L47434 42134
" />
</g>
<g style="fill:#000000; fill-opacity:1.0; 
stroke:#000000; stroke-width:314.961; stroke-opacity:1; 
stroke-linecap:round; stroke-linejoin:round;">
<path d="M44900 42300
L45900 42300
" />
<path d="M46200 42000
L46200 41175
" />
<path d="M45900 42300
L46200 42000
" />
<path d="M44900 42300
L44900 43572
" />
<path d="M44900 43572
L45744 44417
" />
<path d="M60646 48853
L60646 48853
" />
<path d="M60646 48853
L59469 49328
" />
</g>
<g style="fill:#000000; fill-opacity:1.0; 
stroke:#000000; stroke-width:157.48; stroke-opacity:1; 
stroke-linecap:round; stroke-linejoin:round;">
<path d="M63565 42665
L64034 43134
" />
</g>
<g style="fill:#000000; fill-opacity:1.0; 
stroke:#000000; stroke-width:314.961; stroke-opacity:1; 
stroke-linecap:round; stroke-linejoin:round;">
<path d="M60165 47334
L60541 47334
" />
<path d="M60541 47334
L61353 48146
" />
<path d="M62517 47355
L61726 48146
" />
<path d="M61726 48146
L61353 48146
" />
</g>
<g style="fill:#000000; fill-opacity:1.0; 
stroke:#000000; stroke-width:157.48; stroke-opacity:1; 
stroke-linecap:round; stroke-linejoin:round;">
<path d="M52525 47400
L52000 47400
" />
<path d="M51069 47000
L50728 46659
" />
<path d="M51600 47000
L51069 47000
" />
<path d="M52000 47400
L51600 47000
" />
<path d="M53500 48400
L52900 48400
" />
<path d="M52525 48025
L52525 47400
" />
<path d="M52900 48400
L52525 48025
" />
<path d="M61244 46082
L60827 46500
" />
<path d="M60827 46500
L59730 46500
" />
<path d="M59359 46871
L59730 46500
" />
<path d="M59730 46500
L59734 46495
" />
<path d="M59734 46495
L59734 45965
" />
</g>
<g style="fill:#000000; fill-opacity:1.0; 
stroke:#000000; stroke-width:314.961; stroke-opacity:1; 
stroke-linecap:round; stroke-linejoin:round;">
<path d="M46963 34863
L46400 34299
" />
<path d="M46400 33800
L46746 33453
" />
<path d="M46400 34299
L46400 33800
" />
<path d="M46482 35344
L46963 34863
" />
<path d="M46963 34863
L47362 34465
" />
<path d="M47362 34465
L47534 34465
" />
</g>
<g style="fill:#000000; fill-opacity:1.0; 
stroke:#000000; stroke-width:157.48; stroke-opacity:1; 
stroke-linecap:round; stroke-linejoin:round;">
<path d="M48565 35865
L49101 35328
" />
<path d="M49101 35328
L49140 35328
" />
<path d="M47755 36617
L48507 35865
" />
<path d="M48507 35865
L48565 35865
" />
</g>
<g style="fill:#000000; fill-opacity:1.0; 
stroke:#000000; stroke-width:314.961; stroke-opacity:1; 
stroke-linecap:round; stroke-linejoin:round;">
<path d="M48146 32053
L47453 32746
" />
<path d="M65800 40300
L65800 39200
" />
</g>
<g style="fill:#000000; fill-opacity:1.0; 
stroke:#000000; stroke-width:157.48; stroke-opacity:1; 
stroke-linecap:round; stroke-linejoin:round;">
<path d="M60375 31800
L61125 31800
" />
<path d="M63475 39284
L63475 38175
" />
<path d="M63475 38175
L63365 38065
" />
<path d="M63365 38065
L64100 37330
" />
<path d="M64100 37172
L63682 36755
" />
<path d="M64100 37330
L64100 37172
" />
</g>
<g style="fill:#000000; fill-opacity:1.0; 
stroke:#000000; stroke-width:39.3701; stroke-opacity:1; 
stroke-linecap:round; stroke-linejoin:round;">
<polyline style="fill-rule:evenodd;"
points="66135,36110
66088,36039
66088,36039
66088,36039
65874,35825
65874,35825
65874,35825
65629,35580
65629,35574
65591,35482
65521,35412
64955,34846
64863,34808
64764,34808
64672,34846
64602,34916
64319,35199
64281,35291
64281,35391
64319,35483
64319,35483
64227,35444
64221,35444
64188,35411
64055,35323
63900,35292
63899,35292
63522,35292
63522,34004
63484,33912
63414,33842
62848,33276
62756,33238
62657,33238
62565,33276
62495,33347
62300,33542
62300,32124
62300,32025
62300,31912
62300,31687
62300,31574
62300,31475
62261,31383
62191,31313
62099,31275
61987,31275
61925,31337
61925,31750
62237,31750
62300,31687
62300,31912
62237,31850
61925,31850
61925,32262
61987,32325
62099,32325
62191,32286
62261,32216
62300,32124
62300,33542
61936,33905
61936,33113
61898,33021
61828,32951
61567,32691
61479,32691
61159,33011
61631,33483
61720,33483
61898,33304
61936,33212
61936,33113
61936,33905
61476,34365
61438,34457
61438,34556
61476,34648
61547,34718
62112,35284
62204,35322
62304,35322
62396,35284
62466,35214
63484,34196
63522,34104
63522,34004
63522,35292
62900,35292
62744,35323
62691,35358
62611,35411
62611,35411
61949,36073
61188,35311
61188,35311
60512,34636
60512,34636
60604,34598
60675,34528
61120,34082
61158,33990
61158,33891
61135,33835
61191,33858
61290,33858
61382,33820
61560,33642
61560,33553
61088,33081
61083,33087
61012,33016
61018,33011
60546,32539
60457,32539
60279,32717
60241,32809
60241,32908
60264,32964
60208,32941
60109,32941
60017,32979
59947,33049
59501,33495
59463,33587
59463,33587
59307,33431
59307,32468
59451,32325
59499,32325
59849,32325
59941,32286
60000,32228
60058,32286
60150,32325
60249,32325
60599,32325
60691,32286
60750,32228
60759,32237
60616,32379
60616,32468
61088,32940
61408,32620
61408,32532
61201,32325
61349,32325
61441,32286
61500,32228
61558,32286
61650,32325
61762,32325
61825,32262
61825,31850
61817,31850
61817,31750
61825,31750
61825,31337
61762,31275
61650,31275
61558,31313
61499,31371
61441,31313
61349,31275
61250,31275
60900,31275
60808,31313
60749,31371
60691,31313
60682,31309
60682,29759
56717,29759
56717,30792
56705,30792
56705,29522
56705,27959
53894,27959
53894,29522
56705,29522
56705,30792
56500,30792
56500,30792
56344,30823
56211,30911
56211,30911
55961,31161
55873,31294
55842,31450
55842,31450
55842,31879
55784,31938
55750,32019
55716,31938
55657,31879
55657,31550
55626,31394
55626,31394
55591,31341
55538,31261
55538,31261
55163,30886
55030,30798
54875,30767
54874,30767
54243,30767
54243,29759
50756,29759
50756,30000
50375,30000
50300,30031
50224,30000
50125,30000
49575,30000
49483,30038
49413,30108
49375,30200
49375,30299
49375,30649
49413,30741
49471,30800
49413,30858
49375,30950
49375,31062
49437,31124
49409,31124
49322,31037
49233,31037
49162,31107
49162,30966
49162,30877
48853,30568
48783,30498
48691,30460
48591,30460
48499,30498
48332,30665
48332,30754
48853,31275
49162,30966
49162,31107
48924,31346
49445,31867
49534,31867
49701,31700
49739,31608
49739,31600
49787,31600
49850,31537
49850,31225
49842,31225
49842,31125
49850,31125
49850,31117
49950,31117
49950,31125
49957,31125
49957,31225
49950,31225
49950,31537
50012,31600
50125,31600
50224,31600
50292,31571
50292,33531
50181,33642
50162,33642
50141,33593
50071,33523
50015,33500
50071,33476
50141,33406
50180,33314
50180,33062
50180,32837
50180,32585
50141,32493
50071,32423
49979,32385
49880,32385
49850,32385
49512,32385
49450,32447
49450,32900
50117,32900
50180,32837
50180,33062
50117,33000
49450,33000
49450,33007
49350,33007
49350,33000
48682,33000
48620,33062
48620,33314
48658,33406
48728,33476
48784,33500
48728,33523
48658,33593
48620,33685
48620,33774
48596,33750
48502,33656
48414,33656
48135,33934
48141,33940
48070,34011
48065,34005
48059,34011
47988,33940
47994,33934
47988,33929
48059,33858
48065,33864
48343,33585
48343,33497
48249,33403
48179,33333
48101,33300
48301,33100
48339,33008
48339,32939
48408,32939
48500,32901
48570,32831
48620,32782
48620,32837
48682,32900
49350,32900
49350,32447
49287,32385
49004,32385
49032,32315
49032,32232
49115,32232
49207,32194
49375,32027
49375,31938
48853,31417
48847,31422
48777,31352
48782,31346
48261,30824
48172,30824
48005,30992
47967,31084
47967,31167
47884,31167
47792,31205
47722,31275
47298,31699
47260,31791
47260,31860
47191,31860
47099,31898
47029,31968
46605,32392
46567,32484
46567,32567
46484,32567
46392,32605
46322,32675
45898,33099
45860,33191
45860,33291
45898,33383
45968,33453
46077,33562
46023,33644
45992,33800
45992,33800
45992,34299
45992,34299
46023,34455
46111,34588
46357,34833
45846,35344
45808,35436
45808,35535
45846,35627
45916,35697
46199,35980
46291,36018
46391,36018
46483,35980
46545,35918
46483,35980
46444,36072
46444,36171
46483,36263
46553,36334
46836,36616
46928,36655
47027,36655
47119,36616
47081,36708
47081,36808
47119,36900
47189,36970
47472,37253
47564,37291
47663,37291
47755,37253
47826,37183
48391,36617
48429,36525
48429,36427
48444,36433
48544,36433
48636,36395
48706,36324
49095,35936
49133,35844
49133,35801
49134,35801
49226,35763
49296,35693
49575,35414
49613,35322
49613,35242
49686,35242
49923,35005
49742,34825
49654,34825
49629,34849
49559,34920
49521,35011
49521,35077
49505,35061
49338,34894
49246,34856
49146,34856
49054,34894
48984,34964
48706,35243
48694,35270
48668,35296
48603,35296
48603,35214
48564,35122
48559,35116
49061,34615
49864,34615
49838,34641
49813,34666
49813,34754
49994,34935
50230,34698
50230,34610
50191,34571
50110,34537
50141,34506
50162,34457
50349,34457
50350,34457
50350,34457
50505,34426
50638,34338
50988,33988
50988,33988
50988,33988
51076,33855
51092,33775
51092,34831
50466,35456
50466,34999
50466,34900
50428,34808
50389,34769
50301,34769
50064,35005
50245,35186
50333,35186
50358,35161
50428,35091
50466,34999
50466,35456
50143,35779
50143,35753
50105,35661
50035,35591
49922,35478
49988,35478
50079,35440
50150,35370
50174,35345
50174,35257
49994,35076
49757,35313
49757,35386
49677,35386
49585,35424
49514,35494
49236,35773
49198,35865
49198,35964
49236,36056
49306,36127
49473,36294
49565,36332
49591,36332
48622,37300
48622,37300
48311,37611
48223,37744
48192,37900
48192,37900
48192,40800
48192,40864
48134,40807
48042,40769
47943,40769
47783,40769
47829,40722
47868,40630
47868,40531
47868,40496
47868,40271
47868,40236
47868,40137
47829,40045
47759,39975
47667,39937
47612,39937
47550,39999
47550,40334
47805,40334
47868,40271
47868,40496
47805,40434
47550,40434
47550,40768
47601,40820
47545,40877
47507,40969
47507,41068
47507,41462
47545,41554
47558,41567
47555,41566
47455,41566
47453,41567
47453,41555
47454,41554
47493,41462
47493,41363
47493,40969
47454,40877
47398,40820
47450,40768
47450,40434
47450,40334
47450,39999
47387,39937
47332,39937
47240,39975
47170,40045
47132,40137
47132,40236
47132,40271
47194,40334
47450,40334
47450,40434
47194,40434
47132,40496
47132,40531
47132,40630
47170,40722
47216,40769
47193,40769
46957,40769
46865,40807
46795,40877
46757,40969
46757,41068
46757,41462
46795,41554
46796,41555
46796,41688
46607,41877
46607,41655
46636,41642
46706,41572
46745,41480
46745,41381
46745,40869
46716,40800
46745,40730
46745,40537
46745,40312
46745,40119
46706,40027
46636,39957
46544,39919
46445,39919
46322,39919
46322,37995
46284,37903
46214,37833
45196,36815
45104,36777
45004,36777
44912,36815
44842,36885
44276,37451
44238,37543
44238,37642
44276,37734
44347,37804
45292,38750
45012,38750
44950,38812
44950,39250
45687,39250
45750,39187
45750,38950
45711,38858
45662,38809
45718,38752
46284,38187
46322,38095
46322,37995
46322,39919
46312,39919
46250,39981
46250,40375
46682,40375
46745,40312
46745,40537
46682,40475
46250,40475
46250,40482
46150,40482
46150,40475
46142,40475
46142,40375
46150,40375
46150,39981
46087,39919
45954,39919
45855,39919
45763,39957
45750,39970
45750,39950
45711,39858
45653,39800
45711,39741
45750,39649
45750,39412
45687,39350
44950,39350
44950,39357
44850,39357
44850,39350
44850,39250
44850,38812
44787,38750
44349,38750
44250,38750
44158,38788
44088,38858
44050,38950
44050,39187
44112,39250
44850,39250
44850,39350
44112,39350
44050,39412
44050,39649
44088,39741
44146,39800
44088,39858
44050,39950
44050,40049
44050,40649
44088,40741
44146,40800
44088,40858
44050,40950
44050,41049
44050,41649
44088,41741
44146,41800
44088,41858
44050,41950
44050,42049
44050,42649
44088,42741
44158,42811
44250,42850
44349,42850
44492,42850
44492,43572
44492,43572
44523,43728
44611,43860
45070,44319
45070,44325
45108,44417
45178,44487
45744,45053
45836,45091
45935,45091
46027,45053
46097,44983
46380,44700
46418,44608
46418,44508
46380,44416
46380,44416
46472,44455
46478,44455
46611,44588
46611,44588
46611,44588
46744,44676
46900,44707
46900,44707
46900,44707
47822,44707
47822,44707
47822,44707
47978,44676
48110,44588
48660,44038
48709,44058
48808,44058
48864,44035
48841,44091
48841,44190
48879,44282
49057,44460
49146,44460
49618,43988
49612,43983
49683,43912
49688,43918
50160,43446
50160,43426
50236,43395
50306,43324
50386,43245
50386,43156
50165,42935
50159,42941
50088,42870
50094,42865
50088,42859
50159,42788
50165,42794
50456,42502
50456,42414
50377,42335
50285,42296
50203,42296
50203,42214
50164,42122
50094,42052
49847,41804
49825,41795
49825,41700
49825,41350
49786,41258
49728,41199
49786,41141
49825,41049
49825,40950
49825,40929
50022,40929
50022,37470
49605,37470
50188,36888
50188,36888
50188,36888
51788,35288
51788,35288
51788,35288
51876,35155
51907,35000
51907,35000
51907,34999
51907,32468
52288,32088
52288,32088
52288,32088
52368,32007
52755,32007
52700,32140
52699,32358
52783,32561
52938,32715
53019,32749
52938,32783
52784,32938
52700,33140
52699,33358
52783,33561
52938,33715
53140,33799
53358,33800
53561,33716
53715,33561
53747,33486
53768,33537
53864,33565
54179,33250
53864,32934
53768,32962
53749,33017
53716,32938
53561,32784
53480,32750
53561,32716
53715,32561
53749,32480
53783,32561
53938,32715
54013,32747
53962,32768
53934,32864
54250,33179
54565,32864
54537,32768
54482,32749
54561,32716
54715,32561
54749,32480
54783,32561
54938,32715
55013,32747
54962,32768
54934,32864
55250,33179
55565,32864
55537,32768
55482,32749
55561,32716
55715,32561
55749,32480
55783,32561
55938,32715
56013,32747
55962,32768
55934,32864
56250,33179
56565,32864
56537,32768
56482,32749
56561,32716
56700,32577
56700,32599
56738,32691
56808,32761
56900,32800
56922,32800
56784,32938
56752,33013
56731,32962
56635,32934
56320,33250
56635,33565
56731,33537
56750,33482
56783,33561
56938,33715
57140,33799
57223,33799
60892,37468
60892,41931
57231,45592
56565,45592
56565,33635
56250,33320
56179,33391
56179,33250
55864,32934
55768,32962
55751,33010
55731,32962
55635,32934
55320,33250
55635,33565
55731,33537
55748,33489
55768,33537
55864,33565
56179,33250
56179,33391
55934,33635
55962,33731
56168,33804
56386,33793
56537,33731
56565,33635
56565,45592
55565,45592
55565,33635
55250,33320
55179,33391
55179,33250
54864,32934
54768,32962
54751,33010
54731,32962
54635,32934
54320,33250
54635,33565
54731,33537
54748,33489
54768,33537
54864,33565
55179,33250
55179,33391
54934,33635
54962,33731
55168,33804
55386,33793
55537,33731
55565,33635
55565,45592
54600,45592
54565,45592
54565,33635
54250,33320
53934,33635
53962,33731
54168,33804
54386,33793
54537,33731
54565,33635
54565,45592
53815,45592
53815,45420
53776,45328
53706,45258
53614,45220
53515,45220
52885,45220
52793,45258
52723,45328
52700,45384
52676,45328
52606,45258
52514,45220
52262,45220
52200,45282
52200,45950
52207,45950
52207,46050
52200,46050
52200,46717
52262,46780
52514,46780
52606,46741
52676,46671
52700,46615
52723,46671
52793,46741
52885,46780
52984,46780
53614,46780
53706,46741
53776,46671
53815,46579
53815,46480
53815,46407
54192,46407
54192,46800
54192,46992
53665,46992
53661,46983
53591,46913
53499,46875
53400,46875
53050,46875
52958,46913
52899,46971
52841,46913
52749,46875
52650,46875
52300,46875
52208,46913
52138,46983
52111,47046
51844,46780
52037,46780
52100,46717
52100,46050
52092,46050
52092,45950
52100,45950
52100,45282
52037,45220
51785,45220
51693,45258
51623,45328
51585,45420
51585,45519
51585,45887
51647,45949
51600,45949
51345,45694
51253,45656
51153,45656
51061,45694
50991,45764
50878,45877
50878,45811
50840,45720
50770,45649
50745,45625
50733,45625
50733,42844
50733,42744
50695,42652
50615,42573
50527,42573
50235,42865
50456,43086
50545,43086
50624,43006
50695,42936
50733,42844
50733,45625
50657,45625
50586,45695
50586,45554
50586,45466
50561,45441
50536,45415
50536,43886
50536,43787
50498,43695
50320,43516
50231,43516
49759,43988
50079,44308
50167,44308
50428,44048
50498,43978
50536,43886
50536,45415
50491,45371
50399,45333
50300,45333
50208,45371
50169,45410
50169,45498
50405,45735
50586,45554
50586,45695
50476,45805
50713,46042
50786,46042
50786,46122
50824,46214
50894,46285
51173,46563
51265,46601
51364,46601
51456,46563
51527,46493
51585,46435
51585,46480
51585,46579
51623,46671
51628,46676
51600,46671
51205,46671
51201,46667
51201,46665
51163,46573
51093,46503
50814,46224
50722,46186
50642,46186
50642,46113
50405,45876
50335,45947
50335,45805
50098,45569
50010,45569
50008,45570
50008,44467
50008,44379
49688,44059
49216,44531
49216,44620
49395,44798
49487,44836
49586,44836
49678,44798
49748,44728
50008,44467
50008,45570
49971,45608
49933,45700
49933,45799
49971,45891
50041,45961
50066,45986
50154,45986
50335,45805
50335,45947
50225,46057
50225,46145
50249,46170
50320,46240
50411,46278
50477,46278
50461,46294
50294,46461
50256,46553
50256,46653
50294,46745
50364,46815
50643,47094
50735,47132
50736,47132
50837,47232
50943,47303
50943,47303
50956,47306
50956,47385
51234,47664
51240,47658
51311,47729
51305,47734
51311,47740
51240,47811
51234,47805
51229,47811
51158,47740
51164,47734
50885,47456
50797,47456
50703,47550
50633,47620
50600,47698
50307,47405
50215,47367
50132,47367
50132,47284
50094,47192
49927,47024
49838,47024
49767,47095
49767,46954
49767,46865
49600,46698
49508,46660
49408,46660
49316,46698
49261,46753
49261,45343
49223,45251
49152,45181
48587,44615
48495,44577
48395,44577
48303,44615
48233,44685
47215,45703
47177,45795
47177,45895
47215,45987
47285,46057
47851,46623
47943,46661
48042,46661
48134,46623
48204,46552
49223,45534
49261,45442
49261,45343
49261,46753
49246,46768
48937,47077
48937,47166
49246,47475
49767,46954
49767,47095
49317,47546
49322,47552
49252,47622
49246,47617
49175,47687
49175,47546
48866,47237
48777,47237
48468,47546
48398,47616
48360,47708
48360,47808
48398,47900
48565,48067
48654,48067
49175,47546
49175,47687
48724,48138
48724,48227
48892,48394
48984,48432
49067,48432
49067,48515
49105,48607
49175,48677
49599,49101
49691,49139
49760,49139
49760,49208
49798,49300
49868,49370
50292,49794
50384,49832
50467,49832
50467,49915
50505,50007
50575,50077
50776,50278
46538,48461
42804,39750
46538,31038
55250,27304
63961,31038
66135,36110
" /> 
</g>
<g style="fill:#000000; fill-opacity:0.0; 
stroke:#000000; stroke-width:100; stroke-opacity:1; 
stroke-linecap:round; stroke-linejoin:round;">
<polyline fill="none;"
points="66135,36110
66088,36039
66088,36039
66088,36039
65874,35825
65874,35825
65874,35825
65629,35580
65629,35574
65591,35482
65521,35412
64955,34846
64863,34808
64764,34808
64672,34846
64602,34916
64319,35199
64281,35291
64281,35391
64319,35483
64319,35483
64227,35444
64221,35444
64188,35411
64055,35323
63900,35292
63899,35292
63522,35292
63522,34004
63484,33912
63414,33842
62848,33276
62756,33238
62657,33238
62565,33276
62495,33347
62300,33542
62300,32124
62300,32025
62300,31912
62300,31687
62300,31574
62300,31475
62261,31383
62191,31313
62099,31275
61987,31275
61925,31337
61925,31750
62237,31750
62300,31687
62300,31912
62237,31850
61925,31850
61925,32262
61987,32325
62099,32325
62191,32286
62261,32216
62300,32124
62300,33542
61936,33905
61936,33113
61898,33021
61828,32951
61567,32691
61479,32691
61159,33011
61631,33483
61720,33483
61898,33304
61936,33212
61936,33113
61936,33905
61476,34365
61438,34457
61438,34556
61476,34648
61547,34718
62112,35284
62204,35322
62304,35322
62396,35284
62466,35214
63484,34196
63522,34104
63522,34004
63522,35292
62900,35292
62744,35323
62691,35358
62611,35411
62611,35411
61949,36073
61188,35311
61188,35311
60512,34636
60512,34636
60604,34598
60675,34528
61120,34082
61158,33990
61158,33891
61135,33835
61191,33858
61290,33858
61382,33820
61560,33642
61560,33553
61088,33081
61083,33087
61012,33016
61018,33011
60546,32539
60457,32539
60279,32717
60241,32809
60241,32908
60264,32964
60208,32941
60109,32941
60017,32979
59947,33049
59501,33495
59463,33587
59463,33587
59307,33431
59307,32468
59451,32325
59499,32325
59849,32325
59941,32286
60000,32228
60058,32286
60150,32325
60249,32325
60599,32325
60691,32286
60750,32228
60759,32237
60616,32379
60616,32468
61088,32940
61408,32620
61408,32532
61201,32325
61349,32325
61441,32286
61500,32228
61558,32286
61650,32325
61762,32325
61825,32262
61825,31850
61817,31850
61817,31750
61825,31750
61825,31337
61762,31275
61650,31275
61558,31313
61499,31371
61441,31313
61349,31275
61250,31275
60900,31275
60808,31313
60749,31371
60691,31313
60682,31309
60682,29759
56717,29759
56717,30792
56705,30792
56705,29522
56705,27959
53894,27959
53894,29522
56705,29522
56705,30792
56500,30792
56500,30792
56344,30823
56211,30911
56211,30911
55961,31161
55873,31294
55842,31450
55842,31450
55842,31879
55784,31938
55750,32019
55716,31938
55657,31879
55657,31550
55626,31394
55626,31394
55591,31341
55538,31261
55538,31261
55163,30886
55030,30798
54875,30767
54874,30767
54243,30767
54243,29759
50756,29759
50756,30000
50375,30000
50300,30031
50224,30000
50125,30000
49575,30000
49483,30038
49413,30108
49375,30200
49375,30299
49375,30649
49413,30741
49471,30800
49413,30858
49375,30950
49375,31062
49437,31124
49409,31124
49322,31037
49233,31037
49162,31107
49162,30966
49162,30877
48853,30568
48783,30498
48691,30460
48591,30460
48499,30498
48332,30665
48332,30754
48853,31275
49162,30966
49162,31107
48924,31346
49445,31867
49534,31867
49701,31700
49739,31608
49739,31600
49787,31600
49850,31537
49850,31225
49842,31225
49842,31125
49850,31125
49850,31117
49950,31117
49950,31125
49957,31125
49957,31225
49950,31225
49950,31537
50012,31600
50125,31600
50224,31600
50292,31571
50292,33531
50181,33642
50162,33642
50141,33593
50071,33523
50015,33500
50071,33476
50141,33406
50180,33314
50180,33062
50180,32837
50180,32585
50141,32493
50071,32423
49979,32385
49880,32385
49850,32385
49512,32385
49450,32447
49450,32900
50117,32900
50180,32837
50180,33062
50117,33000
49450,33000
49450,33007
49350,33007
49350,33000
48682,33000
48620,33062
48620,33314
48658,33406
48728,33476
48784,33500
48728,33523
48658,33593
48620,33685
48620,33774
48596,33750
48502,33656
48414,33656
48135,33934
48141,33940
48070,34011
48065,34005
48059,34011
47988,33940
47994,33934
47988,33929
48059,33858
48065,33864
48343,33585
48343,33497
48249,33403
48179,33333
48101,33300
48301,33100
48339,33008
48339,32939
48408,32939
48500,32901
48570,32831
48620,32782
48620,32837
48682,32900
49350,32900
49350,32447
49287,32385
49004,32385
49032,32315
49032,32232
49115,32232
49207,32194
49375,32027
49375,31938
48853,31417
48847,31422
48777,31352
48782,31346
48261,30824
48172,30824
48005,30992
47967,31084
47967,31167
47884,31167
47792,31205
47722,31275
47298,31699
47260,31791
47260,31860
47191,31860
47099,31898
47029,31968
46605,32392
46567,32484
46567,32567
46484,32567
46392,32605
46322,32675
45898,33099
45860,33191
45860,33291
45898,33383
45968,33453
46077,33562
46023,33644
45992,33800
45992,33800
45992,34299
45992,34299
46023,34455
46111,34588
46357,34833
45846,35344
45808,35436
45808,35535
45846,35627
45916,35697
46199,35980
46291,36018
46391,36018
46483,35980
46545,35918
46483,35980
46444,36072
46444,36171
46483,36263
46553,36334
46836,36616
46928,36655
47027,36655
47119,36616
47081,36708
47081,36808
47119,36900
47189,36970
47472,37253
47564,37291
47663,37291
47755,37253
47826,37183
48391,36617
48429,36525
48429,36427
48444,36433
48544,36433
48636,36395
48706,36324
49095,35936
49133,35844
49133,35801
49134,35801
49226,35763
49296,35693
49575,35414
49613,35322
49613,35242
49686,35242
49923,35005
49742,34825
49654,34825
49629,34849
49559,34920
49521,35011
49521,35077
49505,35061
49338,34894
49246,34856
49146,34856
49054,34894
48984,34964
48706,35243
48694,35270
48668,35296
48603,35296
48603,35214
48564,35122
48559,35116
49061,34615
49864,34615
49838,34641
49813,34666
49813,34754
49994,34935
50230,34698
50230,34610
50191,34571
50110,34537
50141,34506
50162,34457
50349,34457
50350,34457
50350,34457
50505,34426
50638,34338
50988,33988
50988,33988
50988,33988
51076,33855
51092,33775
51092,34831
50466,35456
50466,34999
50466,34900
50428,34808
50389,34769
50301,34769
50064,35005
50245,35186
50333,35186
50358,35161
50428,35091
50466,34999
50466,35456
50143,35779
50143,35753
50105,35661
50035,35591
49922,35478
49988,35478
50079,35440
50150,35370
50174,35345
50174,35257
49994,35076
49757,35313
49757,35386
49677,35386
49585,35424
49514,35494
49236,35773
49198,35865
49198,35964
49236,36056
49306,36127
49473,36294
49565,36332
49591,36332
48622,37300
48622,37300
48311,37611
48223,37744
48192,37900
48192,37900
48192,40800
48192,40864
48134,40807
48042,40769
47943,40769
47783,40769
47829,40722
47868,40630
47868,40531
47868,40496
47868,40271
47868,40236
47868,40137
47829,40045
47759,39975
47667,39937
47612,39937
47550,39999
47550,40334
47805,40334
47868,40271
47868,40496
47805,40434
47550,40434
47550,40768
47601,40820
47545,40877
47507,40969
47507,41068
47507,41462
47545,41554
47558,41567
47555,41566
47455,41566
47453,41567
47453,41555
47454,41554
47493,41462
47493,41363
47493,40969
47454,40877
47398,40820
47450,40768
47450,40434
47450,40334
47450,39999
47387,39937
47332,39937
47240,39975
47170,40045
47132,40137
47132,40236
47132,40271
47194,40334
47450,40334
47450,40434
47194,40434
47132,40496
47132,40531
47132,40630
47170,40722
47216,40769
47193,40769
46957,40769
46865,40807
46795,40877
46757,40969
46757,41068
46757,41462
46795,41554
46796,41555
46796,41688
46607,41877
46607,41655
46636,41642
46706,41572
46745,41480
46745,41381
46745,40869
46716,40800
46745,40730
46745,40537
46745,40312
46745,40119
46706,40027
46636,39957
46544,39919
46445,39919
46322,39919
46322,37995
46284,37903
46214,37833
45196,36815
45104,36777
45004,36777
44912,36815
44842,36885
44276,37451
44238,37543
44238,37642
44276,37734
44347,37804
45292,38750
45012,38750
44950,38812
44950,39250
45687,39250
45750,39187
45750,38950
45711,38858
45662,38809
45718,38752
46284,38187
46322,38095
46322,37995
46322,39919
46312,39919
46250,39981
46250,40375
46682,40375
46745,40312
46745,40537
46682,40475
46250,40475
46250,40482
46150,40482
46150,40475
46142,40475
46142,40375
46150,40375
46150,39981
46087,39919
45954,39919
45855,39919
45763,39957
45750,39970
45750,39950
45711,39858
45653,39800
45711,39741
45750,39649
45750,39412
45687,39350
44950,39350
44950,39357
44850,39357
44850,39350
44850,39250
44850,38812
44787,38750
44349,38750
44250,38750
44158,38788
44088,38858
44050,38950
44050,39187
44112,39250
44850,39250
44850,39350
44112,39350
44050,39412
44050,39649
44088,39741
44146,39800
44088,39858
44050,39950
44050,40049
44050,40649
44088,40741
44146,40800
44088,40858
44050,40950
44050,41049
44050,41649
44088,41741
44146,41800
44088,41858
44050,41950
44050,42049
44050,42649
44088,42741
44158,42811
44250,42850
44349,42850
44492,42850
44492,43572
44492,43572
44523,43728
44611,43860
45070,44319
45070,44325
45108,44417
45178,44487
45744,45053
45836,45091
45935,45091
46027,45053
46097,44983
46380,44700
46418,44608
46418,44508
46380,44416
46380,44416
46472,44455
46478,44455
46611,44588
46611,44588
46611,44588
46744,44676
46900,44707
46900,44707
46900,44707
47822,44707
47822,44707
47822,44707
47978,44676
48110,44588
48660,44038
48709,44058
48808,44058
48864,44035
48841,44091
48841,44190
48879,44282
49057,44460
49146,44460
49618,43988
49612,43983
49683,43912
49688,43918
50160,43446
50160,43426
50236,43395
50306,43324
50386,43245
50386,43156
50165,42935
50159,42941
50088,42870
50094,42865
50088,42859
50159,42788
50165,42794
50456,42502
50456,42414
50377,42335
50285,42296
50203,42296
50203,42214
50164,42122
50094,42052
49847,41804
49825,41795
49825,41700
49825,41350
49786,41258
49728,41199
49786,41141
49825,41049
49825,40950
49825,40929
50022,40929
50022,37470
49605,37470
50188,36888
50188,36888
50188,36888
51788,35288
51788,35288
51788,35288
51876,35155
51907,35000
51907,35000
51907,34999
51907,32468
52288,32088
52288,32088
52288,32088
52368,32007
52755,32007
52700,32140
52699,32358
52783,32561
52938,32715
53019,32749
52938,32783
52784,32938
52700,33140
52699,33358
52783,33561
52938,33715
53140,33799
53358,33800
53561,33716
53715,33561
53747,33486
53768,33537
53864,33565
54179,33250
53864,32934
53768,32962
53749,33017
53716,32938
53561,32784
53480,32750
53561,32716
53715,32561
53749,32480
53783,32561
53938,32715
54013,32747
53962,32768
53934,32864
54250,33179
54565,32864
54537,32768
54482,32749
54561,32716
54715,32561
54749,32480
54783,32561
54938,32715
55013,32747
54962,32768
54934,32864
55250,33179
55565,32864
55537,32768
55482,32749
55561,32716
55715,32561
55749,32480
55783,32561
55938,32715
56013,32747
55962,32768
55934,32864
56250,33179
56565,32864
56537,32768
56482,32749
56561,32716
56700,32577
56700,32599
56738,32691
56808,32761
56900,32800
56922,32800
56784,32938
56752,33013
56731,32962
56635,32934
56320,33250
56635,33565
56731,33537
56750,33482
56783,33561
56938,33715
57140,33799
57223,33799
60892,37468
60892,41931
57231,45592
56565,45592
56565,33635
56250,33320
56179,33391
56179,33250
55864,32934
55768,32962
55751,33010
55731,32962
55635,32934
55320,33250
55635,33565
55731,33537
55748,33489
55768,33537
55864,33565
56179,33250
56179,33391
55934,33635
55962,33731
56168,33804
56386,33793
56537,33731
56565,33635
56565,45592
55565,45592
55565,33635
55250,33320
55179,33391
55179,33250
54864,32934
54768,32962
54751,33010
54731,32962
54635,32934
54320,33250
54635,33565
54731,33537
54748,33489
54768,33537
54864,33565
55179,33250
55179,33391
54934,33635
54962,33731
55168,33804
55386,33793
55537,33731
55565,33635
55565,45592
54600,45592
54565,45592
54565,33635
54250,33320
53934,33635
53962,33731
54168,33804
54386,33793
54537,33731
54565,33635
54565,45592
53815,45592
53815,45420
53776,45328
53706,45258
53614,45220
53515,45220
52885,45220
52793,45258
52723,45328
52700,45384
52676,45328
52606,45258
52514,45220
52262,45220
52200,45282
52200,45950
52207,45950
52207,46050
52200,46050
52200,46717
52262,46780
52514,46780
52606,46741
52676,46671
52700,46615
52723,46671
52793,46741
52885,46780
52984,46780
53614,46780
53706,46741
53776,46671
53815,46579
53815,46480
53815,46407
54192,46407
54192,46800
54192,46992
53665,46992
53661,46983
53591,46913
53499,46875
53400,46875
53050,46875
52958,46913
52899,46971
52841,46913
52749,46875
52650,46875
52300,46875
52208,46913
52138,46983
52111,47046
51844,46780
52037,46780
52100,46717
52100,46050
52092,46050
52092,45950
52100,45950
52100,45282
52037,45220
51785,45220
51693,45258
51623,45328
51585,45420
51585,45519
51585,45887
51647,45949
51600,45949
51345,45694
51253,45656
51153,45656
51061,45694
50991,45764
50878,45877
50878,45811
50840,45720
50770,45649
50745,45625
50733,45625
50733,42844
50733,42744
50695,42652
50615,42573
50527,42573
50235,42865
50456,43086
50545,43086
50624,43006
50695,42936
50733,42844
50733,45625
50657,45625
50586,45695
50586,45554
50586,45466
50561,45441
50536,45415
50536,43886
50536,43787
50498,43695
50320,43516
50231,43516
49759,43988
50079,44308
50167,44308
50428,44048
50498,43978
50536,43886
50536,45415
50491,45371
50399,45333
50300,45333
50208,45371
50169,45410
50169,45498
50405,45735
50586,45554
50586,45695
50476,45805
50713,46042
50786,46042
50786,46122
50824,46214
50894,46285
51173,46563
51265,46601
51364,46601
51456,46563
51527,46493
51585,46435
51585,46480
51585,46579
51623,46671
51628,46676
51600,46671
51205,46671
51201,46667
51201,46665
51163,46573
51093,46503
50814,46224
50722,46186
50642,46186
50642,46113
50405,45876
50335,45947
50335,45805
50098,45569
50010,45569
50008,45570
50008,44467
50008,44379
49688,44059
49216,44531
49216,44620
49395,44798
49487,44836
49586,44836
49678,44798
49748,44728
50008,44467
50008,45570
49971,45608
49933,45700
49933,45799
49971,45891
50041,45961
50066,45986
50154,45986
50335,45805
50335,45947
50225,46057
50225,46145
50249,46170
50320,46240
50411,46278
50477,46278
50461,46294
50294,46461
50256,46553
50256,46653
50294,46745
50364,46815
50643,47094
50735,47132
50736,47132
50837,47232
50943,47303
50943,47303
50956,47306
50956,47385
51234,47664
51240,47658
51311,47729
51305,47734
51311,47740
51240,47811
51234,47805
51229,47811
51158,47740
51164,47734
50885,47456
50797,47456
50703,47550
50633,47620
50600,47698
50307,47405
50215,47367
50132,47367
50132,47284
50094,47192
49927,47024
49838,47024
49767,47095
49767,46954
49767,46865
49600,46698
49508,46660
49408,46660
49316,46698
49261,46753
49261,45343
49223,45251
49152,45181
48587,44615
48495,44577
48395,44577
48303,44615
48233,44685
47215,45703
47177,45795
47177,45895
47215,45987
47285,46057
47851,46623
47943,46661
48042,46661
48134,46623
48204,46552
49223,45534
49261,45442
49261,45343
49261,46753
49246,46768
48937,47077
48937,47166
49246,47475
49767,46954
49767,47095
49317,47546
49322,47552
49252,47622
49246,47617
49175,47687
49175,47546
48866,47237
48777,47237
48468,47546
48398,47616
48360,47708
48360,47808
48398,47900
48565,48067
48654,48067
49175,47546
49175,47687
48724,48138
48724,48227
48892,48394
48984,48432
49067,48432
49067,48515
49105,48607
49175,48677
49599,49101
49691,49139
49760,49139
49760,49208
49798,49300
49868,49370
50292,49794
50384,49832
50467,49832
50467,49915
50505,50007
50575,50077
50776,50278
46538,48461
42804,39750
46538,31038
55250,27304
63961,31038
66135,36110
" /> 
</g>
<g style="fill:#000000; fill-opacity:1.0; 
stroke:#000000; stroke-width:39.3701; stroke-opacity:1; 
stroke-linecap:round; stroke-linejoin:round;">
<polyline style="fill-rule:evenodd;"
points="67695,39750
66650,42189
66650,41649
66650,41412
66587,41350
65850,41350
65850,41787
65912,41850
66350,41850
66449,41850
66541,41811
66611,41741
66650,41649
66650,42189
64761,46596
64761,45057
64723,44965
64652,44895
63634,43876
63542,43838
63443,43838
63351,43876
63281,43947
62936,44291
62936,43313
62898,43221
62828,43151
62567,42891
62479,42891
62159,43211
62631,43683
62720,43683
62898,43504
62936,43412
62936,43313
62936,44291
62715,44512
62677,44604
62677,44704
62715,44796
62785,44866
63803,45884
63895,45922
63995,45922
64087,45884
64157,45814
64723,45248
64761,45156
64761,45057
64761,46596
63961,48461
58752,50694
58752,50428
58500,49735
58089,49884
58051,49964
58201,50376
58235,50469
58302,50542
58392,50585
58492,50589
58715,50508
58752,50428
58752,50694
55250,52195
51287,50497
51353,50431
51454,50330
51611,50488
51611,50488
51611,50488
51744,50576
51900,50607
51900,50607
51900,50607
52953,50607
52958,50611
53050,50650
53149,50650
53949,50650
54041,50611
54111,50541
54150,50449
54150,50350
54150,49950
54111,49858
54041,49788
53949,49750
53949,49750
54041,49711
54046,49707
54199,49707
54200,49707
54200,49707
54355,49676
54488,49588
54888,49188
54976,49055
55007,48900
55007,48900
55007,48899
55007,47500
55007,47500
55007,47500
55007,47499
55007,47325
55099,47325
55449,47325
55541,47286
55600,47228
55658,47286
55750,47325
55849,47325
56199,47325
56259,47300
56259,48330
55650,48330
55558,48368
55488,48438
55450,48530
55450,48629
55450,50069
55488,50161
55558,50231
55650,50270
55749,50270
56259,50270
56259,50982
57822,50982
57822,49334
57825,49342
57974,49753
58054,49790
58466,49641
58213,48948
58133,48910
57910,48991
57837,49059
57822,49091
57822,47256
57861,47216
57900,47124
57900,47025
57900,46912
57837,46850
57525,46850
57525,46857
57425,46857
57425,46850
57417,46850
57417,46750
57425,46750
57425,46742
57525,46742
57525,46750
57837,46750
57900,46687
57900,46574
57900,46475
57861,46383
57791,46313
57700,46275
60429,43547
60451,43662
60491,43720
60463,43787
60463,43886
60501,43978
60571,44048
60823,44300
60253,44870
60244,44866
60144,44866
60052,44904
59982,44975
59735,45222
59696,45314
59696,45396
59614,45396
59522,45435
59452,45505
59204,45752
59166,45844
59166,45944
59204,46036
59275,46106
59406,46237
59406,46359
59367,46398
59365,46398
59301,46424
59301,46334
59301,46235
59263,46143
59193,46072
59026,45906
58934,45867
58835,45867
58743,45905
58672,45976
58394,46254
58356,46346
58356,46446
58394,46538
58464,46608
58577,46721
58511,46721
58420,46759
58349,46829
58325,46854
58325,46942
58505,47123
58742,46886
58742,46813
58822,46813
58914,46775
58985,46705
59263,46426
59301,46334
59301,46424
59273,46436
59203,46506
58924,46785
58886,46877
58886,46957
58813,46957
58576,47194
58757,47374
58845,47374
58870,47350
58940,47279
58978,47188
58978,47122
58994,47138
59161,47305
59253,47343
59353,47343
59408,47320
59329,47400
59329,47488
59634,47794
59640,47788
59711,47859
59705,47865
60011,48170
60099,48170
60236,48034
60265,47965
60334,47936
60404,47866
60450,47819
60481,47850
60467,47884
60467,47967
60384,47967
60292,48005
60222,48075
59798,48499
59774,48557
59764,48530
59733,48496
59804,48466
59940,48330
59940,48241
59634,47935
59564,48006
59564,47865
59258,47559
59169,47559
59033,47695
58995,47787
58995,47887
59033,47979
59103,48049
59197,48143
59285,48143
59564,47865
59564,48006
59356,48214
59356,48302
59450,48396
59476,48422
59414,48444
58850,48649
58777,48717
58742,48791
58686,48765
58686,47533
58686,47445
58505,47264
58435,47335
58435,47194
58254,47013
58166,47013
58141,47038
58071,47108
58033,47200
58033,47299
58071,47391
58110,47430
58198,47430
58435,47194
58435,47335
58269,47501
58269,47589
58308,47628
58400,47666
58499,47666
58591,47628
58661,47558
58686,47533
58686,48765
58667,48756
58568,48752
58345,48833
58307,48913
58560,49606
58567,49604
58601,49698
58594,49700
58846,50393
58926,50431
59149,50350
59222,50282
59257,50208
59332,50243
59431,50247
59525,50213
60089,50008
60162,49940
60204,49850
60208,49751
60174,49657
60119,49505
60405,49390
60716,49701
60808,49739
60908,49739
61000,49701
61070,49631
61494,49207
61532,49115
61532,49032
61615,49032
61707,48994
61777,48924
62201,48500
62239,48408
62239,48308
62210,48238
62419,48029
62425,48029
62517,47991
62587,47921
63153,47355
63191,47263
63191,47164
63153,47072
63083,47002
62800,46719
62708,46681
62608,46681
62516,46719
62516,46719
62555,46627
62555,46588
62555,46588
62576,46555
62607,46400
62607,46400
62607,46399
62607,44877
62607,44877
62607,44877
62576,44721
62488,44589
62138,44239
62158,44190
62158,44091
62135,44035
62191,44058
62290,44058
62382,44020
62560,43842
62560,43753
62088,43281
62083,43287
62012,43216
62018,43211
62012,43205
62083,43134
62088,43140
62408,42820
62408,42732
62148,42471
62078,42401
62097,42307
62400,42307
62488,42307
62504,42347
62575,42417
62822,42664
62914,42703
62996,42703
62996,42785
63035,42877
63105,42947
63352,43195
63444,43233
63466,43233
63466,43255
63504,43347
63575,43417
63822,43664
63914,43703
63996,43703
63996,43785
64035,43877
64114,43956
64202,43956
64385,43774
64456,43844
64273,44027
64273,44115
64352,44195
64444,44233
64544,44233
64636,44195
64706,44124
64721,44110
64907,44296
66012,43190
65750,42928
65750,41787
65750,41350
65012,41350
64950,41412
64950,41649
64988,41741
65058,41811
65150,41850
65249,41850
65687,41850
65750,41787
65750,42928
64450,41628
64450,39618
64450,39225
64017,39225
63955,39287
63955,39480
63993,39572
64063,39642
64155,39681
64254,39681
64387,39681
64450,39618
64450,41628
63350,40528
63359,40524
63429,40454
63468,40362
63468,40263
63468,40228
63405,40166
63150,40166
63150,40173
63093,40173
63093,39530
63093,39431
63093,39037
63054,38945
62984,38875
62892,38837
62793,38837
62557,38837
62465,38875
62395,38945
62357,39037
62357,39136
62357,39530
62395,39622
62465,39692
62557,39731
62656,39731
62816,39731
62770,39777
62732,39869
62732,39968
62732,40003
62794,40066
63050,40066
63050,39731
62998,39679
63054,39622
63093,39530
63093,40173
63050,40173
63050,40166
62794,40166
62732,40228
62732,40263
62732,40362
62770,40454
62840,40524
62932,40563
62987,40563
63049,40500
63049,40546
62107,41489
62107,37600
62107,37383
62270,37546
62266,37555
62266,37655
62304,37747
62375,37817
62622,38064
62714,38103
62796,38103
62796,38185
62835,38277
62905,38347
63146,38588
63146,38944
63145,38945
63107,39037
63107,39136
63107,39530
63145,39622
63201,39679
63150,39731
63150,40066
63405,40066
63468,40003
63468,39968
63468,39869
63429,39777
63383,39731
63406,39731
63642,39731
63734,39692
63804,39622
63843,39530
63843,39431
63843,39037
63804,38945
63803,38944
63803,38227
63895,38136
63933,38044
63933,37961
64332,37562
64403,37456
64403,37456
64428,37330
64428,37172
64403,37046
64403,37046
64349,36965
64357,36946
64357,36847
64319,36755
64256,36692
64319,36755
64410,36793
64510,36793
64602,36755
64672,36685
64955,36402
64993,36310
64993,36210
64955,36119
64955,36119
65047,36157
65053,36157
65298,36401
65298,36401
65298,36401
65392,36495
65392,37650
65150,37650
65058,37688
64988,37758
64973,37792
64725,37792
64725,37792
64569,37823
64436,37911
64436,37911
64429,37919
64155,37919
64063,37957
63993,38027
63955,38119
63955,38218
63955,38730
63983,38800
63955,38869
63955,39062
64017,39125
64450,39125
64450,39117
64550,39117
64550,39125
64557,39125
64557,39225
64550,39225
64550,39618
64612,39681
64745,39681
64844,39681
64936,39642
64973,39606
64988,39641
65058,39711
65150,39750
65058,39788
64988,39858
64950,39950
64950,40049
64950,40649
64988,40741
65046,40800
64988,40858
64950,40950
64950,41187
65012,41250
65750,41250
65750,41242
65850,41242
65850,41250
66587,41250
66650,41187
66650,40950
66611,40858
66553,40799
66611,40741
66650,40649
66650,40550
66650,39950
66611,39858
66541,39788
66449,39750
66449,39750
66541,39711
66611,39641
66650,39549
66650,39450
66650,38850
66611,38758
66553,38699
66611,38641
66650,38549
66650,38450
66650,37850
66611,37758
66541,37688
66449,37650
66350,37650
66207,37650
66207,36327
66207,36327
66207,36327
66189,36234
67695,39750
" /> 
</g>
<g style="fill:#000000; fill-opacity:0.0; 
stroke:#000000; stroke-width:100; stroke-opacity:1; 
stroke-linecap:round; stroke-linejoin:round;">
<polyline fill="none;"
points="67695,39750
66650,42189
66650,41649
66650,41412
66587,41350
65850,41350
65850,41787
65912,41850
66350,41850
66449,41850
66541,41811
66611,41741
66650,41649
66650,42189
64761,46596
64761,45057
64723,44965
64652,44895
63634,43876
63542,43838
63443,43838
63351,43876
63281,43947
62936,44291
62936,43313
62898,43221
62828,43151
62567,42891
62479,42891
62159,43211
62631,43683
62720,43683
62898,43504
62936,43412
62936,43313
62936,44291
62715,44512
62677,44604
62677,44704
62715,44796
62785,44866
63803,45884
63895,45922
63995,45922
64087,45884
64157,45814
64723,45248
64761,45156
64761,45057
64761,46596
63961,48461
58752,50694
58752,50428
58500,49735
58089,49884
58051,49964
58201,50376
58235,50469
58302,50542
58392,50585
58492,50589
58715,50508
58752,50428
58752,50694
55250,52195
51287,50497
51353,50431
51454,50330
51611,50488
51611,50488
51611,50488
51744,50576
51900,50607
51900,50607
51900,50607
52953,50607
52958,50611
53050,50650
53149,50650
53949,50650
54041,50611
54111,50541
54150,50449
54150,50350
54150,49950
54111,49858
54041,49788
53949,49750
53949,49750
54041,49711
54046,49707
54199,49707
54200,49707
54200,49707
54355,49676
54488,49588
54888,49188
54976,49055
55007,48900
55007,48900
55007,48899
55007,47500
55007,47500
55007,47500
55007,47499
55007,47325
55099,47325
55449,47325
55541,47286
55600,47228
55658,47286
55750,47325
55849,47325
56199,47325
56259,47300
56259,48330
55650,48330
55558,48368
55488,48438
55450,48530
55450,48629
55450,50069
55488,50161
55558,50231
55650,50270
55749,50270
56259,50270
56259,50982
57822,50982
57822,49334
57825,49342
57974,49753
58054,49790
58466,49641
58213,48948
58133,48910
57910,48991
57837,49059
57822,49091
57822,47256
57861,47216
57900,47124
57900,47025
57900,46912
57837,46850
57525,46850
57525,46857
57425,46857
57425,46850
57417,46850
57417,46750
57425,46750
57425,46742
57525,46742
57525,46750
57837,46750
57900,46687
57900,46574
57900,46475
57861,46383
57791,46313
57700,46275
60429,43547
60451,43662
60491,43720
60463,43787
60463,43886
60501,43978
60571,44048
60823,44300
60253,44870
60244,44866
60144,44866
60052,44904
59982,44975
59735,45222
59696,45314
59696,45396
59614,45396
59522,45435
59452,45505
59204,45752
59166,45844
59166,45944
59204,46036
59275,46106
59406,46237
59406,46359
59367,46398
59365,46398
59301,46424
59301,46334
59301,46235
59263,46143
59193,46072
59026,45906
58934,45867
58835,45867
58743,45905
58672,45976
58394,46254
58356,46346
58356,46446
58394,46538
58464,46608
58577,46721
58511,46721
58420,46759
58349,46829
58325,46854
58325,46942
58505,47123
58742,46886
58742,46813
58822,46813
58914,46775
58985,46705
59263,46426
59301,46334
59301,46424
59273,46436
59203,46506
58924,46785
58886,46877
58886,46957
58813,46957
58576,47194
58757,47374
58845,47374
58870,47350
58940,47279
58978,47188
58978,47122
58994,47138
59161,47305
59253,47343
59353,47343
59408,47320
59329,47400
59329,47488
59634,47794
59640,47788
59711,47859
59705,47865
60011,48170
60099,48170
60236,48034
60265,47965
60334,47936
60404,47866
60450,47819
60481,47850
60467,47884
60467,47967
60384,47967
60292,48005
60222,48075
59798,48499
59774,48557
59764,48530
59733,48496
59804,48466
59940,48330
59940,48241
59634,47935
59564,48006
59564,47865
59258,47559
59169,47559
59033,47695
58995,47787
58995,47887
59033,47979
59103,48049
59197,48143
59285,48143
59564,47865
59564,48006
59356,48214
59356,48302
59450,48396
59476,48422
59414,48444
58850,48649
58777,48717
58742,48791
58686,48765
58686,47533
58686,47445
58505,47264
58435,47335
58435,47194
58254,47013
58166,47013
58141,47038
58071,47108
58033,47200
58033,47299
58071,47391
58110,47430
58198,47430
58435,47194
58435,47335
58269,47501
58269,47589
58308,47628
58400,47666
58499,47666
58591,47628
58661,47558
58686,47533
58686,48765
58667,48756
58568,48752
58345,48833
58307,48913
58560,49606
58567,49604
58601,49698
58594,49700
58846,50393
58926,50431
59149,50350
59222,50282
59257,50208
59332,50243
59431,50247
59525,50213
60089,50008
60162,49940
60204,49850
60208,49751
60174,49657
60119,49505
60405,49390
60716,49701
60808,49739
60908,49739
61000,49701
61070,49631
61494,49207
61532,49115
61532,49032
61615,49032
61707,48994
61777,48924
62201,48500
62239,48408
62239,48308
62210,48238
62419,48029
62425,48029
62517,47991
62587,47921
63153,47355
63191,47263
63191,47164
63153,47072
63083,47002
62800,46719
62708,46681
62608,46681
62516,46719
62516,46719
62555,46627
62555,46588
62555,46588
62576,46555
62607,46400
62607,46400
62607,46399
62607,44877
62607,44877
62607,44877
62576,44721
62488,44589
62138,44239
62158,44190
62158,44091
62135,44035
62191,44058
62290,44058
62382,44020
62560,43842
62560,43753
62088,43281
62083,43287
62012,43216
62018,43211
62012,43205
62083,43134
62088,43140
62408,42820
62408,42732
62148,42471
62078,42401
62097,42307
62400,42307
62488,42307
62504,42347
62575,42417
62822,42664
62914,42703
62996,42703
62996,42785
63035,42877
63105,42947
63352,43195
63444,43233
63466,43233
63466,43255
63504,43347
63575,43417
63822,43664
63914,43703
63996,43703
63996,43785
64035,43877
64114,43956
64202,43956
64385,43774
64456,43844
64273,44027
64273,44115
64352,44195
64444,44233
64544,44233
64636,44195
64706,44124
64721,44110
64907,44296
66012,43190
65750,42928
65750,41787
65750,41350
65012,41350
64950,41412
64950,41649
64988,41741
65058,41811
65150,41850
65249,41850
65687,41850
65750,41787
65750,42928
64450,41628
64450,39618
64450,39225
64017,39225
63955,39287
63955,39480
63993,39572
64063,39642
64155,39681
64254,39681
64387,39681
64450,39618
64450,41628
63350,40528
63359,40524
63429,40454
63468,40362
63468,40263
63468,40228
63405,40166
63150,40166
63150,40173
63093,40173
63093,39530
63093,39431
63093,39037
63054,38945
62984,38875
62892,38837
62793,38837
62557,38837
62465,38875
62395,38945
62357,39037
62357,39136
62357,39530
62395,39622
62465,39692
62557,39731
62656,39731
62816,39731
62770,39777
62732,39869
62732,39968
62732,40003
62794,40066
63050,40066
63050,39731
62998,39679
63054,39622
63093,39530
63093,40173
63050,40173
63050,40166
62794,40166
62732,40228
62732,40263
62732,40362
62770,40454
62840,40524
62932,40563
62987,40563
63049,40500
63049,40546
62107,41489
62107,37600
62107,37383
62270,37546
62266,37555
62266,37655
62304,37747
62375,37817
62622,38064
62714,38103
62796,38103
62796,38185
62835,38277
62905,38347
63146,38588
63146,38944
63145,38945
63107,39037
63107,39136
63107,39530
63145,39622
63201,39679
63150,39731
63150,40066
63405,40066
63468,40003
63468,39968
63468,39869
63429,39777
63383,39731
63406,39731
63642,39731
63734,39692
63804,39622
63843,39530
63843,39431
63843,39037
63804,38945
63803,38944
63803,38227
63895,38136
63933,38044
63933,37961
64332,37562
64403,37456
64403,37456
64428,37330
64428,37172
64403,37046
64403,37046
64349,36965
64357,36946
64357,36847
64319,36755
64256,36692
64319,36755
64410,36793
64510,36793
64602,36755
64672,36685
64955,36402
64993,36310
64993,36210
64955,36119
64955,36119
65047,36157
65053,36157
65298,36401
65298,36401
65298,36401
65392,36495
65392,37650
65150,37650
65058,37688
64988,37758
64973,37792
64725,37792
64725,37792
64569,37823
64436,37911
64436,37911
64429,37919
64155,37919
64063,37957
63993,38027
63955,38119
63955,38218
63955,38730
63983,38800
63955,38869
63955,39062
64017,39125
64450,39125
64450,39117
64550,39117
64550,39125
64557,39125
64557,39225
64550,39225
64550,39618
64612,39681
64745,39681
64844,39681
64936,39642
64973,39606
64988,39641
65058,39711
65150,39750
65058,39788
64988,39858
64950,39950
64950,40049
64950,40649
64988,40741
65046,40800
64988,40858
64950,40950
64950,41187
65012,41250
65750,41250
65750,41242
65850,41242
65850,41250
66587,41250
66650,41187
66650,40950
66611,40858
66553,40799
66611,40741
66650,40649
66650,40550
66650,39950
66611,39858
66541,39788
66449,39750
66449,39750
66541,39711
66611,39641
66650,39549
66650,39450
66650,38850
66611,38758
66553,38699
66611,38641
66650,38549
66650,38450
66650,37850
66611,37758
66541,37688
66449,37650
66350,37650
66207,37650
66207,36327
66207,36327
66207,36327
66189,36234
67695,39750
" /> 
</g>
<g style="fill:#FFFFFF; fill-opacity:0.0; 
stroke:#FFFFFF; stroke-width:39.3701; stroke-opacity:1; 
stroke-linecap:round; stroke-linejoin:round;">
</g>
<g style="fill:#FFFFFF; fill-opacity:1.0; 
stroke:#FFFFFF; stroke-width:39.3701; stroke-opacity:1; 
stroke-linecap:round; stroke-linejoin:round;">
<circle cx="57250" cy="32250" r="160.315" /> 
<circle cx="57250" cy="33250" r="160.315" /> 
<circle cx="56250" cy="32250" r="160.315" /> 
<circle cx="56250" cy="33250" r="160.315" /> 
<circle cx="55250" cy="32250" r="160.315" /> 
<circle cx="55250" cy="33250" r="160.315" /> 
<circle cx="54250" cy="32250" r="160.315" /> 
<circle cx="54250" cy="33250" r="160.315" /> 
<circle cx="53250" cy="32250" r="160.315" /> 
<circle cx="53250" cy="33250" r="160.315" /> 
</g> 
</svg>
