<?xml version="1.0" standalone="no"?>
 <!DOCTYPE svg PUBLIC "-//W3C//DTD SVG 1.1//EN" 
 "http://www.w3.org/Graphics/SVG/1.1/DTD/svg11.dtd"> 
<svg xmlns="http://www.w3.org/2000/svg" version="1.1" 
    width="29.7002cm" height="21.0007cm" viewBox="0 0 116930 82680 ">
<title>SVG Picture created as minuterie-F_Cu.svg date 2013/11/04 19:35:23 </title>
  <desc>Picture generated by PCBNEW </desc>
<g style="fill:#000000; fill-opacity:1;stroke:#000000; stroke-opacity:1;
stroke-linecap:round; stroke-linejoin:round; "
 transform="translate(0 0) scale(1 1)">
</g>
<g style="fill:#000000; fill-opacity:0.0; 
stroke:#000000; stroke-width:39.3701; stroke-opacity:1; 
stroke-linecap:round; stroke-linejoin:round;">
<rect x="-845466" y="-845466" width="0" height="0" rx="0" />
<rect x="-845466" y="-845466" width="0" height="0" rx="0" />
<path d="M-845466 -845466
L-845466 -845466
" />
<path d="M-845466 -845466
L-845466 -845466
" />
<path d="M-845466 -845466
L-845466 -845466
" />
<path d="M-845466 -845466
L-845466 -845466
" />
<path d="M-845466 -845466
L-845466 -845466
" />
<path d="M-845353 -845227
L-845269 -845199
L-845128 -845199
L-845072 -845227
L-845044 -845255
L-845016 -845311
L-845016 -845367
L-845044 -845423
L-845072 -845451
L-845128 845451
L-845241 845423
L-845297 845395
L-845325 845367
L-845353 845311
L-845353 845255
L-845325 845199
L-845297 845171
L-845241 845142
L-845100 845142
L-845016 845171
" />
<path d="M-844763 -845199
L-844763 845142
" />
<path d="M-844510 -845199
L-844510 845423
L-844538 845367
L-844595 845339
L-844679 845339
L-844735 845367
L-844763 845395
" />
<path d="M-844005 -845227
L-844061 -845199
L-844173 -845199
L-844229 -845227
L-844257 -845283
L-844257 845423
L-844229 845367
L-844173 845339
L-844061 845339
L-844005 845367
L-843976 845423
L-843976 -845451
L-844257 -845395
" />
<path d="M-843499 -845227
L-843555 -845199
L-843667 -845199
L-843724 -845227
L-843752 -845283
L-843752 845423
L-843724 845367
L-843667 845339
L-843555 845339
L-843499 845367
L-843471 845423
L-843471 -845451
L-843752 -845395
" />
<path d="M-843302 845339
L-843077 845339
" />
<path d="M-843218 845142
L-843218 -845283
L-843190 -845227
L-843134 -845199
L-843077 -845199
" />
<path d="M-842881 -845255
L-842853 -845227
L-842881 -845199
L-842909 -845227
L-842881 -845255
L-842881 -845199
" />
<path d="M-842881 845367
L-842853 845395
L-842881 845423
L-842909 845395
L-842881 845367
L-842881 845423
" />
<path d="M-841729 845114
L-842235 -845058
" />
<path d="M-841532 -845199
L-841532 845142
" />
<path d="M-841279 -845199
L-841279 845423
L-841307 845367
L-841364 845339
L-841448 845339
L-841504 845367
L-841532 845395
" />
<path d="M-840914 -845199
L-840970 -845227
L-840998 -845255
L-841026 -845311
L-841026 845451
L-840998 845395
L-840970 845367
L-840914 845339
L-840830 845339
L-840774 845367
L-840746 845395
L-840717 845451
L-840717 -845311
L-840746 -845255
L-840774 -845227
L-840830 -845199
L-840914 -845199
" />
<path d="M-840465 -845199
L-840465 845339
" />
<path d="M-840465 845395
L-840436 845367
L-840380 845339
L-840296 845339
L-840240 845367
L-840212 845423
L-840212 -845199
" />
<path d="M-840212 845423
L-840184 845367
L-840127 845339
L-840043 845339
L-839987 845367
L-839959 845423
L-839959 -845199
" />
<path d="M-839453 -845227
L-839509 -845199
L-839622 -845199
L-839678 -845227
L-839706 -845283
L-839706 845423
L-839678 845367
L-839622 845339
L-839509 845339
L-839453 845367
L-839425 845423
L-839425 -845451
L-839706 -845395
" />
<path d="M-838751 845114
L-839256 -845058
" />
<path d="M-838610 845339
L-838470 -845199
" />
<path d="M-838329 845339
L-838470 -845199
L-838526 -845058
L-838554 -845030
L-838610 -845002
" />
<path d="M-838020 -845199
L-838076 -845227
L-838105 -845255
L-838133 -845311
L-838133 845451
L-838105 845395
L-838076 845367
L-838020 845339
L-837936 845339
L-837880 845367
L-837852 845395
L-837824 845451
L-837824 -845311
L-837852 -845255
L-837880 -845227
L-837936 -845199
L-838020 -845199
" />
<path d="M-837318 845339
L-837318 -845114
L-837346 -845058
L-837374 -845030
L-837430 -845002
L-837515 -845002
L-837571 -845030
" />
<path d="M-837318 -845227
L-837374 -845199
L-837486 -845199
L-837543 -845227
L-837571 -845255
L-837599 -845311
L-837599 845451
L-837571 845395
L-837543 845367
L-837486 845339
L-837374 845339
L-837318 845367
" />
<path d="M-836616 845114
L-837121 -845058
" />
<path d="M-836503 845142
L-836166 845142
" />
<path d="M-836335 -845199
L-836335 845142
" />
<path d="M-835632 -845199
L-835829 845451
" />
<path d="M-835969 -845199
L-835969 845142
L-835745 845142
L-835688 845171
L-835660 845199
L-835632 845255
L-835632 845339
L-835660 845395
L-835688 845423
L-835745 845451
L-835969 845451
" />
<path d="M-835295 -845199
L-835351 -845227
L-835379 -845255
L-835407 -845311
L-835407 845451
L-835379 845395
L-835351 845367
L-835295 845339
L-835211 845339
L-835155 845367
L-835126 845395
L-835098 845451
L-835098 -845311
L-835126 -845255
L-835155 -845227
L-835211 -845199
L-835295 -845199
" />
<path d="M-834761 -845199
L-834817 -845227
L-834846 -845283
L-834846 845142
" />
<path d="M-834452 -845199
L-834508 -845227
L-834536 -845283
L-834536 845142
" />
<path d="M-833806 845114
L-834312 -845058
" />
<path d="M-833609 845339
L-833609 -845002
" />
<path d="M-833609 845367
L-833553 845339
L-833441 845339
L-833385 845367
L-833356 845395
L-833328 845451
L-833328 -845311
L-833356 -845255
L-833385 -845227
L-833441 -845199
L-833553 -845199
L-833609 -845227
" />
<path d="M-833076 -845199
L-833076 845339
" />
<path d="M-833076 845451
L-833047 845395
L-833019 845367
L-832963 845339
L-832907 845339
" />
<path d="M-832626 -845199
L-832682 -845227
L-832710 -845255
L-832738 -845311
L-832738 845451
L-832710 845395
L-832682 845367
L-832626 845339
L-832542 845339
L-832486 845367
L-832457 845395
L-832429 845451
L-832429 -845311
L-832457 -845255
L-832486 -845227
L-832542 -845199
L-832626 -845199
" />
<path d="M-832176 845339
L-832176 -845086
L-832205 -845030
L-832261 -845002
L-832289 -845002
" />
<path d="M-832176 845142
L-832205 845171
L-832176 845199
L-832148 845171
L-832176 845142
L-832176 845199
" />
<path d="M-831671 -845227
L-831727 -845199
L-831839 -845199
L-831896 -845227
L-831924 -845283
L-831924 845423
L-831896 845367
L-831839 845339
L-831727 845339
L-831671 845367
L-831643 845423
L-831643 -845451
L-831924 -845395
" />
<path d="M-831474 845339
L-831249 845339
" />
<path d="M-831390 845142
L-831390 -845283
L-831362 -845227
L-831306 -845199
L-831249 -845199
" />
<path d="M-831081 -845227
L-831025 -845199
L-830912 -845199
L-830856 -845227
L-830828 -845283
L-830828 -845311
L-830856 -845367
L-830912 -845395
L-830996 -845395
L-831053 -845423
L-831081 845451
L-831081 845423
L-831053 845367
L-830996 845339
L-830912 845339
L-830856 845367
" />
<path d="M-830154 845114
L-830659 -845058
" />
<path d="M-830041 845142
L-829704 845142
" />
<path d="M-829873 -845199
L-829873 845142
" />
<path d="M-829170 -845199
L-829367 845451
" />
<path d="M-829507 -845199
L-829507 845142
L-829283 845142
L-829226 845171
L-829198 845199
L-829170 845255
L-829170 845339
L-829198 845395
L-829226 845423
L-829283 845451
L-829507 845451
" />
<path d="M-828833 -845199
L-828889 -845227
L-828917 -845255
L-828946 -845311
L-828946 845451
L-828917 845395
L-828889 845367
L-828833 845339
L-828749 845339
L-828693 845367
L-828665 845395
L-828636 845451
L-828636 -845311
L-828665 -845255
L-828693 -845227
L-828749 -845199
L-828833 -845199
" />
<path d="M-828440 845339
L-828299 -845199
" />
<path d="M-828159 845339
L-828299 -845199
L-828356 -845058
L-828384 -845030
L-828440 -845002
" />
<path d="M-827513 845199
L-827485 845171
L-827428 845142
L-827288 845142
L-827232 845171
L-827204 845199
L-827176 845255
L-827176 845311
L-827204 845395
L-827541 -845199
L-827176 -845199
" />
<path d="M-826501 845114
L-827007 -845058
" />
<path d="M-826080 -845227
L-826136 -845199
L-826248 -845199
L-826305 -845227
L-826333 -845283
L-826333 845423
L-826305 845367
L-826248 845339
L-826136 845339
L-826080 845367
L-826052 845423
L-826052 -845451
L-826333 -845395
" />
<path d="M-825715 -845199
L-825771 -845227
L-825799 -845283
L-825799 845142
" />
<path d="M-825265 -845227
L-825321 -845199
L-825434 -845199
L-825490 -845227
L-825518 -845283
L-825518 845423
L-825490 845367
L-825434 845339
L-825321 845339
L-825265 845367
L-825237 845423
L-825237 -845451
L-825518 -845395
" />
<path d="M-824731 -845227
L-824787 -845199
L-824900 -845199
L-824956 -845227
L-824984 -845255
L-825012 -845311
L-825012 845451
L-824984 845395
L-824956 845367
L-824900 845339
L-824787 845339
L-824731 845367
" />
<path d="M-824057 845114
L-824563 -845058
" />
<path d="M-823860 -845199
L-823860 845339
" />
<path d="M-823860 845395
L-823832 845367
L-823776 845339
L-823692 845339
L-823636 845367
L-823607 845423
L-823607 -845199
" />
<path d="M-823607 845423
L-823579 845367
L-823523 845339
L-823439 845339
L-823383 845367
L-823355 845423
L-823355 -845199
" />
<path d="M-823074 -845199
L-823074 845339
" />
<path d="M-823074 845142
L-823102 845171
L-823074 845199
L-823046 845171
L-823074 845142
L-823074 845199
" />
<path d="M-822793 845339
L-822793 -845199
" />
<path d="M-822793 845395
L-822765 845367
L-822708 845339
L-822624 845339
L-822568 845367
L-822540 845423
L-822540 -845199
" />
<path d="M-822006 845339
L-822006 -845199
" />
<path d="M-822259 845339
L-822259 -845283
L-822231 -845227
L-822175 -845199
L-822090 -845199
L-822034 -845227
L-822006 -845255
" />
<path d="M-821809 845339
L-821585 845339
" />
<path d="M-821725 845142
L-821725 -845283
L-821697 -845227
L-821641 -845199
L-821585 -845199
" />
<path d="M-821163 -845227
L-821219 -845199
L-821332 -845199
L-821388 -845227
L-821416 -845283
L-821416 845423
L-821388 845367
L-821332 845339
L-821219 845339
L-821163 845367
L-821135 845423
L-821135 -845451
L-821416 -845395
" />
<path d="M-820882 -845199
L-820882 845339
" />
<path d="M-820882 845451
L-820854 845395
L-820826 845367
L-820770 845339
L-820714 845339
" />
<path d="M-820517 -845199
L-820517 845339
" />
<path d="M-820517 845142
L-820545 845171
L-820517 845199
L-820489 845171
L-820517 845142
L-820517 845199
" />
<path d="M-820011 -845227
L-820067 -845199
L-820180 -845199
L-820236 -845227
L-820264 -845283
L-820264 845423
L-820236 845367
L-820180 845339
L-820067 845339
L-820011 845367
L-819983 845423
L-819983 -845451
L-820264 -845395
" />
<path d="M-819730 -845255
L-819702 -845227
L-819730 -845199
L-819758 -845227
L-819730 -845255
L-819730 -845199
" />
<path d="M-819449 -845199
L-819449 845142
" />
<path d="M-819449 845367
L-819393 845339
L-819281 845339
L-819225 845367
L-819196 845395
L-819168 845451
L-819168 -845311
L-819196 -845255
L-819225 -845227
L-819281 -845199
L-819393 -845199
L-819449 -845227
" />
<path d="M-818916 -845199
L-818916 845339
" />
<path d="M-818916 845451
L-818887 845395
L-818859 845367
L-818803 845339
L-818747 845339
" />
<path d="M-818297 -845199
L-818297 845142
" />
<path d="M-818297 -845227
L-818354 -845199
L-818466 -845199
L-818522 -845227
L-818550 -845255
L-818578 -845311
L-818578 845451
L-818550 845395
L-818522 845367
L-818466 845339
L-818354 845339
L-818297 845367
" />
<path d="M-845128 845423
L-845325 845423
" />
<path d="M-845325 -845199
L-845325 845142
L-845044 845142
" />
<path d="M-844819 -845199
L-844819 845339
" />
<path d="M-844819 845142
L-844847 845171
L-844819 845199
L-844791 845171
L-844819 845142
L-844819 845199
" />
<path d="M-844454 -845199
L-844510 -845227
L-844538 -845283
L-844538 845142
" />
<path d="M-844005 -845227
L-844061 -845199
L-844173 -845199
L-844229 -845227
L-844257 -845283
L-844257 845423
L-844229 845367
L-844173 845339
L-844061 845339
L-844005 845367
L-843976 845423
L-843976 -845451
L-844257 -845395
" />
<path d="M-843724 -845255
L-843696 -845227
L-843724 -845199
L-843752 -845227
L-843724 -845255
L-843724 -845199
" />
<path d="M-843724 845367
L-843696 845395
L-843724 845423
L-843752 845395
L-843724 845367
L-843724 845423
" />
</g>
<g style="fill:#000000; fill-opacity:0.0; 
stroke:#000000; stroke-width:118; stroke-opacity:1; 
stroke-linecap:round; stroke-linejoin:round;">
<path d="M-845409 845142
L-845072 845142
" />
<path d="M-845241 -845199
L-845241 845142
" />
<path d="M-844876 -845199
L-844876 845339
" />
<path d="M-844876 845142
L-844904 845171
L-844876 845199
L-844847 845171
L-844876 845142
L-844876 845199
" />
<path d="M-844679 845339
L-844454 845339
" />
<path d="M-844595 845142
L-844595 -845283
L-844566 -845227
L-844510 -845199
L-844454 -845199
" />
<path d="M-844173 -845199
L-844229 -845227
L-844257 -845283
L-844257 845142
" />
<path d="M-843724 -845227
L-843780 -845199
L-843892 -845199
L-843948 -845227
L-843976 -845283
L-843976 845423
L-843948 845367
L-843892 845339
L-843780 845339
L-843724 845367
L-843696 845423
L-843696 -845451
L-843976 -845395
" />
<path d="M-843443 -845255
L-843415 -845227
L-843443 -845199
L-843471 -845227
L-843443 -845255
L-843443 -845199
" />
<path d="M-843443 845367
L-843415 845395
L-843443 845423
L-843471 845395
L-843443 845367
L-843443 845423
" />
</g>
<g style="fill:#000000; fill-opacity:0.0; 
stroke:#000000; stroke-width:39.3701; stroke-opacity:1; 
stroke-linecap:round; stroke-linejoin:round;">
<path d="M-845325 -845199
L-845325 845142
" />
<path d="M-844791 -845199
L-844791 845142
" />
<path d="M-844791 -845227
L-844847 -845199
L-844960 -845199
L-845016 -845227
L-845044 -845255
L-845072 -845311
L-845072 845451
L-845044 845395
L-845016 845367
L-844960 845339
L-844847 845339
L-844791 845367
" />
<path d="M-844510 -845255
L-844482 -845227
L-844510 -845199
L-844538 -845227
L-844510 -845255
L-844510 -845199
" />
<path d="M-844510 845367
L-844482 845395
L-844510 845423
L-844538 845395
L-844510 845367
L-844510 845423
" />
<path d="M-843471 -845199
L-843808 -845199
" />
<path d="M-843639 -845199
L-843639 845142
L-843696 845227
L-843752 845283
L-843808 845311
" />
<path d="M-842796 845114
L-843302 -845058
" />
<path d="M-842291 -845199
L-842628 -845199
" />
<path d="M-842459 -845199
L-842459 845142
L-842516 845227
L-842572 845283
L-842628 845311
" />
<path d="M-845353 -845227
L-845269 -845199
L-845128 -845199
L-845072 -845227
L-845044 -845255
L-845016 -845311
L-845016 -845367
L-845044 -845423
L-845072 -845451
L-845128 845451
L-845241 845423
L-845297 845395
L-845325 845367
L-845353 845311
L-845353 845255
L-845325 845199
L-845297 845171
L-845241 845142
L-845100 845142
L-845016 845171
" />
<path d="M-844763 -845199
L-844763 845339
" />
<path d="M-844763 845142
L-844791 845171
L-844763 845199
L-844735 845171
L-844763 845142
L-844763 845199
" />
<path d="M-844538 845339
L-844229 845339
L-844538 -845199
L-844229 -845199
" />
<path d="M-843780 -845227
L-843836 -845199
L-843948 -845199
L-844005 -845227
L-844033 -845283
L-844033 845423
L-844005 845367
L-843948 845339
L-843836 845339
L-843780 845367
L-843752 845423
L-843752 -845451
L-844033 -845395
" />
<path d="M-843499 -845255
L-843471 -845227
L-843499 -845199
L-843527 -845227
L-843499 -845255
L-843499 -845199
" />
<path d="M-843499 845367
L-843471 845395
L-843499 845423
L-843527 845395
L-843499 845367
L-843499 845423
" />
<path d="M-842796 -845367
L-842516 -845367
" />
<path d="M-842853 -845199
L-842656 845142
L-842459 -845199
" />
<path d="M-842010 845339
L-842010 -845199
" />
<path d="M-842150 845114
L-842291 -845395
L-841926 -845395
" />
</g>
<g style="fill:#000000; fill-opacity:0.0; 
stroke:#000000; stroke-width:118; stroke-opacity:1; 
stroke-linecap:round; stroke-linejoin:round;">
<path d="M-844988 -845199
L-845185 845451
" />
<path d="M-845325 -845199
L-845325 845142
L-845100 845142
L-845044 845171
L-845016 845199
L-844988 845255
L-844988 845339
L-845016 845395
L-845044 845423
L-845100 845451
L-845325 845451
" />
<path d="M-844510 -845227
L-844566 -845199
L-844679 -845199
L-844735 -845227
L-844763 -845283
L-844763 845423
L-844735 845367
L-844679 845339
L-844566 845339
L-844510 845367
L-844482 845423
L-844482 -845451
L-844763 -845395
" />
<path d="M-844286 845339
L-844145 -845199
L-844005 845339
" />
<path d="M-843780 -845255
L-843752 -845227
L-843780 -845199
L-843808 -845227
L-843780 -845255
L-843780 -845199
" />
<path d="M-843780 845367
L-843752 845395
L-843780 845423
L-843808 845395
L-843780 845367
L-843780 845423
" />
</g>
<g style="fill:#000000; fill-opacity:0.0; 
stroke:#000000; stroke-width:39.3701; stroke-opacity:1; 
stroke-linecap:round; stroke-linejoin:round;">
<path d="M-845325 -845199
L-845325 845142
" />
<path d="M-844988 -845199
L-845241 845395
" />
<path d="M-844988 845142
L-845325 -845451
" />
<path d="M-844735 -845199
L-844735 845339
" />
<path d="M-844735 845142
L-844763 845171
L-844735 845199
L-844707 845171
L-844735 845142
L-844735 845199
" />
<path d="M-844117 -845255
L-844145 -845227
L-844229 -845199
L-844286 -845199
L-844370 -845227
L-844426 -845283
L-844454 -845339
L-844482 -845451
L-844482 845395
L-844454 845283
L-844426 845227
L-844370 845171
L-844286 845142
L-844229 845142
L-844145 845171
L-844117 845199
" />
<path d="M-843611 -845199
L-843611 845423
L-843639 845367
L-843696 845339
L-843808 845339
L-843864 845367
" />
<path d="M-843611 -845227
L-843667 -845199
L-843808 -845199
L-843864 -845227
L-843892 -845283
L-843892 -845339
L-843864 -845395
L-843808 -845423
L-843667 -845423
L-843611 -845451
" />
<path d="M-843077 -845199
L-843077 845142
" />
<path d="M-843077 -845227
L-843134 -845199
L-843246 -845199
L-843302 -845227
L-843330 -845255
L-843358 -845311
L-843358 845451
L-843330 845395
L-843302 845367
L-843246 845339
L-843134 845339
L-843077 845367
" />
<path d="M-842347 845423
L-842150 845423
" />
<path d="M-842066 -845199
L-842347 -845199
L-842347 845142
L-842066 845142
" />
<path d="M-841813 -845255
L-841785 -845227
L-841813 -845199
L-841841 -845227
L-841813 -845255
L-841813 -845199
" />
<path d="M-841532 -845199
L-841532 845142
L-841392 845142
L-841307 845171
L-841251 845227
L-841223 845283
L-841195 845395
L-841195 -845451
L-841223 -845339
L-841251 -845283
L-841307 -845227
L-841392 -845199
L-841532 -845199
" />
<path d="M-840942 -845255
L-840914 -845227
L-840942 -845199
L-840970 -845227
L-840942 -845255
L-840942 -845199
" />
<path d="M-840689 -845367
L-840408 -845367
" />
<path d="M-840746 -845199
L-840549 845142
L-840352 -845199
" />
<path d="M-840156 -845255
L-840127 -845227
L-840156 -845199
L-840184 -845227
L-840156 -845255
L-840156 -845199
" />
<path d="M-838976 845339
L-838976 -845002
" />
<path d="M-838976 845367
L-838919 845339
L-838807 845339
L-838751 845367
L-838723 845395
L-838695 845451
L-838695 -845311
L-838723 -845255
L-838751 -845227
L-838807 -845199
L-838919 -845199
L-838976 -845227
" />
<path d="M-838189 -845227
L-838245 -845199
L-838357 -845199
L-838414 -845227
L-838442 -845255
L-838470 -845311
L-838470 845451
L-838442 845395
L-838414 845367
L-838357 845339
L-838245 845339
L-838189 845367
" />
<path d="M-837936 -845199
L-837936 845142
" />
<path d="M-837936 845367
L-837880 845339
L-837767 845339
L-837711 845367
L-837683 845395
L-837655 845451
L-837655 -845311
L-837683 -845255
L-837711 -845227
L-837767 -845199
L-837880 -845199
L-837936 -845227
" />
<path d="M-837402 845339
L-837402 -845199
" />
<path d="M-837402 845395
L-837374 845367
L-837318 845339
L-837234 845339
L-837177 845367
L-837149 845423
L-837149 -845199
" />
<path d="M-836644 -845227
L-836700 -845199
L-836812 -845199
L-836868 -845227
L-836896 -845283
L-836896 845423
L-836868 845367
L-836812 845339
L-836700 845339
L-836644 845367
L-836616 845423
L-836616 -845451
L-836896 -845395
" />
<path d="M-836419 845339
L-836306 -845199
L-836194 845451
L-836082 -845199
L-835969 845339
" />
<path d="M-835126 -844974
L-835155 -845002
L-835211 -845086
L-835239 -845142
L-835267 -845227
L-835295 -845367
L-835295 845451
L-835267 845311
L-835239 845227
L-835211 845171
L-835155 845086
L-835126 845058
" />
<path d="M-834930 845199
L-834902 845171
L-834846 845142
L-834705 845142
L-834649 845171
L-834621 845199
L-834593 845255
L-834593 845311
L-834621 845395
L-834958 -845199
L-834593 -845199
" />
<path d="M-834227 845142
L-834171 845142
L-834115 845171
L-834087 845199
L-834059 845255
L-834031 845367
L-834031 -845423
L-834059 -845311
L-834087 -845255
L-834115 -845227
L-834171 -845199
L-834227 -845199
L-834284 -845227
L-834312 -845255
L-834340 -845311
L-834368 -845423
L-834368 845367
L-834340 845255
L-834312 845199
L-834284 845171
L-834227 845142
" />
<path d="M-833469 -845199
L-833806 -845199
" />
<path d="M-833637 -845199
L-833637 845142
L-833694 845227
L-833750 845283
L-833806 845311
" />
<path d="M-833272 845142
L-832907 845142
L-833104 845367
L-833019 845367
L-832963 845395
L-832935 845423
L-832907 -845451
L-832907 -845311
L-832935 -845255
L-832963 -845227
L-833019 -845199
L-833188 -845199
L-833244 -845227
L-833272 -845255
" />
<path d="M-832654 -845423
L-832205 -845423
" />
<path d="M-831924 -845199
L-831924 845339
" />
<path d="M-831924 845395
L-831896 845367
L-831839 845339
L-831755 845339
L-831699 845367
L-831671 845423
L-831671 -845199
" />
<path d="M-831671 845423
L-831643 845367
L-831586 845339
L-831502 845339
L-831446 845367
L-831418 845423
L-831418 -845199
" />
<path d="M-830884 -845199
L-830884 845423
L-830912 845367
L-830968 845339
L-831081 845339
L-831137 845367
" />
<path d="M-830884 -845227
L-830940 -845199
L-831081 -845199
L-831137 -845227
L-831165 -845283
L-831165 -845339
L-831137 -845395
L-831081 -845423
L-830940 -845423
L-830884 -845451
" />
<path d="M-830603 -845199
L-830603 845339
" />
<path d="M-830603 845451
L-830575 845395
L-830547 845367
L-830491 845339
L-830435 845339
" />
<path d="M-830238 -845423
L-829788 -845423
" />
<path d="M-829198 -845199
L-829536 -845199
" />
<path d="M-829367 -845199
L-829367 845142
L-829423 845227
L-829479 845283
L-829536 845311
" />
<path d="M-829002 845142
L-828636 845142
L-828833 845367
L-828749 845367
L-828693 845395
L-828665 845423
L-828636 -845451
L-828636 -845311
L-828665 -845255
L-828693 -845227
L-828749 -845199
L-828917 -845199
L-828974 -845227
L-829002 -845255
" />
<path d="M-828440 -844974
L-828412 -845002
L-828356 -845086
L-828327 -845142
L-828299 -845227
L-828271 -845367
L-828271 845451
L-828299 845311
L-828327 845227
L-828356 845171
L-828412 845086
L-828440 845058
" />
<path d="M-827990 -845423
L-827541 -845423
" />
<path d="M-827344 845339
L-827119 845339
" />
<path d="M-827260 845142
L-827260 -845283
L-827232 -845227
L-827176 -845199
L-827119 -845199
" />
<path d="M-826698 -845227
L-826754 -845199
L-826866 -845199
L-826923 -845227
L-826951 -845283
L-826951 845423
L-826923 845367
L-826866 845339
L-826754 845339
L-826698 845367
L-826670 845423
L-826670 -845451
L-826951 -845395
" />
<path d="M-826445 -845227
L-826389 -845199
L-826276 -845199
L-826220 -845227
L-826192 -845283
L-826192 -845311
L-826220 -845367
L-826276 -845395
L-826361 -845395
L-826417 -845423
L-826445 845451
L-826445 845423
L-826417 845367
L-826361 845339
L-826276 845339
L-826220 845367
" />
<path d="M-826024 845339
L-825799 845339
" />
<path d="M-825939 845142
L-825939 -845283
L-825911 -845227
L-825855 -845199
L-825799 -845199
" />
<path d="M-825602 -845199
L-825602 845339
" />
<path d="M-825602 845142
L-825630 845171
L-825602 845199
L-825574 845171
L-825602 845142
L-825602 845199
" />
<path d="M-825321 845339
L-825321 -845199
" />
<path d="M-825321 845395
L-825293 845367
L-825237 845339
L-825153 845339
L-825096 845367
L-825068 845423
L-825068 -845199
" />
<path d="M-824535 845339
L-824535 -845114
L-824563 -845058
L-824591 -845030
L-824647 -845002
L-824731 -845002
L-824787 -845030
" />
<path d="M-824535 -845227
L-824591 -845199
L-824703 -845199
L-824759 -845227
L-824787 -845255
L-824816 -845311
L-824816 845451
L-824787 845395
L-824759 845367
L-824703 845339
L-824591 845339
L-824535 845367
" />
<path d="M-845325 -845199
L-845325 845142
L-845185 845142
L-845100 845171
L-845044 845227
L-845016 845283
L-844988 845395
L-844988 -845451
L-845016 -845339
L-845044 -845283
L-845100 -845227
L-845185 -845199
L-845325 -845199
" />
<path d="M-844482 -845199
L-844482 845423
L-844510 845367
L-844566 845339
L-844679 845339
L-844735 845367
" />
<path d="M-844482 -845227
L-844538 -845199
L-844679 -845199
L-844735 -845227
L-844763 -845283
L-844763 -845339
L-844735 -845395
L-844679 -845423
L-844538 -845423
L-844482 -845451
" />
<path d="M-844286 845339
L-844061 845339
" />
<path d="M-844201 845142
L-844201 -845283
L-844173 -845227
L-844117 -845199
L-844061 -845199
" />
<path d="M-843639 -845227
L-843696 -845199
L-843808 -845199
L-843864 -845227
L-843892 -845283
L-843892 845423
L-843864 845367
L-843808 845339
L-843696 845339
L-843639 845367
L-843611 845423
L-843611 -845451
L-843892 -845395
" />
<path d="M-843358 -845255
L-843330 -845227
L-843358 -845199
L-843386 -845227
L-843358 -845255
L-843358 -845199
" />
<path d="M-843358 845367
L-843330 845395
L-843358 845423
L-843386 845395
L-843358 845367
L-843358 845423
" />
<path d="M-842656 845199
L-842628 845171
L-842572 845142
L-842431 845142
L-842375 845171
L-842347 845199
L-842319 845255
L-842319 845311
L-842347 845395
L-842684 -845199
L-842319 -845199
" />
<path d="M-841616 845339
L-841616 -845199
" />
<path d="M-841616 845395
L-841588 845367
L-841532 845339
L-841448 845339
L-841392 845367
L-841364 845423
L-841364 -845199
" />
<path d="M-840998 -845199
L-841055 -845227
L-841083 -845255
L-841111 -845311
L-841111 845451
L-841083 845395
L-841055 845367
L-840998 845339
L-840914 845339
L-840858 845367
L-840830 845395
L-840802 845451
L-840802 -845311
L-840830 -845255
L-840858 -845227
L-840914 -845199
L-840998 -845199
" />
<path d="M-840605 845339
L-840465 -845199
L-840324 845339
" />
<path d="M-839678 845199
L-839650 845171
L-839594 845142
L-839453 845142
L-839397 845171
L-839369 845199
L-839341 845255
L-839341 845311
L-839369 845395
L-839706 -845199
L-839341 -845199
" />
<path d="M-838976 845142
L-838919 845142
L-838863 845171
L-838835 845199
L-838807 845255
L-838779 845367
L-838779 -845423
L-838807 -845311
L-838835 -845255
L-838863 -845227
L-838919 -845199
L-838976 -845199
L-839032 -845227
L-839060 -845255
L-839088 -845311
L-839116 -845423
L-839116 845367
L-839088 845255
L-839060 845199
L-839032 845171
L-838976 845142
" />
<path d="M-838217 -845199
L-838554 -845199
" />
<path d="M-838386 -845199
L-838386 845142
L-838442 845227
L-838498 845283
L-838554 845311
" />
<path d="M-838020 845142
L-837655 845142
L-837852 845367
L-837767 845367
L-837711 845395
L-837683 845423
L-837655 -845451
L-837655 -845311
L-837683 -845255
L-837711 -845227
L-837767 -845199
L-837936 -845199
L-837992 -845227
L-838020 -845255
" />
<path d="M-845466 -845466
L-845466 -845466
" />
<path d="M-845466 -845466
L-845466 -845466
" />
<path d="M-845466 -845466
L-845466 -845466
" />
</g>
<g style="fill:#000000; fill-opacity:0.0; 
stroke:#000000; stroke-width:120; stroke-opacity:1; 
stroke-linecap:round; stroke-linejoin:round;">
<path d="M67542 22961
L67885 22961
" />
<path d="M67714 23761
L67714 22961
" />
<path d="M68428 23761
L68228 23380
" />
<path d="M68085 23761
L68085 22961
L68314 22961
L68371 23000
L68400 23038
L68428 23114
L68428 23228
L68400 23304
L68371 23342
L68314 23380
L68085 23380
" />
<path d="M68771 23761
L68714 23723
L68685 23685
L68657 23609
L68657 23380
L68685 23304
L68714 23266
L68771 23228
L68857 23228
L68914 23266
L68942 23304
L68971 23380
L68971 23609
L68942 23685
L68914 23723
L68857 23761
L68771 23761
" />
<path d="M69314 23761
L69257 23723
L69228 23647
L69228 22961
" />
<path d="M69628 23761
L69571 23723
L69542 23647
L69542 22961
" />
</g>
<g style="fill:#000000; fill-opacity:0.0; 
stroke:#000000; stroke-width:39.3701; stroke-opacity:1; 
stroke-linecap:round; stroke-linejoin:round;">
</g>
<g style="fill:#000000; fill-opacity:1.0; 
stroke:#000000; stroke-width:39.3701; stroke-opacity:1; 
stroke-linecap:round; stroke-linejoin:round;">
<polyline style="fill-rule:evenodd;"
points="65298,26082
65298,25621
65409,25621
65409,26082
65298,26082
" /> 
<polyline style="fill-rule:evenodd;"
points="65554,26082
65554,25621
65665,25621
65665,26082
65554,26082
" /> 
<polyline style="fill-rule:evenodd;"
points="65810,26082
65810,25621
65921,25621
65921,26082
65810,26082
" /> 
<polyline style="fill-rule:evenodd;"
points="66066,26082
66066,25621
66177,25621
66177,26082
66066,26082
" /> 
<polyline style="fill-rule:evenodd;"
points="66322,26082
66322,25621
66433,25621
66433,26082
66322,26082
" /> 
<polyline style="fill-rule:evenodd;"
points="66578,26082
66578,25621
66689,25621
66689,26082
66578,26082
" /> 
<polyline style="fill-rule:evenodd;"
points="66834,26082
66834,25621
66945,25621
66945,26082
66834,26082
" /> 
<polyline style="fill-rule:evenodd;"
points="67090,26082
67090,25621
67201,25621
67201,26082
67090,26082
" /> 
<polyline style="fill-rule:evenodd;"
points="67090,23878
67090,23417
67201,23417
67201,23878
67090,23878
" /> 
<polyline style="fill-rule:evenodd;"
points="66834,23878
66834,23417
66945,23417
66945,23878
66834,23878
" /> 
<polyline style="fill-rule:evenodd;"
points="66578,23878
66578,23417
66689,23417
66689,23878
66578,23878
" /> 
<polyline style="fill-rule:evenodd;"
points="66322,23878
66322,23417
66433,23417
66433,23878
66322,23878
" /> 
<polyline style="fill-rule:evenodd;"
points="66066,23878
66066,23417
66177,23417
66177,23878
66066,23878
" /> 
<polyline style="fill-rule:evenodd;"
points="65810,23878
65810,23417
65921,23417
65921,23878
65810,23878
" /> 
<polyline style="fill-rule:evenodd;"
points="65554,23878
65554,23417
65665,23417
65665,23878
65554,23878
" /> 
<polyline style="fill-rule:evenodd;"
points="65298,23878
65298,23417
65409,23417
65409,23878
65298,23878
" /> 
<polyline style="fill-rule:evenodd;"
points="78704,27805
78704,27344
78825,27344
78825,27805
78704,27805
" /> 
<polyline style="fill-rule:evenodd;"
points="78959,27805
78959,27344
79080,27344
79080,27805
78959,27805
" /> 
<polyline style="fill-rule:evenodd;"
points="79219,27805
79219,27344
79340,27344
79340,27805
79219,27805
" /> 
<polyline style="fill-rule:evenodd;"
points="79474,27805
79474,27344
79595,27344
79595,27805
79474,27805
" /> 
<polyline style="fill-rule:evenodd;"
points="79474,26055
79474,25594
79595,25594
79595,26055
79474,26055
" /> 
<polyline style="fill-rule:evenodd;"
points="79219,26055
79219,25594
79340,25594
79340,26055
79219,26055
" /> 
<polyline style="fill-rule:evenodd;"
points="78959,26055
78959,25594
79080,25594
79080,26055
78959,26055
" /> 
<polyline style="fill-rule:evenodd;"
points="78704,26055
78704,25594
78825,25594
78825,26055
78704,26055
" /> 
<polyline style="fill-rule:evenodd;"
points="59450,27419
59450,28180
58049,28180
58049,27419
59450,27419
" /> 
<polyline style="fill-rule:evenodd;"
points="58930,24819
58930,25580
58569,25580
58569,24819
58930,24819
" /> 
<polyline style="fill-rule:evenodd;"
points="58030,24819
58030,25580
57669,25580
57669,24819
58030,24819
" /> 
<polyline style="fill-rule:evenodd;"
points="59830,24819
59830,25580
59469,25580
59469,24819
59830,24819
" /> 
<polyline style="fill-rule:evenodd;"
points="58280,22494
58280,23005
57969,23005
57969,22494
58280,22494
" /> 
<polyline style="fill-rule:evenodd;"
points="57530,22494
57530,23005
57219,23005
57219,22494
57530,22494
" /> 
<polyline style="fill-rule:evenodd;"
points="61969,26755
61969,26244
62280,26244
62280,26755
61969,26755
" /> 
<polyline style="fill-rule:evenodd;"
points="62719,26755
62719,26244
63030,26244
63030,26755
62719,26755
" /> 
<polyline style="fill-rule:evenodd;"
points="72969,26255
72969,25744
73280,25744
73280,26255
72969,26255
" /> 
<polyline style="fill-rule:evenodd;"
points="73719,26255
73719,25744
74030,25744
74030,26255
73719,26255
" /> 
<polyline style="fill-rule:evenodd;"
points="72994,22969
73505,22969
73505,23280
72994,23280
72994,22969
" /> 
<polyline style="fill-rule:evenodd;"
points="72994,23719
73505,23719
73505,24030
72994,24030
72994,23719
" /> 
<polyline style="fill-rule:evenodd;"
points="72530,25744
72530,26255
72219,26255
72219,25744
72530,25744
" /> 
<polyline style="fill-rule:evenodd;"
points="71780,25744
71780,26255
71469,26255
71469,25744
71780,25744
" /> 
<polyline style="fill-rule:evenodd;"
points="71994,22969
72505,22969
72505,23280
71994,23280
71994,22969
" /> 
<polyline style="fill-rule:evenodd;"
points="71994,23719
72505,23719
72505,24030
71994,24030
71994,23719
" /> 
<polyline style="fill-rule:evenodd;"
points="70530,25744
70530,26255
70219,26255
70219,25744
70530,25744
" /> 
<polyline style="fill-rule:evenodd;"
points="69780,25744
69780,26255
69469,26255
69469,25744
69780,25744
" /> 
<polyline style="fill-rule:evenodd;"
points="69994,22969
70505,22969
70505,23280
69994,23280
69994,22969
" /> 
<polyline style="fill-rule:evenodd;"
points="69994,23719
70505,23719
70505,24030
69994,24030
69994,23719
" /> 
<polyline style="fill-rule:evenodd;"
points="80219,28505
80219,27994
80530,27994
80530,28505
80219,28505
" /> 
<polyline style="fill-rule:evenodd;"
points="80969,28505
80969,27994
81280,27994
81280,28505
80969,28505
" /> 
<polyline style="fill-rule:evenodd;"
points="80219,27755
80219,27244
80530,27244
80530,27755
80219,27755
" /> 
<polyline style="fill-rule:evenodd;"
points="80969,27755
80969,27244
81280,27244
81280,27755
80969,27755
" /> 
<polyline style="fill-rule:evenodd;"
points="63469,26755
63469,26244
63780,26244
63780,26755
63469,26755
" /> 
<polyline style="fill-rule:evenodd;"
points="64219,26755
64219,26244
64530,26244
64530,26755
64219,26755
" /> 
<polyline style="fill-rule:evenodd;"
points="79469,25005
79469,24494
79780,24494
79780,25005
79469,25005
" /> 
<polyline style="fill-rule:evenodd;"
points="80219,25005
80219,24494
80530,24494
80530,25005
80219,25005
" /> 
<polyline style="fill-rule:evenodd;"
points="78530,24494
78530,25005
78219,25005
78219,24494
78530,24494
" /> 
<polyline style="fill-rule:evenodd;"
points="77780,24494
77780,25005
77469,25005
77469,24494
77780,24494
" /> 
<polyline style="fill-rule:evenodd;"
points="76901,24514
77098,24514
77098,24631
76901,24631
76901,24514
" /> 
<polyline style="fill-rule:evenodd;"
points="76901,24868
77098,24868
77098,24985
76901,24985
76901,24868
" /> 
<polyline style="fill-rule:evenodd;"
points="75901,24514
76098,24514
76098,24631
75901,24631
75901,24514
" /> 
<polyline style="fill-rule:evenodd;"
points="75901,24868
76098,24868
76098,24985
75901,24985
75901,24868
" /> 
<polyline style="fill-rule:evenodd;"
points="76401,24514
76598,24514
76598,24631
76401,24631
76401,24514
" /> 
<polyline style="fill-rule:evenodd;"
points="76401,24868
76598,24868
76598,24985
76401,24985
76401,24868
" /> 
<polyline style="fill-rule:evenodd;"
points="55950,27419
55950,28180
54549,28180
54549,27419
55950,27419
" /> 
<polyline style="fill-rule:evenodd;"
points="55430,24819
55430,25580
55069,25580
55069,24819
55430,24819
" /> 
<polyline style="fill-rule:evenodd;"
points="54530,24819
54530,25580
54169,25580
54169,24819
54530,24819
" /> 
<polyline style="fill-rule:evenodd;"
points="56330,24819
56330,25580
55969,25580
55969,24819
56330,24819
" /> 
<polyline style="fill-rule:evenodd;"
points="54780,22494
54780,23005
54469,23005
54469,22494
54780,22494
" /> 
<polyline style="fill-rule:evenodd;"
points="54030,22494
54030,23005
53719,23005
53719,22494
54030,22494
" /> 
<polyline style="fill-rule:evenodd;"
points="63469,24705
63469,24194
63780,24194
63780,24705
63469,24705
" /> 
<polyline style="fill-rule:evenodd;"
points="64219,24705
64219,24194
64530,24194
64530,24705
64219,24705
" /> 
<polyline style="fill-rule:evenodd;"
points="63469,25655
63469,25144
63780,25144
63780,25655
63469,25655
" /> 
<polyline style="fill-rule:evenodd;"
points="64219,25655
64219,25144
64530,25144
64530,25655
64219,25655
" /> 
<polyline style="fill-rule:evenodd;"
points="61969,24705
61969,24194
62280,24194
62280,24705
61969,24705
" /> 
<polyline style="fill-rule:evenodd;"
points="62719,24705
62719,24194
63030,24194
63030,24705
62719,24705
" /> 
<polyline style="fill-rule:evenodd;"
points="61969,25655
61969,25144
62280,25144
62280,25655
61969,25655
" /> 
<polyline style="fill-rule:evenodd;"
points="62719,25655
62719,25144
63030,25144
63030,25655
62719,25655
" /> 
<polyline style="fill-rule:evenodd;"
points="76219,23780
76219,23219
76780,23219
76780,23780
76219,23780
" /> 
<circle cx="76500" cy="22500" r="280.315" /> 
<circle cx="77500" cy="23500" r="280.315" /> 
<circle cx="77500" cy="22500" r="280.315" /> 
<circle cx="78500" cy="23500" r="280.315" /> 
<circle cx="78500" cy="22500" r="280.315" /> 
<circle cx="79500" cy="23500" r="280.315" /> 
<circle cx="79500" cy="22500" r="280.315" /> 
<circle cx="80500" cy="23500" r="280.315" /> 
<circle cx="80500" cy="22500" r="280.315" /> 
<polyline style="fill-rule:evenodd;"
points="54969,22080
54969,20919
55530,20919
55530,22080
54969,22080
" /> 
<polyline style="fill-rule:evenodd;"
points="55969,22080
55969,20919
56530,20919
56530,22080
55969,22080
" /> 
<polyline style="fill-rule:evenodd;"
points="52580,26530
51419,26530
51419,25969
52580,25969
52580,26530
" /> 
<polyline style="fill-rule:evenodd;"
points="52580,27530
51419,27530
51419,26969
52580,26969
52580,27530
" /> 
<polyline style="fill-rule:evenodd;"
points="52580,25530
51419,25530
51419,24969
52580,24969
52580,25530
" /> 
<polyline style="fill-rule:evenodd;"
points="51419,22969
52580,22969
52580,23530
51419,23530
51419,22969
" /> 
<polyline style="fill-rule:evenodd;"
points="51419,21969
52580,21969
52580,22530
51419,22530
51419,21969
" /> 
<polyline style="fill-rule:evenodd;"
points="51419,23969
52580,23969
52580,24530
51419,24530
51419,23969
" /> 
<polyline style="fill-rule:evenodd;"
points="67969,28580
67969,27419
68530,27419
68530,28580
67969,28580
" /> 
<polyline style="fill-rule:evenodd;"
points="68969,28580
68969,27419
69530,27419
69530,28580
68969,28580
" /> 
<polyline style="fill-rule:evenodd;"
points="69969,28580
69969,27419
70530,27419
70530,28580
69969,28580
" /> 
<polyline style="fill-rule:evenodd;"
points="70969,28580
70969,27419
71530,27419
71530,28580
70969,28580
" /> 
<polyline style="fill-rule:evenodd;"
points="71969,28580
71969,27419
72530,27419
72530,28580
71969,28580
" /> 
<polyline style="fill-rule:evenodd;"
points="72969,28580
72969,27419
73530,27419
73530,28580
72969,28580
" /> 
<polyline style="fill-rule:evenodd;"
points="70250,25396
69853,25000
70250,24603
70646,25000
70250,25396
" /> 
<polyline style="fill-rule:evenodd;"
points="72250,25396
71853,25000
72250,24603
72646,25000
72250,25396
" /> 
<polyline style="fill-rule:evenodd;"
points="73250,25146
72853,24750
73250,24353
73646,24750
73250,25146
" /> 
<polyline style="fill-rule:evenodd;"
points="70530,20919
70530,22080
69969,22080
69969,20919
70530,20919
" /> 
<polyline style="fill-rule:evenodd;"
points="71530,20919
71530,22080
70969,22080
70969,20919
71530,20919
" /> 
<polyline style="fill-rule:evenodd;"
points="72530,20919
72530,22080
71969,22080
71969,20919
72530,20919
" /> 
<polyline style="fill-rule:evenodd;"
points="73530,20919
73530,22080
72969,22080
72969,20919
73530,20919
" /> 
<polyline style="fill-rule:evenodd;"
points="74530,20919
74530,22080
73969,22080
73969,20919
74530,20919
" /> 
<polyline style="fill-rule:evenodd;"
points="69530,20919
69530,22080
68969,22080
68969,20919
69530,20919
" /> 
<polyline style="fill-rule:evenodd;"
points="68530,20919
68530,22080
67969,22080
67969,20919
68530,20919
" /> 
<polyline style="fill-rule:evenodd;"
points="67530,20919
67530,22080
66969,22080
66969,20919
67530,20919
" /> 
<polyline style="fill-rule:evenodd;"
points="66530,20919
66530,22080
65969,22080
65969,20919
66530,20919
" /> 
<polyline style="fill-rule:evenodd;"
points="65530,20919
65530,22080
64969,22080
64969,20919
65530,20919
" /> 
<polyline style="fill-rule:evenodd;"
points="63719,28580
63719,27419
64280,27419
64280,28580
63719,28580
" /> 
<polyline style="fill-rule:evenodd;"
points="64719,28580
64719,27419
65280,27419
65280,28580
64719,28580
" /> 
<polyline style="fill-rule:evenodd;"
points="65719,28580
65719,27419
66280,27419
66280,28580
65719,28580
" /> 
<polyline style="fill-rule:evenodd;"
points="66719,28580
66719,27419
67280,27419
67280,28580
66719,28580
" /> 
<polyline style="fill-rule:evenodd;"
points="52969,22080
52969,20919
53530,20919
53530,22080
52969,22080
" /> 
<polyline style="fill-rule:evenodd;"
points="53969,22080
53969,20919
54530,20919
54530,22080
53969,22080
" /> 
<polyline style="fill-rule:evenodd;"
points="60719,22080
60719,20919
61280,20919
61280,22080
60719,22080
" /> 
<polyline style="fill-rule:evenodd;"
points="61719,22080
61719,20919
62280,20919
62280,22080
61719,22080
" /> 
<polyline style="fill-rule:evenodd;"
points="64280,20919
64280,22080
63719,22080
63719,20919
64280,20919
" /> 
<polyline style="fill-rule:evenodd;"
points="63280,20919
63280,22080
62719,22080
62719,20919
63280,20919
" /> 
<polyline style="fill-rule:evenodd;"
points="58919,24230
58919,23269
59380,23269
59380,24230
58919,24230
" /> 
<polyline style="fill-rule:evenodd;"
points="60119,24230
60119,23269
60580,23269
60580,24230
60119,24230
" /> 
<polyline style="fill-rule:evenodd;"
points="55419,24230
55419,23269
55880,23269
55880,24230
55419,24230
" /> 
<polyline style="fill-rule:evenodd;"
points="56619,24230
56619,23269
57080,23269
57080,24230
56619,24230
" /> 
<polyline style="fill-rule:evenodd;"
points="71250,25146
70853,24750
71250,24353
71646,24750
71250,25146
" /> 
<circle cx="64000" cy="28000" r="137.795" /> 
<circle cx="68250" cy="28000" r="137.795" /> 
<circle cx="67250" cy="21500" r="137.795" /> 
<circle cx="79020" cy="24020" r="137.795" /> 
<circle cx="58000" cy="23750" r="137.795" /> 
<circle cx="66250" cy="21500" r="59.0551" /> 
<circle cx="52000" cy="27250" r="59.0551" /> 
<circle cx="52000" cy="22250" r="59.0551" /> 
<circle cx="65250" cy="21500" r="59.0551" /> 
<circle cx="73250" cy="24750" r="59.0551" /> 
<circle cx="68500" cy="24550" r="59.0551" /> 
<circle cx="71250" cy="24750" r="59.0551" /> 
<circle cx="68500" cy="24850" r="59.0551" /> 
<circle cx="72250" cy="25000" r="59.0551" /> 
<circle cx="68500" cy="24250" r="59.0551" /> 
<circle cx="55000" cy="26250" r="137.795" /> 
<circle cx="76500" cy="26250" r="137.795" /> 
<circle cx="71750" cy="26750" r="137.795" /> 
<circle cx="68250" cy="21500" r="137.795" /> 
<circle cx="56850" cy="23750" r="137.795" /> 
<circle cx="53250" cy="21500" r="137.795" /> 
<circle cx="81125" cy="27500" r="137.795" /> 
<circle cx="69250" cy="28000" r="137.795" /> 
<circle cx="65000" cy="28000" r="137.795" /> 
<circle cx="64000" cy="21500" r="137.795" /> 
<circle cx="61000" cy="21500" r="137.795" /> 
<circle cx="52000" cy="24750" r="137.795" /> 
</g>
<g style="fill:#000000; fill-opacity:1.0; 
stroke:#000000; stroke-width:157.48; stroke-opacity:1; 
stroke-linecap:round; stroke-linejoin:round;">
<path d="M66236 22986
L65213 22986
" />
<path d="M66378 23648
L66378 23128
" />
<path d="M66378 23128
L66236 22986
" />
</g>
<g style="fill:#000000; fill-opacity:1.0; 
stroke:#000000; stroke-width:314.961; stroke-opacity:1; 
stroke-linecap:round; stroke-linejoin:round;">
<path d="M62125 23975
L62350 23750
" />
<path d="M62350 23750
L64450 23750
" />
<path d="M64450 23750
L64800 23400
" />
<path d="M62125 23975
L62125 24450
" />
</g>
<g style="fill:#000000; fill-opacity:1.0; 
stroke:#000000; stroke-width:157.48; stroke-opacity:1; 
stroke-linecap:round; stroke-linejoin:round;">
<path d="M65213 22986
L64800 23400
" />
</g>
<g style="fill:#000000; fill-opacity:1.0; 
stroke:#000000; stroke-width:314.961; stroke-opacity:1; 
stroke-linecap:round; stroke-linejoin:round;">
<path d="M62125 24450
L61900 24450
" />
<path d="M61900 24450
L61500 24850
" />
<path d="M62125 25400
L61800 25400
" />
<path d="M61800 25400
L61500 25700
" />
<path d="M62125 26500
L61500 26500
" />
<path d="M61500 27750
L61750 28000
" />
<path d="M63250 28000
L64000 28000
" />
<path d="M61750 28000
L63250 28000
" />
<path d="M61500 26750
L61500 27750
" />
<path d="M61500 26250
L61500 26500
" />
<path d="M61500 26500
L61500 26750
" />
<path d="M58750 25200
L58750 26000
" />
<path d="M61500 26250
L61500 25700
" />
<path d="M61500 25700
L61500 25250
" />
<path d="M59000 26250
L61500 26250
" />
<path d="M58750 26000
L59000 26250
" />
<path d="M61500 24850
L61500 25250
" />
<path d="M58750 25200
L58750 24150
" />
<path d="M58750 24150
L59150 23750
" />
</g>
<g style="fill:#000000; fill-opacity:1.0; 
stroke:#000000; stroke-width:157.48; stroke-opacity:1; 
stroke-linecap:round; stroke-linejoin:round;">
<path d="M79020 25825
L79020 24750
" />
</g>
<g style="fill:#000000; fill-opacity:1.0; 
stroke:#000000; stroke-width:314.961; stroke-opacity:1; 
stroke-linecap:round; stroke-linejoin:round;">
<path d="M79020 24750
L79020 24020
" />
<path d="M56250 21500
L57750 21500
" />
<path d="M58125 21875
L58125 22750
" />
<path d="M57750 21500
L58125 21875
" />
<path d="M57850 25200
L57850 23900
" />
<path d="M57850 23900
L58000 23750
" />
<path d="M58000 23750
L58125 23625
" />
<path d="M58125 23625
L58125 22750
" />
<path d="M54625 22750
L56000 22750
" />
<path d="M56250 22500
L56250 21500
" />
<path d="M56000 22750
L56250 22500
" />
<path d="M54625 22750
L54625 23875
" />
<path d="M54350 24150
L54500 24000
" />
<path d="M54350 24150
L54350 25200
" />
<path d="M54625 23875
L54500 24000
" />
</g>
<g style="fill:#000000; fill-opacity:1.0; 
stroke:#000000; stroke-width:157.48; stroke-opacity:1; 
stroke-linecap:round; stroke-linejoin:round;">
<path d="M78765 27575
L78765 28250
" />
<path d="M78765 26735
L78765 27575
" />
<path d="M79020 26480
L78765 26735
" />
<path d="M79020 25825
L79020 26480
" />
<path d="M78765 25825
L78765 25140
" />
<path d="M78765 25140
L78375 24750
" />
</g>
<g style="fill:#000000; fill-opacity:1.0; 
stroke:#000000; stroke-width:314.961; stroke-opacity:1; 
stroke-linecap:round; stroke-linejoin:round;">
<path d="M78375 24750
L78375 24125
" />
<path d="M78500 24000
L78500 23500
" />
<path d="M78375 24125
L78500 24000
" />
</g>
<g style="fill:#000000; fill-opacity:1.0; 
stroke:#000000; stroke-width:157.48; stroke-opacity:1; 
stroke-linecap:round; stroke-linejoin:round;">
<path d="M79280 25825
L79280 25095
" />
<path d="M79280 25095
L79625 24750
" />
</g>
<g style="fill:#000000; fill-opacity:1.0; 
stroke:#000000; stroke-width:314.961; stroke-opacity:1; 
stroke-linecap:round; stroke-linejoin:round;">
<path d="M79500 23500
L79500 24000
" />
<path d="M79625 24125
L79500 24000
" />
<path d="M79625 24125
L79625 24750
" />
<path d="M76500 23500
L76500 24250
" />
</g>
<g style="fill:#000000; fill-opacity:1.0; 
stroke:#000000; stroke-width:157.48; stroke-opacity:1; 
stroke-linecap:round; stroke-linejoin:round;">
<path d="M76500 24250
L76500 24573
" />
</g>
<g style="fill:#000000; fill-opacity:1.0; 
stroke:#000000; stroke-width:314.961; stroke-opacity:1; 
stroke-linecap:round; stroke-linejoin:round;">
<path d="M76000 24250
L75500 23750
" />
</g>
<g style="fill:#000000; fill-opacity:1.0; 
stroke:#000000; stroke-width:157.48; stroke-opacity:1; 
stroke-linecap:round; stroke-linejoin:round;">
<path d="M76000 24573
L76000 24250
" />
</g>
<g style="fill:#000000; fill-opacity:1.0; 
stroke:#000000; stroke-width:314.961; stroke-opacity:1; 
stroke-linecap:round; stroke-linejoin:round;">
<path d="M75750 22500
L76500 22500
" />
<path d="M75500 22750
L75750 22500
" />
<path d="M75500 23750
L75500 22750
" />
<path d="M77000 24250
L77500 23750
" />
</g>
<g style="fill:#000000; fill-opacity:1.0; 
stroke:#000000; stroke-width:157.48; stroke-opacity:1; 
stroke-linecap:round; stroke-linejoin:round;">
<path d="M77000 24573
L77000 24250
" />
</g>
<g style="fill:#000000; fill-opacity:1.0; 
stroke:#000000; stroke-width:314.961; stroke-opacity:1; 
stroke-linecap:round; stroke-linejoin:round;">
<path d="M77500 23750
L77500 23500
" />
<path d="M54250 21500
L55250 21500
" />
</g>
<g style="fill:#000000; fill-opacity:1.0; 
stroke:#000000; stroke-width:157.48; stroke-opacity:1; 
stroke-linecap:round; stroke-linejoin:round;">
<path d="M72250 21500
L72250 22250
" />
<path d="M73250 22750
L73250 23125
" />
<path d="M73000 22500
L73250 22750
" />
<path d="M72500 22500
L73000 22500
" />
<path d="M72250 22250
L72500 22500
" />
<path d="M65610 25140
L66200 24550
" />
<path d="M66200 24550
L68500 24550
" />
<path d="M65610 25140
L65610 25852
" />
<path d="M73125 26000
L73125 26875
" />
<path d="M73250 27000
L73250 28000
" />
<path d="M73125 26875
L73250 27000
" />
<path d="M73125 26000
L73125 25625
" />
<path d="M73250 25500
L73250 24750
" />
<path d="M73125 25625
L73250 25500
" />
<path d="M73250 23875
L73250 24750
" />
<path d="M66378 25072
L66600 24850
" />
<path d="M66600 24850
L68500 24850
" />
<path d="M66378 25072
L66378 25852
" />
<path d="M71250 24750
L71250 25250
" />
<path d="M71250 25250
L71000 25500
" />
<path d="M71000 25500
L71000 26500
" />
<path d="M71000 26500
L71250 26750
" />
<path d="M71250 26750
L71250 28000
" />
<path d="M71250 24750
L71250 22750
" />
<path d="M70250 22250
L70500 22500
" />
<path d="M70500 22500
L71000 22500
" />
<path d="M71000 22500
L71250 22750
" />
<path d="M70250 21500
L70250 22250
" />
<path d="M69250 21500
L69250 22250
" />
<path d="M70250 22750
L70250 23125
" />
<path d="M70000 22500
L70250 22750
" />
<path d="M69500 22500
L70000 22500
" />
<path d="M69250 22250
L69500 22500
" />
<path d="M68250 25250
L69500 25250
" />
<path d="M66634 25366
L66750 25250
" />
<path d="M66750 25250
L68250 25250
" />
<path d="M66634 25852
L66634 25366
" />
<path d="M69750 25000
L70250 25000
" />
<path d="M69500 25250
L69750 25000
" />
<path d="M70375 26000
L70375 26875
" />
<path d="M70250 27000
L70250 28000
" />
<path d="M70375 26875
L70250 27000
" />
<path d="M70375 26000
L70375 25625
" />
<path d="M70250 25500
L70250 25000
" />
<path d="M70375 25625
L70250 25500
" />
<path d="M70250 23875
L70250 25000
" />
<path d="M73250 21500
L73250 22250
" />
<path d="M80500 21750
L80500 22500
" />
<path d="M80250 21500
L80500 21750
" />
<path d="M75750 21500
L80250 21500
" />
<path d="M74750 22500
L75750 21500
" />
<path d="M73500 22500
L74750 22500
" />
<path d="M73250 22250
L73500 22500
" />
<path d="M67146 25852
L67146 26854
" />
<path d="M67000 27000
L67000 28000
" />
<path d="M67146 26854
L67000 27000
" />
<path d="M71250 21500
L71250 22250
" />
<path d="M72250 22750
L72250 23125
" />
<path d="M72000 22500
L72250 22750
" />
<path d="M71500 22500
L72000 22500
" />
<path d="M71250 22250
L71500 22500
" />
<path d="M66634 24084
L66800 24250
" />
<path d="M66800 24250
L68500 24250
" />
<path d="M66634 24084
L66634 23648
" />
<path d="M72375 26000
L72375 26875
" />
<path d="M72250 27000
L72250 28000
" />
<path d="M72375 26875
L72250 27000
" />
<path d="M72375 26000
L72375 25625
" />
<path d="M72250 25500
L72250 25000
" />
<path d="M72375 25625
L72250 25500
" />
<path d="M72250 23875
L72250 25000
" />
<path d="M74250 21500
L75250 21500
" />
<path d="M81000 23500
L80500 23500
" />
<path d="M81250 23250
L81000 23500
" />
<path d="M81250 22000
L81250 23250
" />
<path d="M80500 21250
L81250 22000
" />
<path d="M75500 21250
L80500 21250
" />
<path d="M75250 21500
L75500 21250
" />
<path d="M66890 25852
L66890 26610
" />
<path d="M66000 27250
L66000 28000
" />
<path d="M66250 27000
L66000 27250
" />
<path d="M66500 27000
L66250 27000
" />
<path d="M66890 26610
L66500 27000
" />
</g>
<g style="fill:#000000; fill-opacity:1.0; 
stroke:#000000; stroke-width:314.961; stroke-opacity:1; 
stroke-linecap:round; stroke-linejoin:round;">
<path d="M76500 25750
L76500 26250
" />
<path d="M52000 23250
L53000 23250
" />
<path d="M53000 23250
L53000 26250
" />
<path d="M55250 25200
L55250 24150
" />
<path d="M55250 24150
L55650 23750
" />
<path d="M55250 25200
L55250 26000
" />
<path d="M55250 26000
L55000 26250
" />
<path d="M53500 26250
L53000 26250
" />
<path d="M55000 26250
L53500 26250
" />
<path d="M53000 26250
L52000 26250
" />
<path d="M76000 25250
L76000 25500
" />
</g>
<g style="fill:#000000; fill-opacity:1.0; 
stroke:#000000; stroke-width:157.48; stroke-opacity:1; 
stroke-linecap:round; stroke-linejoin:round;">
<path d="M76000 24927
L76000 25250
" />
</g>
<g style="fill:#000000; fill-opacity:1.0; 
stroke:#000000; stroke-width:314.961; stroke-opacity:1; 
stroke-linecap:round; stroke-linejoin:round;">
<path d="M76250 25750
L76500 25750
" />
<path d="M76000 25500
L76250 25750
" />
<path d="M77000 25250
L77000 25500
" />
</g>
<g style="fill:#000000; fill-opacity:1.0; 
stroke:#000000; stroke-width:157.48; stroke-opacity:1; 
stroke-linecap:round; stroke-linejoin:round;">
<path d="M77000 24927
L77000 25250
" />
<path d="M76500 25250
L76500 24927
" />
</g>
<g style="fill:#000000; fill-opacity:1.0; 
stroke:#000000; stroke-width:314.961; stroke-opacity:1; 
stroke-linecap:round; stroke-linejoin:round;">
<path d="M76500 25750
L76500 25250
" />
<path d="M76750 25750
L76500 25750
" />
<path d="M77000 25500
L76750 25750
" />
</g>
<g style="fill:#000000; fill-opacity:1.0; 
stroke:#000000; stroke-width:157.48; stroke-opacity:1; 
stroke-linecap:round; stroke-linejoin:round;">
<path d="M63000 21500
L63000 22250
" />
<path d="M67146 22646
L67146 23648
" />
<path d="M67000 22500
L67146 22646
" />
<path d="M63250 22500
L67000 22500
" />
<path d="M63000 22250
L63250 22500
" />
<path d="M66890 23648
L66890 22890
" />
<path d="M62000 22250
L62500 22750
" />
<path d="M62500 22750
L66750 22750
" />
<path d="M62000 22250
L62000 21500
" />
<path d="M66890 22890
L66750 22750
" />
<path d="M79535 25500
L79535 25465
" />
<path d="M79535 25465
L79750 25250
" />
</g>
<g style="fill:#000000; fill-opacity:1.0; 
stroke:#000000; stroke-width:314.961; stroke-opacity:1; 
stroke-linecap:round; stroke-linejoin:round;">
<path d="M64375 26500
L64750 26500
" />
<path d="M65000 26750
L65000 28000
" />
<path d="M64750 26500
L65000 26750
" />
</g>
<g style="fill:#000000; fill-opacity:1.0; 
stroke:#000000; stroke-width:157.48; stroke-opacity:1; 
stroke-linecap:round; stroke-linejoin:round;">
<path d="M71625 26000
L71625 26625
" />
<path d="M71625 26625
L71750 26750
" />
<path d="M66122 25852
L66122 26628
" />
<path d="M65000 27250
L65000 28000
" />
<path d="M65250 27000
L65000 27250
" />
<path d="M65750 27000
L65250 27000
" />
<path d="M66122 26628
L65750 27000
" />
<path d="M79020 27575
L79020 27230
" />
<path d="M79020 27230
L79280 26970
" />
<path d="M79535 25825
L79535 26715
" />
<path d="M79535 26715
L79500 26750
" />
<path d="M79280 26970
L79500 26750
" />
<path d="M79280 26970
L79280 27575
" />
<path d="M79280 27575
L79280 28530
" />
<path d="M79020 27575
L79020 28480
" />
<path d="M79535 25825
L79535 25500
" />
</g>
<g style="fill:#000000; fill-opacity:1.0; 
stroke:#000000; stroke-width:314.961; stroke-opacity:1; 
stroke-linecap:round; stroke-linejoin:round;">
<path d="M52000 25250
L52000 24750
" />
<path d="M52000 24750
L52000 24250
" />
</g>
<g style="fill:#000000; fill-opacity:1.0; 
stroke:#000000; stroke-width:157.48; stroke-opacity:1; 
stroke-linecap:round; stroke-linejoin:round;">
<path d="M65610 23648
L65610 24590
" />
<path d="M64800 25400
L64375 25400
" />
<path d="M65610 24590
L64800 25400
" />
<path d="M80000 28250
L80000 27750
" />
<path d="M80000 27500
L80375 27500
" />
<path d="M80000 27750
L80000 27500
" />
<path d="M79535 27575
L79535 28035
" />
<path d="M79750 28250
L80000 28250
" />
<path d="M80000 28250
L80375 28250
" />
<path d="M79535 28035
L79750 28250
" />
<path d="M65354 23648
L65354 24196
" />
<path d="M65100 24450
L64375 24450
" />
<path d="M65354 24196
L65100 24450
" />
<path d="M65866 25852
L65866 26384
" />
<path d="M63250 26000
L64750 26000
" />
<path d="M64750 26000
L65250 26500
" />
<path d="M65250 26500
L65750 26500
" />
<path d="M63250 26000
L63250 26500
" />
<path d="M65866 26384
L65750 26500
" />
<path d="M62875 26500
L63250 26500
" />
<path d="M63250 26500
L63625 26500
" />
<path d="M62875 25400
L63625 25400
" />
<path d="M63625 24450
L62875 24450
" />
</g>
<g style="fill:#000000; fill-opacity:1.0; 
stroke:#000000; stroke-width:39.3701; stroke-opacity:1; 
stroke-linecap:round; stroke-linejoin:round;">
<polyline style="fill-rule:evenodd;"
points="52062,24750
52050,24762
52050,25200
52057,25200
52057,25300
52050,25300
52050,25307
51950,25307
51950,25300
51942,25300
51942,25200
51950,25200
51950,24762
51937,24750
51950,24737
51950,24300
51942,24300
51942,24200
51950,24200
51950,24192
52050,24192
52050,24200
52057,24200
52057,24300
52050,24300
52050,24737
52062,24750
" /> 
</g>
<g style="fill:#000000; fill-opacity:0.0; 
stroke:#000000; stroke-width:100; stroke-opacity:1; 
stroke-linecap:round; stroke-linejoin:round;">
<polyline fill="none;"
points="52062,24750
52050,24762
52050,25200
52057,25200
52057,25300
52050,25300
52050,25307
51950,25307
51950,25300
51942,25300
51942,25200
51950,25200
51950,24762
51937,24750
51950,24737
51950,24300
51942,24300
51942,24200
51950,24200
51950,24192
52050,24192
52050,24200
52057,24200
52057,24300
52050,24300
52050,24737
52062,24750
" /> 
</g>
<g style="fill:#000000; fill-opacity:1.0; 
stroke:#000000; stroke-width:39.3701; stroke-opacity:1; 
stroke-linecap:round; stroke-linejoin:round;">
<polyline style="fill-rule:evenodd;"
points="54217,23706
54211,23711
54211,23711
54061,23861
53973,23994
53942,24150
53942,24150
53942,24653
53938,24658
53900,24750
53900,24849
53900,25649
53938,25741
54008,25811
54082,25842
53825,25842
53825,23212
53825,22800
53512,22800
53450,22862
53450,22975
53450,23074
53488,23166
53558,23236
53650,23275
53762,23275
53825,23212
53825,25842
53500,25842
53407,25842
53407,23250
53376,23094
53288,22961
53155,22873
53000,22842
52826,22842
52811,22808
52753,22749
52811,22691
52850,22599
52850,22500
52850,22329
52900,22350
53137,22350
53200,22287
53200,21550
52762,21550
52700,21612
52700,21720
52649,21700
52550,21700
51350,21700
51300,21720
51300,20800
52720,20800
52700,20850
52700,20949
52700,21387
52762,21450
53200,21450
53200,21442
53300,21442
53300,21450
53307,21450
53307,21550
53300,21550
53300,22287
53362,22350
53481,22350
53450,22425
53450,22524
53450,22637
53512,22700
53825,22700
53825,22692
53925,22692
53925,22700
53932,22700
53932,22800
53925,22800
53925,23212
53987,23275
54099,23275
54191,23236
54217,23211
54217,23706
" /> 
</g>
<g style="fill:#000000; fill-opacity:0.0; 
stroke:#000000; stroke-width:100; stroke-opacity:1; 
stroke-linecap:round; stroke-linejoin:round;">
<polyline fill="none;"
points="54217,23706
54211,23711
54211,23711
54061,23861
53973,23994
53942,24150
53942,24150
53942,24653
53938,24658
53900,24750
53900,24849
53900,25649
53938,25741
54008,25811
54082,25842
53825,25842
53825,23212
53825,22800
53512,22800
53450,22862
53450,22975
53450,23074
53488,23166
53558,23236
53650,23275
53762,23275
53825,23212
53825,25842
53500,25842
53407,25842
53407,23250
53376,23094
53288,22961
53155,22873
53000,22842
52826,22842
52811,22808
52753,22749
52811,22691
52850,22599
52850,22500
52850,22329
52900,22350
53137,22350
53200,22287
53200,21550
52762,21550
52700,21612
52700,21720
52649,21700
52550,21700
51350,21700
51300,21720
51300,20800
52720,20800
52700,20850
52700,20949
52700,21387
52762,21450
53200,21450
53200,21442
53300,21442
53300,21450
53307,21450
53307,21550
53300,21550
53300,22287
53362,22350
53481,22350
53450,22425
53450,22524
53450,22637
53512,22700
53825,22700
53825,22692
53925,22692
53925,22700
53932,22700
53932,22800
53925,22800
53925,23212
53987,23275
54099,23275
54191,23236
54217,23211
54217,23706
" /> 
</g>
<g style="fill:#000000; fill-opacity:1.0; 
stroke:#000000; stroke-width:39.3701; stroke-opacity:1; 
stroke-linecap:round; stroke-linejoin:round;">
<polyline style="fill-rule:evenodd;"
points="63470,28700
59720,28700
59720,28249
59720,28150
59720,27350
59681,27258
59611,27188
59519,27150
59420,27150
57980,27150
57888,27188
57818,27258
57780,27350
57780,27449
57780,28249
57818,28341
57888,28411
57980,28450
58079,28450
59519,28450
59611,28411
59681,28341
59720,28249
59720,28700
57350,28700
57350,24299
57350,24200
57350,23862
57350,23637
57350,23299
57350,23200
57325,23139
57325,22800
57325,22700
57325,22287
57262,22225
57150,22225
57058,22263
56988,22333
56950,22425
56950,22524
56950,22637
57012,22700
57325,22700
57325,22800
57012,22800
56950,22862
56950,22975
56950,23012
56900,23062
56900,23700
57287,23700
57350,23637
57350,23862
57287,23800
56900,23800
56900,24437
56962,24500
57149,24500
57241,24461
57311,24391
57350,24299
57350,28700
56800,28700
56800,24437
56800,23800
56800,23700
56800,23062
56737,23000
56550,23000
56458,23038
56388,23108
56350,23200
56350,23299
56350,23637
56412,23700
56800,23700
56800,23800
56412,23800
56350,23862
56350,24200
56350,24299
56388,24391
56458,24461
56550,24500
56737,24500
56800,24437
56800,28700
56600,28700
56600,25649
56600,25550
56600,25312
56600,25087
56600,24849
56600,24750
56561,24658
56491,24588
56399,24550
56262,24550
56200,24612
56200,25150
56537,25150
56600,25087
56600,25312
56537,25250
56200,25250
56200,25787
56262,25850
56399,25850
56491,25811
56561,25741
56600,25649
56600,28700
56220,28700
56220,28249
56220,28150
56220,27350
56181,27258
56111,27188
56019,27150
55920,27150
54480,27150
54388,27188
54318,27258
54280,27350
54280,27449
54280,28249
54318,28341
54388,28411
54480,28450
54579,28450
56019,28450
56111,28411
56181,28341
56220,28249
56220,28700
51300,28700
51300,27779
51350,27800
51449,27800
52649,27800
52741,27761
52811,27691
52850,27599
52850,27500
52850,26900
52811,26808
52753,26749
52811,26691
52826,26657
53000,26657
53500,26657
54999,26657
54999,26657
54999,26657
55000,26657
55000,26657
55000,26657
55080,26657
55155,26626
55230,26595
55288,26538
55345,26481
55345,26480
55538,26288
55538,26288
55538,26288
55626,26155
55657,26000
55657,26000
55657,25999
55657,25746
55661,25741
55700,25649
55738,25741
55808,25811
55900,25850
56037,25850
56100,25787
56100,25250
55762,25250
55700,25312
55700,25087
55762,25150
56100,25150
56100,24612
56037,24550
55900,24550
55808,24588
55738,24658
55700,24750
55700,24750
55661,24658
55657,24653
55657,24500
55949,24500
56041,24461
56111,24391
56150,24299
56150,24200
56150,23200
56122,23133
56155,23126
56288,23038
56538,22788
56538,22788
56538,22788
56626,22655
56657,22500
56657,22500
56657,22499
56657,22326
56691,22311
56761,22241
56800,22149
56800,22050
56800,21907
57581,21907
57717,22043
57717,22288
57691,22263
57599,22225
57487,22225
57425,22287
57425,22700
57432,22700
57432,22800
57425,22800
57425,23212
57487,23275
57599,23275
57691,23236
57717,23211
57717,23456
57711,23461
57654,23518
57654,23519
57561,23611
57473,23744
57442,23900
57442,23900
57442,24653
57438,24658
57400,24750
57400,24849
57400,25649
57438,25741
57508,25811
57600,25850
57699,25850
58099,25850
58191,25811
58261,25741
58300,25649
58338,25741
58342,25746
58342,25999
58342,26000
58373,26155
58461,26288
58711,26538
58711,26538
58711,26538
58844,26626
59000,26657
59000,26657
59000,26657
61092,26657
61092,26750
61092,27749
61092,27750
61123,27905
61211,28038
61461,28288
61461,28288
61461,28288
61594,28376
61750,28407
61750,28407
61750,28407
63250,28407
63450,28407
63450,28649
63470,28700
" /> 
</g>
<g style="fill:#000000; fill-opacity:0.0; 
stroke:#000000; stroke-width:100; stroke-opacity:1; 
stroke-linecap:round; stroke-linejoin:round;">
<polyline fill="none;"
points="63470,28700
59720,28700
59720,28249
59720,28150
59720,27350
59681,27258
59611,27188
59519,27150
59420,27150
57980,27150
57888,27188
57818,27258
57780,27350
57780,27449
57780,28249
57818,28341
57888,28411
57980,28450
58079,28450
59519,28450
59611,28411
59681,28341
59720,28249
59720,28700
57350,28700
57350,24299
57350,24200
57350,23862
57350,23637
57350,23299
57350,23200
57325,23139
57325,22800
57325,22700
57325,22287
57262,22225
57150,22225
57058,22263
56988,22333
56950,22425
56950,22524
56950,22637
57012,22700
57325,22700
57325,22800
57012,22800
56950,22862
56950,22975
56950,23012
56900,23062
56900,23700
57287,23700
57350,23637
57350,23862
57287,23800
56900,23800
56900,24437
56962,24500
57149,24500
57241,24461
57311,24391
57350,24299
57350,28700
56800,28700
56800,24437
56800,23800
56800,23700
56800,23062
56737,23000
56550,23000
56458,23038
56388,23108
56350,23200
56350,23299
56350,23637
56412,23700
56800,23700
56800,23800
56412,23800
56350,23862
56350,24200
56350,24299
56388,24391
56458,24461
56550,24500
56737,24500
56800,24437
56800,28700
56600,28700
56600,25649
56600,25550
56600,25312
56600,25087
56600,24849
56600,24750
56561,24658
56491,24588
56399,24550
56262,24550
56200,24612
56200,25150
56537,25150
56600,25087
56600,25312
56537,25250
56200,25250
56200,25787
56262,25850
56399,25850
56491,25811
56561,25741
56600,25649
56600,28700
56220,28700
56220,28249
56220,28150
56220,27350
56181,27258
56111,27188
56019,27150
55920,27150
54480,27150
54388,27188
54318,27258
54280,27350
54280,27449
54280,28249
54318,28341
54388,28411
54480,28450
54579,28450
56019,28450
56111,28411
56181,28341
56220,28249
56220,28700
51300,28700
51300,27779
51350,27800
51449,27800
52649,27800
52741,27761
52811,27691
52850,27599
52850,27500
52850,26900
52811,26808
52753,26749
52811,26691
52826,26657
53000,26657
53500,26657
54999,26657
54999,26657
54999,26657
55000,26657
55000,26657
55000,26657
55080,26657
55155,26626
55230,26595
55288,26538
55345,26481
55345,26480
55538,26288
55538,26288
55538,26288
55626,26155
55657,26000
55657,26000
55657,25999
55657,25746
55661,25741
55700,25649
55738,25741
55808,25811
55900,25850
56037,25850
56100,25787
56100,25250
55762,25250
55700,25312
55700,25087
55762,25150
56100,25150
56100,24612
56037,24550
55900,24550
55808,24588
55738,24658
55700,24750
55700,24750
55661,24658
55657,24653
55657,24500
55949,24500
56041,24461
56111,24391
56150,24299
56150,24200
56150,23200
56122,23133
56155,23126
56288,23038
56538,22788
56538,22788
56538,22788
56626,22655
56657,22500
56657,22500
56657,22499
56657,22326
56691,22311
56761,22241
56800,22149
56800,22050
56800,21907
57581,21907
57717,22043
57717,22288
57691,22263
57599,22225
57487,22225
57425,22287
57425,22700
57432,22700
57432,22800
57425,22800
57425,23212
57487,23275
57599,23275
57691,23236
57717,23211
57717,23456
57711,23461
57654,23518
57654,23519
57561,23611
57473,23744
57442,23900
57442,23900
57442,24653
57438,24658
57400,24750
57400,24849
57400,25649
57438,25741
57508,25811
57600,25850
57699,25850
58099,25850
58191,25811
58261,25741
58300,25649
58338,25741
58342,25746
58342,25999
58342,26000
58373,26155
58461,26288
58711,26538
58711,26538
58711,26538
58844,26626
59000,26657
59000,26657
59000,26657
61092,26657
61092,26750
61092,27749
61092,27750
61123,27905
61211,28038
61461,28288
61461,28288
61461,28288
61594,28376
61750,28407
61750,28407
61750,28407
63250,28407
63450,28407
63450,28649
63470,28700
" /> 
</g>
<g style="fill:#000000; fill-opacity:1.0; 
stroke:#000000; stroke-width:39.3701; stroke-opacity:1; 
stroke-linecap:round; stroke-linejoin:round;">
<polyline style="fill-rule:evenodd;"
points="64561,23078
64511,23111
64281,23342
62350,23342
62350,23342
62194,23373
62061,23461
62061,23461
61836,23686
61748,23819
61717,23975
61717,23975
61717,24082
61712,24094
61611,24161
61211,24561
61123,24694
61092,24850
61092,24850
61092,25250
61092,25699
61092,25700
61092,25700
61092,25842
60950,25842
60950,22287
60950,21550
60512,21550
60450,21612
60450,22050
60450,22149
60488,22241
60558,22311
60650,22350
60887,22350
60950,22287
60950,25842
60850,25842
60850,24299
60850,24200
60850,23862
60850,23637
60850,23299
60850,23200
60811,23108
60741,23038
60649,23000
60462,23000
60400,23062
60400,23700
60787,23700
60850,23637
60850,23862
60787,23800
60400,23800
60400,24437
60462,24500
60649,24500
60741,24461
60811,24391
60850,24299
60850,25842
60300,25842
60300,24437
60300,23800
60300,23700
60300,23062
60237,23000
60050,23000
59958,23038
59888,23108
59850,23200
59850,23299
59850,23637
59912,23700
60300,23700
60300,23800
59912,23800
59850,23862
59850,24200
59850,24299
59888,24391
59958,24461
60050,24500
60237,24500
60300,24437
60300,25842
59917,25842
59991,25811
60061,25741
60100,25649
60100,25550
60100,25312
60100,25087
60100,24849
60100,24750
60061,24658
59991,24588
59899,24550
59762,24550
59700,24612
59700,25150
60037,25150
60100,25087
60100,25312
60037,25250
59700,25250
59700,25257
59600,25257
59600,25250
59262,25250
59200,25312
59200,25087
59262,25150
59600,25150
59600,24612
59537,24550
59400,24550
59308,24588
59238,24658
59200,24750
59200,24750
59161,24658
59157,24653
59157,24500
59449,24500
59541,24461
59611,24391
59650,24299
59650,24200
59650,23200
59611,23108
59541,23038
59449,23000
59350,23000
58850,23000
58758,23038
58688,23108
58650,23200
58650,23299
58650,23673
58461,23861
58373,23994
58342,24150
58342,24150
58342,24653
58338,24658
58300,24750
58300,24750
58261,24658
58257,24653
58257,24068
58287,24038
58288,24038
58288,24038
58345,23981
58345,23980
58413,23913
58413,23913
58413,23913
58501,23780
58532,23625
58532,23625
58532,23624
58532,23117
58550,23074
58550,22975
58550,22425
58532,22382
58532,21875
58501,21719
58501,21719
58466,21666
58413,21586
58413,21586
58038,21211
57905,21123
57750,21092
57749,21092
56800,21092
56800,20850
56779,20800
60470,20800
60450,20850
60450,20949
60450,21387
60512,21450
60950,21450
60950,21442
61050,21442
61050,21450
61057,21450
61057,21550
61050,21550
61050,22287
61112,22350
61349,22350
61441,22311
61500,22253
61558,22311
61650,22350
61691,22350
61696,22375
61767,22482
62267,22982
62374,23053
62374,23053
62500,23078
64561,23078
" /> 
</g>
<g style="fill:#000000; fill-opacity:0.0; 
stroke:#000000; stroke-width:100; stroke-opacity:1; 
stroke-linecap:round; stroke-linejoin:round;">
<polyline fill="none;"
points="64561,23078
64511,23111
64281,23342
62350,23342
62350,23342
62194,23373
62061,23461
62061,23461
61836,23686
61748,23819
61717,23975
61717,23975
61717,24082
61712,24094
61611,24161
61211,24561
61123,24694
61092,24850
61092,24850
61092,25250
61092,25699
61092,25700
61092,25700
61092,25842
60950,25842
60950,22287
60950,21550
60512,21550
60450,21612
60450,22050
60450,22149
60488,22241
60558,22311
60650,22350
60887,22350
60950,22287
60950,25842
60850,25842
60850,24299
60850,24200
60850,23862
60850,23637
60850,23299
60850,23200
60811,23108
60741,23038
60649,23000
60462,23000
60400,23062
60400,23700
60787,23700
60850,23637
60850,23862
60787,23800
60400,23800
60400,24437
60462,24500
60649,24500
60741,24461
60811,24391
60850,24299
60850,25842
60300,25842
60300,24437
60300,23800
60300,23700
60300,23062
60237,23000
60050,23000
59958,23038
59888,23108
59850,23200
59850,23299
59850,23637
59912,23700
60300,23700
60300,23800
59912,23800
59850,23862
59850,24200
59850,24299
59888,24391
59958,24461
60050,24500
60237,24500
60300,24437
60300,25842
59917,25842
59991,25811
60061,25741
60100,25649
60100,25550
60100,25312
60100,25087
60100,24849
60100,24750
60061,24658
59991,24588
59899,24550
59762,24550
59700,24612
59700,25150
60037,25150
60100,25087
60100,25312
60037,25250
59700,25250
59700,25257
59600,25257
59600,25250
59262,25250
59200,25312
59200,25087
59262,25150
59600,25150
59600,24612
59537,24550
59400,24550
59308,24588
59238,24658
59200,24750
59200,24750
59161,24658
59157,24653
59157,24500
59449,24500
59541,24461
59611,24391
59650,24299
59650,24200
59650,23200
59611,23108
59541,23038
59449,23000
59350,23000
58850,23000
58758,23038
58688,23108
58650,23200
58650,23299
58650,23673
58461,23861
58373,23994
58342,24150
58342,24150
58342,24653
58338,24658
58300,24750
58300,24750
58261,24658
58257,24653
58257,24068
58287,24038
58288,24038
58288,24038
58345,23981
58345,23980
58413,23913
58413,23913
58413,23913
58501,23780
58532,23625
58532,23625
58532,23624
58532,23117
58550,23074
58550,22975
58550,22425
58532,22382
58532,21875
58501,21719
58501,21719
58466,21666
58413,21586
58413,21586
58038,21211
57905,21123
57750,21092
57749,21092
56800,21092
56800,20850
56779,20800
60470,20800
60450,20850
60450,20949
60450,21387
60512,21450
60950,21450
60950,21442
61050,21442
61050,21450
61057,21450
61057,21550
61050,21550
61050,22287
61112,22350
61349,22350
61441,22311
61500,22253
61558,22311
61650,22350
61691,22350
61696,22375
61767,22482
62267,22982
62374,23053
62374,23053
62500,23078
64561,23078
" /> 
</g>
<g style="fill:#000000; fill-opacity:1.0; 
stroke:#000000; stroke-width:39.3701; stroke-opacity:1; 
stroke-linecap:round; stroke-linejoin:round;">
<polyline style="fill-rule:evenodd;"
points="64720,20800
64700,20850
64700,20949
64700,22149
64708,22171
64541,22171
64550,22149
64550,22050
64550,21612
64487,21550
64050,21550
64050,21557
63950,21557
63950,21550
63942,21550
63942,21450
63950,21450
63950,21442
64050,21442
64050,21450
64487,21450
64550,21387
64550,20949
64550,20850
64529,20800
64720,20800
" /> 
</g>
<g style="fill:#000000; fill-opacity:0.0; 
stroke:#000000; stroke-width:100; stroke-opacity:1; 
stroke-linecap:round; stroke-linejoin:round;">
<polyline fill="none;"
points="64720,20800
64700,20850
64700,20949
64700,22149
64708,22171
64541,22171
64550,22149
64550,22050
64550,21612
64487,21550
64050,21550
64050,21557
63950,21557
63950,21550
63942,21550
63942,21450
63950,21450
63950,21442
64050,21442
64050,21450
64487,21450
64550,21387
64550,20949
64550,20850
64529,20800
64720,20800
" /> 
</g>
<g style="fill:#000000; fill-opacity:1.0; 
stroke:#000000; stroke-width:39.3701; stroke-opacity:1; 
stroke-linecap:round; stroke-linejoin:round;">
<polyline style="fill-rule:evenodd;"
points="66561,26473
66363,26671
66250,26671
66124,26696
66017,26767
65767,27017
65696,27124
65691,27150
65650,27150
65558,27188
65500,27246
65441,27188
65349,27150
65112,27150
65050,27212
65050,27950
65057,27950
65057,28050
65050,28050
65050,28057
64950,28057
64950,28050
64942,28050
64942,27950
64950,27950
64950,27212
64887,27150
64800,27150
64650,27150
64558,27188
64499,27246
64441,27188
64349,27150
64250,27150
63650,27150
63558,27188
63488,27258
63450,27350
63450,27449
63450,27592
63250,27592
61918,27592
61907,27581
61907,27025
61999,27025
62349,27025
62441,26986
62500,26928
62558,26986
62650,27025
62749,27025
63099,27025
63191,26986
63250,26928
63308,26986
63400,27025
63499,27025
63849,27025
63941,26986
64000,26928
64058,26986
64150,27025
64262,27025
64325,26962
64325,26550
64317,26550
64317,26450
64325,26450
64325,26442
64425,26442
64425,26450
64432,26450
64432,26550
64425,26550
64425,26962
64487,27025
64599,27025
64691,26986
64761,26916
64800,26824
64800,26725
64800,26612
64737,26550
64800,26550
64800,26514
65017,26732
65124,26803
65124,26803
65250,26828
65750,26828
65875,26803
65875,26803
65982,26732
66098,26616
66169,26509
66169,26509
66194,26384
66194,26327
66199,26329
66222,26352
66246,26352
66249,26350
66253,26352
66352,26352
66502,26352
66505,26350
66509,26352
66561,26352
66561,26473
" /> 
</g>
<g style="fill:#000000; fill-opacity:0.0; 
stroke:#000000; stroke-width:100; stroke-opacity:1; 
stroke-linecap:round; stroke-linejoin:round;">
<polyline fill="none;"
points="66561,26473
66363,26671
66250,26671
66124,26696
66017,26767
65767,27017
65696,27124
65691,27150
65650,27150
65558,27188
65500,27246
65441,27188
65349,27150
65112,27150
65050,27212
65050,27950
65057,27950
65057,28050
65050,28050
65050,28057
64950,28057
64950,28050
64942,28050
64942,27950
64950,27950
64950,27212
64887,27150
64800,27150
64650,27150
64558,27188
64499,27246
64441,27188
64349,27150
64250,27150
63650,27150
63558,27188
63488,27258
63450,27350
63450,27449
63450,27592
63250,27592
61918,27592
61907,27581
61907,27025
61999,27025
62349,27025
62441,26986
62500,26928
62558,26986
62650,27025
62749,27025
63099,27025
63191,26986
63250,26928
63308,26986
63400,27025
63499,27025
63849,27025
63941,26986
64000,26928
64058,26986
64150,27025
64262,27025
64325,26962
64325,26550
64317,26550
64317,26450
64325,26450
64325,26442
64425,26442
64425,26450
64432,26450
64432,26550
64425,26550
64425,26962
64487,27025
64599,27025
64691,26986
64761,26916
64800,26824
64800,26725
64800,26612
64737,26550
64800,26550
64800,26514
65017,26732
65124,26803
65124,26803
65250,26828
65750,26828
65875,26803
65875,26803
65982,26732
66098,26616
66169,26509
66169,26509
66194,26384
66194,26327
66199,26329
66222,26352
66246,26352
66249,26350
66253,26352
66352,26352
66502,26352
66505,26350
66509,26352
66561,26352
66561,26473
" /> 
</g>
<g style="fill:#000000; fill-opacity:1.0; 
stroke:#000000; stroke-width:39.3701; stroke-opacity:1; 
stroke-linecap:round; stroke-linejoin:round;">
<polyline style="fill-rule:evenodd;"
points="68969,22410
67374,22410
67314,22350
67599,22350
67691,22311
67750,22253
67808,22311
67900,22350
68137,22350
68200,22287
68200,21550
68192,21550
68192,21450
68200,21450
68200,21442
68300,21442
68300,21450
68307,21450
68307,21550
68300,21550
68300,22287
68362,22350
68599,22350
68691,22311
68750,22253
68808,22311
68900,22350
68941,22350
68946,22375
68969,22410
" /> 
</g>
<g style="fill:#000000; fill-opacity:0.0; 
stroke:#000000; stroke-width:100; stroke-opacity:1; 
stroke-linecap:round; stroke-linejoin:round;">
<polyline fill="none;"
points="68969,22410
67374,22410
67314,22350
67599,22350
67691,22311
67750,22253
67808,22311
67900,22350
68137,22350
68200,22287
68200,21550
68192,21550
68192,21450
68200,21450
68200,21442
68300,21442
68300,21450
68307,21450
68307,21550
68300,21550
68300,22287
68362,22350
68599,22350
68691,22311
68750,22253
68808,22311
68900,22350
68941,22350
68946,22375
68969,22410
" /> 
</g>
<g style="fill:#000000; fill-opacity:1.0; 
stroke:#000000; stroke-width:39.3701; stroke-opacity:1; 
stroke-linecap:round; stroke-linejoin:round;">
<polyline style="fill-rule:evenodd;"
points="70046,26738
70017,26767
69946,26874
69921,27000
69921,27150
69900,27150
69808,27188
69750,27246
69691,27188
69599,27150
69575,27150
69575,26462
69575,26050
69262,26050
69200,26112
69200,26225
69200,26324
69238,26416
69308,26486
69400,26525
69512,26525
69575,26462
69575,27150
69362,27150
69300,27212
69300,27950
69307,27950
69307,28050
69300,28050
69300,28057
69200,28057
69200,28050
69192,28050
69192,27950
69200,27950
69200,27212
69137,27150
68900,27150
68808,27188
68749,27246
68691,27188
68599,27150
68500,27150
67900,27150
67808,27188
67738,27258
67700,27350
67700,27449
67700,28649
67720,28700
67529,28700
67550,28649
67550,28550
67550,27350
67511,27258
67441,27188
67349,27150
67328,27150
67328,27136
67378,27086
67449,26979
67449,26979
67474,26854
67474,25852
67471,25833
67471,25578
68250,25578
69242,25578
69238,25583
69200,25675
69200,25774
69200,25887
69262,25950
69575,25950
69575,25942
69675,25942
69675,25950
69682,25950
69682,26050
69675,26050
69675,26462
69737,26525
69849,26525
69941,26486
70000,26428
70046,26474
70046,26738
" /> 
</g>
<g style="fill:#000000; fill-opacity:0.0; 
stroke:#000000; stroke-width:100; stroke-opacity:1; 
stroke-linecap:round; stroke-linejoin:round;">
<polyline fill="none;"
points="70046,26738
70017,26767
69946,26874
69921,27000
69921,27150
69900,27150
69808,27188
69750,27246
69691,27188
69599,27150
69575,27150
69575,26462
69575,26050
69262,26050
69200,26112
69200,26225
69200,26324
69238,26416
69308,26486
69400,26525
69512,26525
69575,26462
69575,27150
69362,27150
69300,27212
69300,27950
69307,27950
69307,28050
69300,28050
69300,28057
69200,28057
69200,28050
69192,28050
69192,27950
69200,27950
69200,27212
69137,27150
68900,27150
68808,27188
68749,27246
68691,27188
68599,27150
68500,27150
67900,27150
67808,27188
67738,27258
67700,27350
67700,27449
67700,28649
67720,28700
67529,28700
67550,28649
67550,28550
67550,27350
67511,27258
67441,27188
67349,27150
67328,27150
67328,27136
67378,27086
67449,26979
67449,26979
67474,26854
67474,25852
67471,25833
67471,25578
68250,25578
69242,25578
69238,25583
69200,25675
69200,25774
69200,25887
69262,25950
69575,25950
69575,25942
69675,25942
69675,25950
69682,25950
69682,26050
69675,26050
69675,26462
69737,26525
69849,26525
69941,26486
70000,26428
70046,26474
70046,26738
" /> 
</g>
<g style="fill:#000000; fill-opacity:1.0; 
stroke:#000000; stroke-width:39.3701; stroke-opacity:1; 
stroke-linecap:round; stroke-linejoin:round;">
<polyline style="fill-rule:evenodd;"
points="72046,26738
72017,26767
71946,26874
71921,27000
71921,27150
71900,27150
71808,27188
71749,27246
71691,27188
71599,27150
71578,27150
71578,26750
71553,26624
71553,26624
71487,26525
71512,26525
71575,26462
71575,26050
71567,26050
71567,25950
71575,25950
71575,25537
71512,25475
71487,25475
71553,25375
71553,25375
71578,25250
71578,25199
71625,25152
71684,25211
71921,25449
71921,25500
71922,25505
71849,25475
71737,25475
71675,25537
71675,25950
71682,25950
71682,26050
71675,26050
71675,26462
71737,26525
71849,26525
71941,26486
72000,26428
72046,26474
72046,26738
" /> 
</g>
<g style="fill:#000000; fill-opacity:0.0; 
stroke:#000000; stroke-width:100; stroke-opacity:1; 
stroke-linecap:round; stroke-linejoin:round;">
<polyline fill="none;"
points="72046,26738
72017,26767
71946,26874
71921,27000
71921,27150
71900,27150
71808,27188
71749,27246
71691,27188
71599,27150
71578,27150
71578,26750
71553,26624
71553,26624
71487,26525
71512,26525
71575,26462
71575,26050
71567,26050
71567,25950
71575,25950
71575,25537
71512,25475
71487,25475
71553,25375
71553,25375
71578,25250
71578,25199
71625,25152
71684,25211
71921,25449
71921,25500
71922,25505
71849,25475
71737,25475
71675,25537
71675,25950
71682,25950
71682,26050
71675,26050
71675,26462
71737,26525
71849,26525
71941,26486
72000,26428
72046,26474
72046,26738
" /> 
</g>
<g style="fill:#000000; fill-opacity:1.0; 
stroke:#000000; stroke-width:39.3701; stroke-opacity:1; 
stroke-linecap:round; stroke-linejoin:round;">
<polyline style="fill-rule:evenodd;"
points="80021,28700
74300,28700
74300,26324
74300,26225
74300,26112
74300,25887
74300,25774
74300,25675
74261,25583
74191,25513
74099,25475
73987,25475
73925,25537
73925,25950
74237,25950
74300,25887
74300,26112
74237,26050
73925,26050
73925,26462
73987,26525
74099,26525
74191,26486
74261,26416
74300,26324
74300,28700
73779,28700
73800,28649
73800,28550
73800,27350
73761,27258
73691,27188
73599,27150
73578,27150
73578,27000
73553,26874
73553,26874
73482,26767
73453,26738
73453,26474
73500,26428
73558,26486
73650,26525
73762,26525
73825,26462
73825,26050
73817,26050
73817,25950
73825,25950
73825,25537
73762,25475
73650,25475
73577,25505
73578,25500
73578,25199
73886,24891
73924,24799
73924,24700
73886,24608
73815,24538
73578,24300
73578,24298
73666,24261
73736,24191
73775,24099
73775,24000
73775,23650
73736,23558
73678,23499
73736,23441
73775,23349
73775,23250
73775,22900
73745,22828
74750,22828
74875,22803
74875,22803
74982,22732
75128,22585
75123,22594
75092,22750
75092,22750
75092,23749
75092,23750
75123,23905
75211,24038
75632,24458
75632,24544
75632,24701
75652,24749
75632,24798
75632,24898
75632,25055
75638,25071
75623,25094
75592,25250
75592,25499
75592,25500
75623,25655
75711,25788
75961,26038
75961,26038
75961,26038
76092,26125
76092,26249
76092,26330
76154,26480
76211,26538
76268,26595
76418,26657
76500,26657
76580,26657
76655,26626
76730,26595
76788,26538
76845,26481
76876,26405
76907,26331
76907,26250
76907,26169
76907,26169
76907,26125
77038,26038
77288,25788
77288,25788
77288,25788
77376,25655
77407,25500
77407,25500
77407,25499
77407,25275
77512,25275
77575,25212
77575,24800
77567,24800
77567,24700
77575,24700
77575,24287
77556,24269
77788,24038
77788,24038
77788,24038
77841,23958
77876,23905
77876,23905
77877,23900
77877,23900
77965,23811
77999,23730
78033,23811
78075,23853
77998,23969
77967,24125
77967,24125
77967,24288
77941,24263
77849,24225
77737,24225
77675,24287
77675,24700
77682,24700
77682,24800
77675,24800
77675,25212
77737,25275
77849,25275
77941,25236
78000,25178
78058,25236
78150,25275
78249,25275
78435,25275
78436,25276
78436,25522
78435,25525
78435,25624
78435,26124
78473,26216
78543,26286
78635,26325
78691,26325
78691,26343
78532,26502
78461,26609
78436,26735
78436,27272
78435,27275
78435,27374
78435,27874
78436,27877
78436,28250
78461,28375
78532,28482
78639,28553
78765,28578
78890,28553
78997,28482
79068,28375
79093,28250
79093,28051
79102,28055
79122,28075
79149,28075
79150,28074
79150,28075
79177,28075
79197,28055
79209,28050
79231,28160
79302,28267
79517,28482
79624,28553
79624,28553
79750,28578
79951,28578
79988,28666
80021,28700
" /> 
</g>
<g style="fill:#000000; fill-opacity:0.0; 
stroke:#000000; stroke-width:100; stroke-opacity:1; 
stroke-linecap:round; stroke-linejoin:round;">
<polyline fill="none;"
points="80021,28700
74300,28700
74300,26324
74300,26225
74300,26112
74300,25887
74300,25774
74300,25675
74261,25583
74191,25513
74099,25475
73987,25475
73925,25537
73925,25950
74237,25950
74300,25887
74300,26112
74237,26050
73925,26050
73925,26462
73987,26525
74099,26525
74191,26486
74261,26416
74300,26324
74300,28700
73779,28700
73800,28649
73800,28550
73800,27350
73761,27258
73691,27188
73599,27150
73578,27150
73578,27000
73553,26874
73553,26874
73482,26767
73453,26738
73453,26474
73500,26428
73558,26486
73650,26525
73762,26525
73825,26462
73825,26050
73817,26050
73817,25950
73825,25950
73825,25537
73762,25475
73650,25475
73577,25505
73578,25500
73578,25199
73886,24891
73924,24799
73924,24700
73886,24608
73815,24538
73578,24300
73578,24298
73666,24261
73736,24191
73775,24099
73775,24000
73775,23650
73736,23558
73678,23499
73736,23441
73775,23349
73775,23250
73775,22900
73745,22828
74750,22828
74875,22803
74875,22803
74982,22732
75128,22585
75123,22594
75092,22750
75092,22750
75092,23749
75092,23750
75123,23905
75211,24038
75632,24458
75632,24544
75632,24701
75652,24749
75632,24798
75632,24898
75632,25055
75638,25071
75623,25094
75592,25250
75592,25499
75592,25500
75623,25655
75711,25788
75961,26038
75961,26038
75961,26038
76092,26125
76092,26249
76092,26330
76154,26480
76211,26538
76268,26595
76418,26657
76500,26657
76580,26657
76655,26626
76730,26595
76788,26538
76845,26481
76876,26405
76907,26331
76907,26250
76907,26169
76907,26169
76907,26125
77038,26038
77288,25788
77288,25788
77288,25788
77376,25655
77407,25500
77407,25500
77407,25499
77407,25275
77512,25275
77575,25212
77575,24800
77567,24800
77567,24700
77575,24700
77575,24287
77556,24269
77788,24038
77788,24038
77788,24038
77841,23958
77876,23905
77876,23905
77877,23900
77877,23900
77965,23811
77999,23730
78033,23811
78075,23853
77998,23969
77967,24125
77967,24125
77967,24288
77941,24263
77849,24225
77737,24225
77675,24287
77675,24700
77682,24700
77682,24800
77675,24800
77675,25212
77737,25275
77849,25275
77941,25236
78000,25178
78058,25236
78150,25275
78249,25275
78435,25275
78436,25276
78436,25522
78435,25525
78435,25624
78435,26124
78473,26216
78543,26286
78635,26325
78691,26325
78691,26343
78532,26502
78461,26609
78436,26735
78436,27272
78435,27275
78435,27374
78435,27874
78436,27877
78436,28250
78461,28375
78532,28482
78639,28553
78765,28578
78890,28553
78997,28482
79068,28375
79093,28250
79093,28051
79102,28055
79122,28075
79149,28075
79150,28074
79150,28075
79177,28075
79197,28055
79209,28050
79231,28160
79302,28267
79517,28482
79624,28553
79624,28553
79750,28578
79951,28578
79988,28666
80021,28700
" /> 
</g>
<g style="fill:#000000; fill-opacity:1.0; 
stroke:#000000; stroke-width:39.3701; stroke-opacity:1; 
stroke-linecap:round; stroke-linejoin:round;">
<polyline style="fill-rule:evenodd;"
points="80269,22999
80188,23033
80034,23188
80000,23269
79966,23188
79811,23034
79736,23002
79787,22981
79815,22885
79500,22570
79429,22641
79429,22500
79114,22184
79018,22212
79001,22260
78981,22212
78885,22184
78815,22255
78815,22114
78787,22018
78581,21945
78363,21956
78212,22018
78184,22114
78500,22429
78815,22114
78815,22255
78570,22500
78885,22815
78981,22787
78998,22739
79018,22787
79114,22815
79429,22500
79429,22641
79184,22885
79212,22981
79267,23000
79188,23033
79034,23188
79000,23269
78966,23188
78811,23034
78736,23002
78787,22981
78815,22885
78500,22570
78429,22641
78429,22500
78114,22184
78018,22212
78001,22260
77981,22212
77885,22184
77815,22255
77815,22114
77787,22018
77581,21945
77363,21956
77212,22018
77184,22114
77500,22429
77815,22114
77815,22255
77570,22500
77885,22815
77981,22787
77998,22739
78018,22787
78114,22815
78429,22500
78429,22641
78184,22885
78212,22981
78267,23000
78188,23033
78034,23188
78000,23269
77966,23188
77811,23034
77736,23002
77787,22981
77815,22885
77500,22570
77184,22885
77212,22981
77267,23000
77188,23033
77050,23172
77050,23150
77011,23058
76941,22988
76849,22950
76827,22950
76965,22811
76997,22736
77018,22787
77114,22815
77429,22500
77114,22184
77018,22212
76999,22267
76966,22188
76811,22034
76609,21950
76391,21949
76188,22033
76129,22092
75750,22092
75750,22092
75594,22123
75585,22128
75886,21828
80113,21828
80171,21886
80171,22051
80034,22188
80002,22263
79981,22212
79885,22184
79815,22255
79815,22114
79787,22018
79581,21945
79363,21956
79212,22018
79184,22114
79500,22429
79815,22114
79815,22255
79570,22500
79885,22815
79981,22787
80000,22732
80033,22811
80188,22965
80269,22999
" /> 
</g>
<g style="fill:#000000; fill-opacity:0.0; 
stroke:#000000; stroke-width:100; stroke-opacity:1; 
stroke-linecap:round; stroke-linejoin:round;">
<polyline fill="none;"
points="80269,22999
80188,23033
80034,23188
80000,23269
79966,23188
79811,23034
79736,23002
79787,22981
79815,22885
79500,22570
79429,22641
79429,22500
79114,22184
79018,22212
79001,22260
78981,22212
78885,22184
78815,22255
78815,22114
78787,22018
78581,21945
78363,21956
78212,22018
78184,22114
78500,22429
78815,22114
78815,22255
78570,22500
78885,22815
78981,22787
78998,22739
79018,22787
79114,22815
79429,22500
79429,22641
79184,22885
79212,22981
79267,23000
79188,23033
79034,23188
79000,23269
78966,23188
78811,23034
78736,23002
78787,22981
78815,22885
78500,22570
78429,22641
78429,22500
78114,22184
78018,22212
78001,22260
77981,22212
77885,22184
77815,22255
77815,22114
77787,22018
77581,21945
77363,21956
77212,22018
77184,22114
77500,22429
77815,22114
77815,22255
77570,22500
77885,22815
77981,22787
77998,22739
78018,22787
78114,22815
78429,22500
78429,22641
78184,22885
78212,22981
78267,23000
78188,23033
78034,23188
78000,23269
77966,23188
77811,23034
77736,23002
77787,22981
77815,22885
77500,22570
77184,22885
77212,22981
77267,23000
77188,23033
77050,23172
77050,23150
77011,23058
76941,22988
76849,22950
76827,22950
76965,22811
76997,22736
77018,22787
77114,22815
77429,22500
77114,22184
77018,22212
76999,22267
76966,22188
76811,22034
76609,21950
76391,21949
76188,22033
76129,22092
75750,22092
75750,22092
75594,22123
75585,22128
75886,21828
80113,21828
80171,21886
80171,22051
80034,22188
80002,22263
79981,22212
79885,22184
79815,22255
79815,22114
79787,22018
79581,21945
79363,21956
79212,22018
79184,22114
79500,22429
79815,22114
79815,22255
79570,22500
79885,22815
79981,22787
80000,22732
80033,22811
80188,22965
80269,22999
" /> 
</g>
<g style="fill:#000000; fill-opacity:1.0; 
stroke:#000000; stroke-width:39.3701; stroke-opacity:1; 
stroke-linecap:round; stroke-linejoin:round;">
<polyline style="fill-rule:evenodd;"
points="82700,28700
81478,28700
81511,28666
81550,28574
81550,28475
81550,28362
81550,28137
81550,28024
81550,27925
81529,27875
81550,27824
81550,27725
81550,27612
81550,27387
81550,27274
81550,27175
81511,27083
81441,27013
81349,26975
81237,26975
81175,27037
81175,27450
81487,27450
81550,27387
81550,27612
81487,27550
81175,27550
81175,27787
81175,27962
81175,28200
81487,28200
81550,28137
81550,28362
81487,28300
81175,28300
81175,28307
81075,28307
81075,28300
81067,28300
81067,28200
81075,28200
81075,27962
81075,27787
81075,27550
81067,27550
81067,27450
81075,27450
81075,27037
81012,26975
80900,26975
80808,27013
80800,27021
80800,25074
80800,24975
80800,24862
80800,24637
80800,24524
80800,24425
80761,24333
80691,24263
80599,24225
80487,24225
80425,24287
80425,24700
80737,24700
80800,24637
80800,24862
80737,24800
80425,24800
80425,25212
80487,25275
80599,25275
80691,25236
80761,25166
80800,25074
80800,27021
80749,27071
80691,27013
80599,26975
80500,26975
80150,26975
80058,27013
79988,27083
79950,27175
79950,27181
79874,27196
79841,27218
79826,27183
79756,27113
79664,27075
79565,27075
79409,27075
79405,27075
79382,27075
79366,27091
79313,27113
79277,27148
79241,27113
79197,27094
79177,27075
79150,27075
79150,27075
79149,27075
79122,27075
79102,27094
79093,27098
79093,26871
79252,26712
79323,26605
79323,26605
79348,26480
79348,26325
79405,26325
79409,26325
79432,26325
79448,26308
79501,26286
79571,26216
79575,26209
79575,26262
79637,26325
79664,26325
79756,26286
79826,26216
79865,26124
79865,26025
79865,25937
79802,25875
79610,25875
79610,25775
79802,25775
79865,25712
79865,25624
79865,25525
79826,25433
79756,25363
79664,25325
79637,25325
79608,25353
79608,25275
79849,25275
79941,25236
80000,25178
80058,25236
80150,25275
80262,25275
80325,25212
80325,24800
80317,24800
80317,24700
80325,24700
80325,24287
80262,24225
80150,24225
80058,24263
80032,24288
80032,24125
80032,24125
80032,24125
80001,23969
79924,23853
79965,23811
79999,23730
80033,23811
80188,23965
80390,24049
80608,24050
80811,23966
80949,23828
81000,23828
81125,23803
81125,23803
81232,23732
81482,23482
81553,23375
81553,23375
81578,23250
81578,22000
81553,21874
81553,21874
81482,21767
80732,21017
80625,20946
80500,20921
75500,20921
75374,20946
75267,21017
75113,21171
74800,21171
74800,20850
74779,20800
82700,20800
82700,28700
" /> 
</g>
<g style="fill:#000000; fill-opacity:0.0; 
stroke:#000000; stroke-width:100; stroke-opacity:1; 
stroke-linecap:round; stroke-linejoin:round;">
<polyline fill="none;"
points="82700,28700
81478,28700
81511,28666
81550,28574
81550,28475
81550,28362
81550,28137
81550,28024
81550,27925
81529,27875
81550,27824
81550,27725
81550,27612
81550,27387
81550,27274
81550,27175
81511,27083
81441,27013
81349,26975
81237,26975
81175,27037
81175,27450
81487,27450
81550,27387
81550,27612
81487,27550
81175,27550
81175,27787
81175,27962
81175,28200
81487,28200
81550,28137
81550,28362
81487,28300
81175,28300
81175,28307
81075,28307
81075,28300
81067,28300
81067,28200
81075,28200
81075,27962
81075,27787
81075,27550
81067,27550
81067,27450
81075,27450
81075,27037
81012,26975
80900,26975
80808,27013
80800,27021
80800,25074
80800,24975
80800,24862
80800,24637
80800,24524
80800,24425
80761,24333
80691,24263
80599,24225
80487,24225
80425,24287
80425,24700
80737,24700
80800,24637
80800,24862
80737,24800
80425,24800
80425,25212
80487,25275
80599,25275
80691,25236
80761,25166
80800,25074
80800,27021
80749,27071
80691,27013
80599,26975
80500,26975
80150,26975
80058,27013
79988,27083
79950,27175
79950,27181
79874,27196
79841,27218
79826,27183
79756,27113
79664,27075
79565,27075
79409,27075
79405,27075
79382,27075
79366,27091
79313,27113
79277,27148
79241,27113
79197,27094
79177,27075
79150,27075
79150,27075
79149,27075
79122,27075
79102,27094
79093,27098
79093,26871
79252,26712
79323,26605
79323,26605
79348,26480
79348,26325
79405,26325
79409,26325
79432,26325
79448,26308
79501,26286
79571,26216
79575,26209
79575,26262
79637,26325
79664,26325
79756,26286
79826,26216
79865,26124
79865,26025
79865,25937
79802,25875
79610,25875
79610,25775
79802,25775
79865,25712
79865,25624
79865,25525
79826,25433
79756,25363
79664,25325
79637,25325
79608,25353
79608,25275
79849,25275
79941,25236
80000,25178
80058,25236
80150,25275
80262,25275
80325,25212
80325,24800
80317,24800
80317,24700
80325,24700
80325,24287
80262,24225
80150,24225
80058,24263
80032,24288
80032,24125
80032,24125
80032,24125
80001,23969
79924,23853
79965,23811
79999,23730
80033,23811
80188,23965
80390,24049
80608,24050
80811,23966
80949,23828
81000,23828
81125,23803
81125,23803
81232,23732
81482,23482
81553,23375
81553,23375
81578,23250
81578,22000
81553,21874
81553,21874
81482,21767
80732,21017
80625,20946
80500,20921
75500,20921
75374,20946
75267,21017
75113,21171
74800,21171
74800,20850
74779,20800
82700,20800
82700,28700
" /> 
</g>
<g style="fill:#FFFFFF; fill-opacity:0.0; 
stroke:#FFFFFF; stroke-width:39.3701; stroke-opacity:1; 
stroke-linecap:round; stroke-linejoin:round;">
</g>
<g style="fill:#FFFFFF; fill-opacity:1.0; 
stroke:#FFFFFF; stroke-width:39.3701; stroke-opacity:1; 
stroke-linecap:round; stroke-linejoin:round;">
<circle cx="64000" cy="28000" r="58.815" /> 
<circle cx="68250" cy="28000" r="58.815" /> 
<circle cx="67250" cy="21500" r="58.815" /> 
<circle cx="79020" cy="24020" r="58.815" /> 
<circle cx="58000" cy="23750" r="58.815" /> 
<circle cx="66250" cy="21500" r="19.815" /> 
<circle cx="52000" cy="27250" r="19.815" /> 
<circle cx="52000" cy="22250" r="19.815" /> 
<circle cx="65250" cy="21500" r="19.815" /> 
<circle cx="73250" cy="24750" r="19.815" /> 
<circle cx="68500" cy="24550" r="19.815" /> 
<circle cx="71250" cy="24750" r="19.815" /> 
<circle cx="68500" cy="24850" r="19.815" /> 
<circle cx="72250" cy="25000" r="19.815" /> 
<circle cx="68500" cy="24250" r="19.815" /> 
<circle cx="55000" cy="26250" r="58.815" /> 
<circle cx="76500" cy="26250" r="58.815" /> 
<circle cx="71750" cy="26750" r="58.815" /> 
<circle cx="68250" cy="21500" r="58.815" /> 
<circle cx="56850" cy="23750" r="58.815" /> 
<circle cx="53250" cy="21500" r="58.815" /> 
<circle cx="81125" cy="27500" r="58.815" /> 
<circle cx="69250" cy="28000" r="58.815" /> 
<circle cx="65000" cy="28000" r="58.815" /> 
<circle cx="64000" cy="21500" r="58.815" /> 
<circle cx="61000" cy="21500" r="58.815" /> 
<circle cx="52000" cy="24750" r="58.815" /> 
<circle cx="76500" cy="23500" r="160.315" /> 
<circle cx="76500" cy="22500" r="160.315" /> 
<circle cx="77500" cy="23500" r="160.315" /> 
<circle cx="77500" cy="22500" r="160.315" /> 
<circle cx="78500" cy="23500" r="160.315" /> 
<circle cx="78500" cy="22500" r="160.315" /> 
<circle cx="79500" cy="23500" r="160.315" /> 
<circle cx="79500" cy="22500" r="160.315" /> 
<circle cx="80500" cy="23500" r="160.315" /> 
<circle cx="80500" cy="22500" r="160.315" /> 
</g> 
</svg>
